<?xml version="1.0" encoding="UTF-8"?>
<!DOCTYPE svg PUBLIC "-//W3C//DTD SVG 1.0//EN" "http://www.w3.org/TR/2001/REC-SVG-20010904/DTD/svg10.dtd">
<!-- Creator: CorelDRAW X8 -->
<svg xmlns="http://www.w3.org/2000/svg" xml:space="preserve" width="529.166mm" height="529.166mm" version="1.0" style="shape-rendering:geometricPrecision; text-rendering:geometricPrecision; image-rendering:optimizeQuality; fill-rule:evenodd; clip-rule:evenodd"
viewBox="0 0 6346 6346"
 xmlns:xlink="http://www.w3.org/1999/xlink">
 <defs>
  <style type="text/css">
   <![CDATA[
    .str7 {stroke:fuchsia;stroke-width:9.91253;stroke-opacity:0.400000}
    .str2 {stroke:black;stroke-width:9.91253}
    .str4 {stroke:lime;stroke-width:9.91253}
    .str3 {stroke:aqua;stroke-width:9.91253}
    .str5 {stroke:aqua;stroke-width:9.91253}
    .str6 {stroke:fuchsia;stroke-width:9.91253}
    .str0 {stroke:white;stroke-width:9.91253}
    .str1 {stroke:white;stroke-width:9.91253}
    .str8 {stroke:white;stroke-width:6.60711}
    .fil1 {fill:none}
    .fil2 {fill:none}
    .fil10 {fill:white}
    .fil9 {fill:#4C9CFF;fill-rule:nonzero}
    .fil7 {fill:white;fill-rule:nonzero}
    .fil5 {fill:fuchsia;fill-opacity:0.501961}
    .fil4 {fill:white;fill-opacity:0.501961}
    .fil6 {fill:#2687FF;fill-opacity:0.600000}
    .fil8 {fill:white}
    .fil3 {fill:url(#id0)}
    .fil0 {fill:url(#id1)}
   ]]>
  </style>
  <linearGradient id="id0" gradientUnits="userSpaceOnUse" x1="2043.82" y1="1949.79" x2="3406.9" y2="3071.73">
   <stop offset="0" style="stop-opacity:1; stop-color:#3D91F2"/>
   <stop offset="1" style="stop-opacity:1; stop-color:#A6C7FF"/>
  </linearGradient>
  <radialGradient id="id1" gradientUnits="userSpaceOnUse" gradientTransform="matrix(1.05263 -0 -0 0.349753 -157 2393)" cx="2982.63" cy="3680.69" r="3628.87" fx="2982.63" fy="3680.69">
   <stop offset="0" style="stop-opacity:1; stop-color:#66084F"/>
   <stop offset="1" style="stop-opacity:1; stop-color:#263942"/>
  </radialGradient>
 </defs>
 <g id="Camada_x0020_1">
  <metadata id="CorelCorpID_0Corel-Layer"/>
  <path class="fil0" d="M0 0l6346 0 0 6346 -6346 0 0 -6346z"/>
  <path class="fil1 str0" d="M4595 3524l277 -160 415 168"/>
  <path class="fil1 str0" d="M4771 3084l203 -117 1311 531"/>
  <path class="fil1 str0" d="M1932 5425l-301 -122c-9,-3 -10,-15 -1,-20l144 -83"/>
  <path class="fil1 str1" d="M1630 5141l-705 405"/>
  <path class="fil1 str0" d="M2986 4275l-160 -64 -549 315m-752 431l-457 262"/>
  <path class="fil1 str2" d="M3447 5152c73,-63 271,-211 375,-120 118,103 385,111 118,327 -94,77 -369,-183 -419,-209 -5,-3 -25,1 18,-13"/>
  <path class="fil1 str2" d="M4868 3082c-296,-83 -4,-135 105,-237 97,-91 281,-33 386,18 53,25 81,176 -8,215 -193,85 -259,160 -464,73"/>
  <path class="fil1 str2" d="M2015 2426c-71,36 -615,305 -711,171 -173,-243 -99,-499 -611,-356 -69,20 -213,-366 -271,-445"/>
  <path class="fil1 str2" d="M1886 2233c-488,123 -379,-136 -625,-473 -13,-18 -130,-283 -157,-327"/>
  <path class="fil1 str2" d="M2549 1642c-28,-19 -269,-201 -262,-273"/>
  <path class="fil1 str2" d="M3758 2138c25,1 387,-104 266,-231 -115,-120 616,-378 671,-440l28 64"/>
  <path class="fil1 str2" d="M4432 1822c59,-122 -211,125 -211,-267 0,-239 -80,-321 185,-309 215,9 118,577 45,582 -20,1 -25,5 -19,-6z"/>
  <path class="fil1 str2" d="M4442 2151c70,-19 444,-181 430,-245 -78,-360 218,-259 518,-390 58,-26 295,-142 335,-174"/>
  <path class="fil1 str2" d="M3639 1301c447,-301 427,-44 28,-676"/>
  <path class="fil1 str0" d="M2897 3263l-757 434 0 66 752 305 757 -434 0 -66 -752 -305z"/>
  <path class="fil1 str0" d="M5322 3818l0 61 -1719 986 -902 -366 0 -61 1719 -985 902 365z"/>
  <path class="fil1 str1" d="M1834 3790l1781 -1021c12,-7 14,-14 14,-27l0 -1507c0,-24 -17,-34 -38,-22l-1777 1019c-17,10 -23,25 -23,44l0 1491c0,26 22,35 43,23z"/>
  <path class="fil1 str3" d="M1910 4393l-412 236c-4,2 -6,6 -6,10 0,5 3,9 7,10l617 250c9,4 17,3 26,-2l415 -238c4,-3 6,-7 6,-11 -1,-4 -3,-8 -7,-10l-613 -248c-13,-5 -21,-4 -33,3z"/>
  <path class="fil1 str3" d="M1492 4639l0 263c0,6 0,10 6,12l613 249c12,5 19,4 30,-3l413 -236c7,-5 9,-8 9,-16l0 -260"/>
  <path class="fil1 str3" d="M1826 5130l-93 53 83 34 92 -54 -82 -33z"/>
  <path class="fil1 str3" d="M1973 5190l-93 53 83 33 93 -53 -83 -33z"/>
  <path class="fil1 str3" d="M2167 4635l-93 53 83 33 93 -53 -83 -33z"/>
  <path class="fil1 str3" d="M2302 4689l-93 53 83 34 93 -53 -83 -34z"/>
  <path class="fil1 str3" d="M2447 4748l-93 53 82 33 93 -53 -82 -33z"/>
  <path class="fil1 str3" d="M2594 4807l-93 54 83 33 92 -53 -82 -34z"/>
  <path class="fil1 str3" d="M2129 4904l0 264"/>
  <path class="fil1 str3" d="M2385 5209l364 135 3 164 -513 294"/>
  <path class="fil1 str3" d="M2322 5148l-72 42 99 40 73 -41 -100 -41z"/>
  <path class="fil1 str3" d="M1525 4927l0 42 585 237c20,9 25,5 43,-6l371 -213 0 -46"/>
  <path class="fil1 str3" d="M2528 4938l-594 -240c-4,-2 -9,-2 -13,0l-396 228"/>
  <path class="fil1 str0" d="M2070 5346l-284 163 248 101 285 -164 -249 -100z"/>
  <path class="fil1 str3" d="M1546 5017l-93 53 83 33 93 -53 -83 -33z"/>
  <path class="fil1 str3" d="M1681 5071l-92 54 82 33 93 -53 -83 -34z"/>
  <path class="fil1 str3" d="M2482 4762l121 -70c9,-5 15,-5 24,-1l266 107c10,4 19,6 30,6l210 0"/>
  <path class="fil1 str3" d="M2558 5013l-73 42 100 40 72 -42 -99 -40z"/>
  <path class="fil1 str3" d="M2160 5776c-56,0 -102,32 -102,72 0,39 46,71 102,71 56,0 101,-32 101,-71 0,-40 -45,-72 -101,-72z"/>
  <path class="fil1 str4" d="M2052 5168l-181 104c-3,1 -4,4 -4,7 0,4 2,6 5,7l154 63c5,2 11,1 16,-2l181 -103c2,-2 4,-5 4,-8 -1,-3 -2,-6 -5,-7l-155 -62c-5,-2 -10,-2 -15,1z"/>
  <path class="fil1 str4" d="M2225 5451l-158 -65c-5,-1 -10,-1 -14,1l-185 106"/>
  <path class="fil1 str4" d="M1867 5279l0 207c0,10 2,12 11,16l151 61c4,1 7,1 10,-1l179 -102c6,-4 9,-4 9,-11l0 -213"/>
  <path class="fil1 str4" d="M2034 5352l0 212"/>
  <path class="fil1 str3" d="M2560 4919l-636 -257c-6,-3 -12,-2 -17,1l-415 238"/>
  <path class="fil1 str3" d="M1399 2945l-506 -205 -639 366"/>
  <path class="fil1 str3" d="M869 2446l-67 38c-2,2 -2,1 0,2l579 234 66 -38c3,-1 3,-1 0,-2l-578 -234z"/>
  <path class="fil1 str3" d="M800 2485l0 46 578 235c3,1 3,1 3,-1l0 -45"/>
  <path class="fil1 str3" d="M714 2535l-66 38c-3,2 -4,1 -1,2l578 234 67 -38c2,-1 2,-1 0,-2l-578 -234z"/>
  <path class="fil1 str3" d="M645 2574l0 46 579 235c2,1 1,1 1,-1l0 -45"/>
  <path class="fil1 str3" d="M558 2624l-67 38c-2,2 -2,1 0,2l579 234 67 -38c2,-1 2,-1 0,-2l-579 -234z"/>
  <path class="fil1 str3" d="M490 2663l0 47 579 234c1,1 1,1 1,-1l0 -45"/>
  <path class="fil1 str3" d="M403 2713l-66 38c-3,2 -3,1 -1,2l579 234 67 -38c2,-1 2,-1 0,-2l-579 -234z"/>
  <path class="fil1 str3" d="M334 2752l0 47 579 234c2,1 2,1 2,-1l0 -45"/>
  <path class="fil1 str3" d="M248 2802l-68 39c-1,1 -1,0 0,1l580 235 66 -39c3,-1 3,-1 0,-2l-578 -234z"/>
  <path class="fil1 str3" d="M760 3311l0 -234"/>
  <path class="fil1 str3" d="M179 2841l0 229c0,6 4,8 10,10l555 225c10,4 18,5 28,-1l670 -384c5,-3 7,-4 7,-10l0 -229"/>
  <path class="fil1 str3" d="M915 3034l-87 49 0 -46"/>
  <path class="fil1 str3" d="M1070 2945l-86 49 0 -46"/>
  <path class="fil1 str3" d="M1225 2856l-86 49 0 -46"/>
  <path class="fil1 str3" d="M1381 2766l-87 50 0 -46"/>
  <path class="fil1 str3" d="M254 3103l0 74 486 197c17,7 28,6 44,-3l53 -30m224 -129l339 -195 0 -74"/>
  <path class="fil1 str3" d="M800 2531l-39 23m-116 66l-40 23m-115 67l-40 22m-116 67l-39 22"/>
  <g id="_1042009584">
   <path class="fil1 str0" d="M5367 1503l0 86"/>
   <path class="fil1 str0" d="M5262 1465l-118 68c-3,2 -5,5 -4,9 0,4 2,7 6,8l77 32c7,2 16,2 22,-2l117 -67c3,-2 5,-6 5,-10 0,-3 -3,-7 -6,-8l-77 -31c-8,-3 -15,-3 -22,1z"/>
   <path class="fil1 str0" d="M5305 1546l-108 -44"/>
   <path class="fil1 str0" d="M5305 1546l0 78"/>
   <path class="fil1 str0" d="M5234 1586l0 74"/>
   <path class="fil1 str0" d="M5140 1542l0 82"/>
   <path class="fil1 str0" d="M5262 1515l-118 67c-3,2 -5,5 -4,9 0,4 2,7 6,9l77 31c7,3 16,2 22,-1l117 -68c3,-2 5,-5 5,-9 0,-4 -3,-7 -6,-9l-77 -31c-8,-3 -15,-2 -22,2z"/>
  </g>
  <path class="fil1 str4" d="M1022 3203l-181 104c-3,2 -5,5 -4,8 0,3 2,6 4,7l155 62c5,2 11,2 15,-1l181 -104c3,-1 5,-4 4,-7 0,-3 -2,-6 -5,-7l-154 -63c-5,-2 -10,-2 -15,1z"/>
  <path class="fil1 str4" d="M1195 3486l-159 -64c-4,-2 -9,-2 -14,1l-184 106"/>
  <path class="fil1 str4" d="M837 3315l0 207c0,10 1,11 11,15l151 61c3,2 7,1 10,0l179 -103c3,-2 5,-3 7,-4 1,-2 1,-3 1,-7l0 -212"/>
  <path class="fil1 str4" d="M1004 3387l0 212"/>
  <path class="fil1 str3" d="M5436 1780l-429 246c-6,4 -10,10 -9,18 0,8 5,14 12,17l468 190c11,4 21,3 30,-2l428 -246c7,-4 10,-10 10,-18 -1,-8 -5,-14 -12,-17l-469 -189c-10,-4 -20,-4 -29,1z"/>
  <path class="fil1 str3" d="M5943 2141l-481 -195c-7,-3 -15,-3 -21,1l-441 253"/>
  <path class="fil1 str3" d="M4998 2044l0 153c0,11 4,11 12,15l462 187c11,4 28,4 39,-3l423 -242c10,-6 12,-7 12,-19l0 -150"/>
  <path class="fil1 str3" d="M5494 2257l0 142"/>
  <path class="fil1 str3" d="M5319 1976l-161 92c-2,2 -4,4 -4,7 1,3 2,5 5,6l137 55c4,2 9,1 13,-1l161 -92c2,-1 4,-4 3,-7 0,-2 -1,-5 -4,-6l-137 -55c-4,-2 -9,-2 -13,1z"/>
  <path class="fil1 str3" d="M4989 2245l-92 53 82 34 93 -53 -83 -34z"/>
  <path class="fil1 str0" d="M6056 2235l-284 163 248 101 284 -164 -248 -100z"/>
  <path class="fil1 str4" d="M6038 2057l-181 104c-3,1 -5,4 -4,7 0,4 2,6 5,7l154 63c5,2 11,1 15,-2l181 -103c3,-2 5,-5 4,-8 0,-3 -2,-6 -5,-7l-154 -62c-5,-2 -10,-2 -15,1z"/>
  <path class="fil1 str4" d="M6211 2340l-158 -65c-5,-1 -10,-1 -14,1l-185 106"/>
  <path class="fil1 str4" d="M5853 2168l0 207c0,10 1,12 11,16l151 61c3,1 7,1 10,-1l179 -102c6,-4 8,-4 8,-11l0 -213"/>
  <path class="fil1 str4" d="M6020 2241l0 212"/>
  <path class="fil1 str3" d="M5113 2295l-93 53 83 34 93 -53 -83 -34z"/>
  <path class="fil1 str3" d="M5237 2345l-93 54 83 33 92 -53 -82 -34z"/>
  <path class="fil1 str3" d="M5361 2395l-93 54 82 33 93 -53 -82 -34z"/>
  <path class="fil1 str5" d="M2621 5074l426 161 0 419 -229 146"/>
  <path class="fil1 str3" d="M4082 1971l-412 236c-4,2 -6,6 -5,11 0,4 3,8 7,9l617 250c9,4 17,3 25,-2l415 -238c4,-2 6,-6 6,-11 0,-4 -3,-8 -7,-10l-612 -248c-13,-5 -22,-4 -34,3z"/>
  <path class="fil1 str3" d="M3665 2218l0 738c0,6 -1,10 6,12l612 249c13,5 20,4 31,-3l413 -236c7,-5 8,-8 8,-16l0 -736"/>
  <path class="fil1 str3" d="M3999 3184l-93 53 82 34 93 -54 -82 -33z"/>
  <path class="fil1 str3" d="M4340 2689l-93 53 82 33 93 -53 -82 -33z"/>
  <path class="fil1 str3" d="M4475 2743l-93 54 82 33 93 -53 -82 -34z"/>
  <path class="fil1 str3" d="M4619 2802l-93 53 83 34 93 -54 -83 -33z"/>
  <path class="fil1 str3" d="M4766 2861l-92 54 82 33 93 -53 -83 -34z"/>
  <path class="fil1 str3" d="M4301 2482l0 740"/>
  <path class="fil1 str3" d="M4547 3172l-72 42 99 40 73 -41 -100 -41z"/>
  <path class="fil1 str3" d="M3697 2981l0 43 585 236c21,9 25,5 44,-6l371 -213 0 -46"/>
  <path class="fil1 str3" d="M4701 2992l-594 -240c-5,-2 -9,-2 -13,1l-397 227"/>
  <path class="fil1 str3" d="M3719 3071l-93 53 83 33 92 -53 -82 -33z"/>
  <path class="fil1 str3" d="M3854 3126l-93 53 83 33 93 -53 -83 -33z"/>
  <path class="fil1 str3" d="M4731 3067l-73 42 99 40 73 -42 -99 -40z"/>
  <path class="fil1 str2" d="M4674 2360c-62,48 -215,139 -294,163 -77,24 239,-186 304,-180"/>
  <path class="fil1 str2" d="M4419 3082c-90,112 -80,-198 14,-82 30,38 -14,78 -32,97"/>
  <path class="fil1 str2" d="M4514 3048c-25,0 -19,-14 -17,-42 0,-4 34,-39 32,15 0,8 10,19 0,20"/>
  <path class="fil1 str2" d="M4586 3009c-24,15 -19,-2 -17,-29 0,-10 20,-31 18,24 0,4 5,2 -1,5z"/>
  <path class="fil1 str3" d="M2207 3747l-134 76c-4,2 -6,6 -5,11 0,4 3,7 7,9l257 104c7,3 13,2 19,-1l133 -76c8,-5 7,-17 -1,-20l-259 -105c-6,-2 -12,-2 -17,2z"/>
  <path class="fil1 str3" d="M2489 3946l-264 -107c-4,-2 -9,-1 -13,1l-143 82"/>
  <path class="fil1 str3" d="M2068 3832l0 91c0,5 1,10 6,12l256 104c8,3 16,2 23,-2l130 -75c4,-2 6,-5 6,-9l0 -97"/>
  <path class="fil1 str3" d="M2342 3951l0 93"/>
  <path class="fil1 str3" d="M3853 2844l0 143 -138 -56 0 -143 138 56z"/>
  <path class="fil1 str3" d="M5402 3467l-118 67c-31,18 -39,54 -33,79 7,30 34,50 72,65l396 161c58,23 105,23 158,-8l102 -58c50,-29 27,-108 1,-158 -73,-140 -357,-276 -578,-148z"/>
  <path class="fil1 str1" d="M2607 3347l0 237c15,45 80,61 131,40 26,-11 50,-33 56,-64l0 -273c0,-29 7,-48 31,-65"/>
  <path class="fil1 str5" d="M5432 3451c66,-19 131,-3 175,22l-39 26c-69,-37 -157,-29 -219,-2"/>
  <path class="fil1 str3" d="M2704 3960l0 32 -1241 711 -529 0 -895 514"/>
  <path class="fil1 str3" d="M2191 3935l0 48 -725 415 -672 0 -561 322"/>
  <path class="fil1 str0" d="M3455 3714l0 31 130 53 482 -276 -491 -198c-9,-4 -10,-16 -1,-21l144 -83"/>
  <path class="fil1 str3" d="M2666 3910l0 35 178 72 0 -35 -178 -72z"/>
  <path class="fil1 str3" d="M5343 3588l0 67 146 59 0 -67 -146 -59z"/>
  <path class="fil1 str3" d="M3529 3636l0 35 -105 60 0 -34 105 -61z"/>
  <g id="_1042026736">
   <path class="fil1 str3" d="M3759 3391l0 80"/>
   <path class="fil1 str3" d="M3858 3339l114 46c7,3 9,13 2,16l-75 43c-7,4 -14,4 -21,2l-113 -46c-8,-3 -8,-13 0,-18l75 -43c7,-4 11,-3 18,0z"/>
   <path class="fil1 str3" d="M3820 3422l100 -58"/>
   <path class="fil1 str3" d="M3820 3422l0 76"/>
   <path class="fil1 str3" d="M3889 3450l0 69"/>
   <path class="fil1 str3" d="M3978 3392l0 81"/>
   <path class="fil1 str3" d="M3858 3386l114 47c7,2 9,12 2,16l-75 43c-7,4 -14,4 -21,1l-113 -46c-8,-3 -8,-13 0,-17l75 -43c7,-5 11,-4 18,-1z"/>
  </g>
  <path class="fil1 str0" d="M5183 2414l-117 68 750 304"/>
  <path class="fil1 str1" d="M1960 3210l-308 177 0 507 -254 145 -356 0"/>
  <g id="_1042028176">
   <path class="fil1 str6" d="M4430 3575l73 30c4,1 4,7 1,9l-70 40c-5,2 -10,3 -14,1l-72 -29c-4,-2 -4,-7 -1,-9l71 -41c4,-2 8,-3 12,-1z"/>
   <path class="fil1 str6" d="M4314 3641l73 30c4,2 5,7 1,9l-70 40c-4,3 -9,3 -14,1l-71 -29c-4,-2 -5,-7 -1,-9l71 -41c3,-2 7,-2 11,-1z"/>
   <path class="fil1 str6" d="M4199 3707l73 30c4,2 4,7 1,9l-70 40c-5,3 -9,3 -14,1l-72 -29c-4,-2 -4,-7 -1,-9l71 -41c4,-2 8,-2 12,-1z"/>
   <path class="fil1 str6" d="M3968 3840l73 30c4,1 4,7 1,9l-70 40c-5,2 -9,3 -14,1l-72 -30c-4,-1 -4,-7 -1,-9l71 -40c4,-2 8,-3 12,-1z"/>
   <path class="fil1 str6" d="M3852 3906l74 30c3,2 4,7 0,9l-70 40c-4,2 -9,3 -14,1l-71 -29c-4,-2 -5,-7 -1,-9l71 -41c3,-2 7,-3 11,-1z"/>
   <path class="fil1 str6" d="M3737 3972l73 30c4,2 4,7 1,9l-70 40c-5,3 -9,3 -14,1l-72 -29c-4,-2 -4,-7 0,-9l70 -41c4,-2 8,-2 12,-1z"/>
   <path class="fil1 str6" d="M3621 4039l74 29c3,2 4,7 0,9l-70 40c-4,3 -9,3 -14,1l-71 -29c-4,-2 -5,-7 -1,-9l71 -41c4,-2 8,-2 11,0z"/>
   <path class="fil1 str6" d="M3390 4171l74 30c3,1 4,7 0,9l-70 40c-4,2 -9,3 -13,1l-72 -30c-4,-1 -4,-6 -1,-9l71 -40c4,-2 8,-3 11,-1z"/>
   <path class="fil1 str6" d="M3275 4237l73 30c4,2 4,7 1,9l-70 40c-4,3 -9,3 -14,1l-72 -29c-3,-2 -4,-7 0,-9l71 -41c3,-2 7,-2 11,-1z"/>
   <path class="fil1 str6" d="M3160 4303l73 30c4,2 4,7 0,9l-70 40c-4,3 -9,3 -13,1l-72 -29c-4,-2 -4,-7 -1,-9l71 -41c4,-2 8,-2 12,-1z"/>
   <path class="fil1 str6" d="M3044 4370l73 29c4,2 5,7 1,9l-70 40c-4,3 -9,3 -14,1l-72 -29c-3,-2 -4,-7 0,-9l71 -41c3,-2 7,-2 11,0z"/>
  </g>
  <g id="_1042031344">
   <path class="fil1 str6" d="M4605 3646l73 30c4,2 4,7 1,9l-70 40c-5,2 -9,3 -14,1l-72 -29c-4,-2 -4,-7 -1,-9l71 -41c4,-2 8,-3 12,-1z"/>
   <path class="fil1 str6" d="M4489 3712l73 30c4,2 5,7 1,9l-70 40c-4,3 -9,3 -14,1l-71 -29c-4,-2 -5,-7 -1,-9l71 -41c3,-2 7,-2 11,-1z"/>
   <path class="fil1 str6" d="M4374 3779l73 29c4,2 4,7 1,9l-70 40c-5,3 -9,3 -14,1l-72 -29c-4,-2 -4,-7 -1,-9l71 -41c4,-2 8,-2 12,0z"/>
   <path class="fil1 str6" d="M4258 3845l74 30c3,1 4,6 0,8l-70 41c-4,2 -9,2 -14,0l-71 -29c-4,-1 -5,-7 -1,-9l71 -40c4,-2 7,-3 11,-1z"/>
   <path class="fil1 str6" d="M4143 3911l73 30c4,1 4,7 1,9l-70 40c-5,2 -9,3 -14,1l-72 -30c-4,-1 -4,-6 0,-9l70 -40c4,-2 8,-3 12,-1z"/>
   <path class="fil1 str6" d="M4027 3977l74 30c3,2 4,7 0,9l-70 40c-4,2 -9,3 -13,1l-72 -29c-4,-2 -4,-7 -1,-9l71 -41c4,-2 8,-2 11,-1z"/>
   <path class="fil1 str6" d="M3912 4043l73 30c4,2 4,7 1,9l-70 40c-5,3 -9,3 -14,1l-72 -29c-4,-2 -4,-7 0,-9l71 -41c3,-2 7,-2 11,-1z"/>
   <path class="fil1 str6" d="M3797 4110l73 29c4,2 4,7 0,9l-70 40c-4,3 -9,3 -13,1l-72 -29c-4,-2 -4,-7 -1,-9l71 -41c4,-2 8,-2 12,0z"/>
   <path class="fil1 str6" d="M3681 4176l73 30c4,1 4,6 1,8l-70 41c-4,2 -9,2 -14,0l-72 -29c-3,-1 -4,-7 0,-9l71 -40c3,-2 7,-3 11,-1z"/>
   <path class="fil1 str6" d="M3566 4242l73 30c4,1 4,7 0,9l-70 40c-4,2 -9,3 -13,1l-72 -30c-4,-1 -4,-6 -1,-8l71 -41c4,-2 8,-3 12,-1z"/>
   <path class="fil1 str6" d="M3450 4308l73 30c4,2 5,7 1,9l-70 40c-4,3 -9,3 -14,1l-72 -29c-3,-2 -4,-7 0,-9l71 -41c3,-2 7,-2 11,-1z"/>
   <path class="fil1 str6" d="M3335 4374l73 30c4,2 4,7 1,9l-71 40c-4,3 -9,3 -13,1l-72 -29c-4,-2 -4,-7 -1,-9l71 -41c4,-2 8,-2 12,-1z"/>
   <path class="fil1 str6" d="M3219 4441l73 29c4,2 5,7 1,9l-70 40c-4,3 -9,3 -14,1l-71 -29c-4,-2 -5,-7 -1,-9l71 -41c3,-2 7,-2 11,0z"/>
  </g>
  <g id="_1042034896">
   <path class="fil1 str6" d="M4743 3702l73 30c4,2 5,7 1,9l-70 40c-4,3 -9,3 -14,1l-71 -29c-4,-2 -5,-7 -1,-9l71 -41c3,-2 7,-2 11,-1z"/>
   <path class="fil1 str6" d="M4628 3768l73 30c4,2 4,7 1,9l-70 40c-5,3 -9,3 -14,1l-72 -29c-4,-2 -4,-7 -1,-9l71 -41c4,-2 8,-2 12,-1z"/>
   <path class="fil1 str6" d="M4512 3835l74 29c3,2 4,7 0,9l-70 40c-4,3 -9,3 -14,1l-71 -29c-4,-2 -5,-7 -1,-9l71 -41c4,-2 7,-2 11,0z"/>
   <path class="fil1 str6" d="M4397 3901l73 30c4,1 4,7 1,9l-70 40c-5,2 -9,2 -14,1l-72 -30c-4,-1 -4,-7 0,-9l70 -40c4,-2 8,-3 12,-1z"/>
   <path class="fil1 str6" d="M4281 3967l74 30c3,1 4,7 0,9l-70 40c-4,2 -9,3 -13,1l-72 -30c-4,-1 -4,-6 -1,-8l71 -41c4,-2 8,-3 11,-1z"/>
   <path class="fil1 str6" d="M4166 4033l73 30c4,2 4,7 1,9l-70 40c-5,3 -9,3 -14,1l-72 -29c-4,-2 -4,-7 0,-9l71 -41c3,-2 7,-2 11,-1z"/>
   <path class="fil1 str6" d="M4051 4099l73 30c4,2 4,7 0,9l-70 40c-4,3 -9,3 -13,1l-72 -29c-4,-2 -4,-7 -1,-9l71 -41c4,-2 8,-2 12,-1z"/>
   <path class="fil1 str6" d="M3935 4166l73 29c4,2 4,7 1,9l-70 41c-4,2 -9,2 -14,0l-72 -29c-3,-1 -4,-7 0,-9l71 -40c3,-3 7,-3 11,-1z"/>
   <path class="fil1 str6" d="M3820 4232l73 30c4,1 4,7 0,9l-70 40c-4,2 -9,2 -13,1l-72 -30c-4,-1 -4,-7 -1,-9l71 -40c4,-2 8,-3 12,-1z"/>
   <path class="fil1 str6" d="M3704 4298l73 30c4,1 5,7 1,9l-70 40c-4,2 -9,3 -14,1l-72 -30c-3,-1 -4,-6 0,-8l71 -41c3,-2 7,-3 11,-1z"/>
   <path class="fil1 str6" d="M3589 4364l73 30c4,2 4,7 1,9l-71 40c-4,3 -9,3 -13,1l-72 -29c-4,-2 -4,-7 -1,-9l71 -41c4,-2 8,-2 12,-1z"/>
   <path class="fil1 str6" d="M3473 4430l73 30c4,2 5,7 1,9l-70 40c-4,3 -9,3 -14,1l-71 -29c-4,-2 -5,-7 -1,-9l71 -41c3,-2 7,-2 11,-1z"/>
   <path class="fil1 str6" d="M3358 4497l73 30c4,1 4,6 1,8l-70 41c-5,2 -10,2 -14,0l-72 -29c-4,-1 -4,-7 -1,-9l71 -40c4,-2 8,-3 12,-1z"/>
  </g>
  <g id="_1042038768">
   <path class="fil1 str6" d="M4882 3758l73 30c4,2 4,7 1,9l-70 40c-5,3 -9,3 -14,1l-72 -29c-4,-2 -4,-7 -1,-9l71 -41c4,-2 8,-2 12,-1z"/>
   <path class="fil1 str6" d="M4766 3824l74 30c3,2 4,7 0,9l-70 40c-4,3 -9,3 -14,1l-71 -29c-4,-2 -5,-7 -1,-9l71 -41c4,-2 7,-2 11,-1z"/>
   <path class="fil1 str6" d="M4651 3891l73 30c4,1 4,6 1,8l-70 41c-5,2 -9,2 -14,0l-72 -29c-4,-1 -4,-7 0,-9l70 -40c4,-2 8,-3 12,-1z"/>
   <path class="fil1 str6" d="M4535 3957l74 30c3,1 4,7 0,9l-70 40c-4,2 -9,3 -14,1l-71 -30c-4,-1 -4,-6 -1,-9l71 -40c4,-2 8,-3 11,-1z"/>
   <path class="fil1 str6" d="M4420 4023l73 30c4,2 4,7 1,9l-70 40c-5,2 -9,3 -14,1l-72 -29c-4,-2 -4,-7 0,-9l71 -41c3,-2 7,-2 11,-1z"/>
   <path class="fil1 str6" d="M4305 4089l73 30c4,2 4,7 0,9l-70 40c-4,3 -9,3 -13,1l-72 -29c-4,-2 -4,-7 -1,-9l71 -41c4,-2 8,-2 12,-1z"/>
   <path class="fil1 str6" d="M4189 4156l73 29c4,2 4,7 1,9l-70 40c-4,3 -9,3 -14,1l-72 -29c-3,-2 -4,-7 0,-9l71 -41c3,-2 7,-2 11,0z"/>
   <path class="fil1 str6" d="M4074 4222l73 30c4,1 4,6 0,8l-70 41c-4,2 -9,2 -13,0l-72 -29c-4,-1 -4,-7 -1,-9l71 -40c4,-2 8,-3 12,-1z"/>
   <path class="fil1 str6" d="M3958 4288l73 30c4,1 5,7 1,9l-70 40c-4,2 -9,3 -14,1l-72 -30c-3,-1 -4,-6 0,-8l71 -41c3,-2 7,-3 11,-1z"/>
   <path class="fil1 str6" d="M3843 4354l73 30c4,2 4,7 1,9l-71 40c-4,3 -9,3 -13,1l-72 -29c-4,-2 -4,-7 -1,-9l71 -41c4,-2 8,-2 12,-1z"/>
   <path class="fil1 str6" d="M3727 4420l73 30c4,2 5,7 1,9l-70 40c-4,3 -9,3 -14,1l-71 -29c-4,-2 -5,-7 -1,-9l71 -41c3,-2 7,-2 11,-1z"/>
   <path class="fil1 str6" d="M3612 4487l73 29c4,2 4,7 1,9l-70 40c-5,3 -10,3 -14,1l-72 -29c-4,-2 -4,-7 -1,-9l71 -41c4,-2 8,-2 12,0z"/>
   <path class="fil1 str6" d="M3496 4553l73 30c4,1 5,6 1,8l-70 41c-4,2 -9,2 -14,0l-71 -29c-4,-1 -5,-7 -1,-9l71 -40c3,-2 7,-3 11,-1z"/>
  </g>
  <g id="_1042041200">
   <path class="fil1 str6" d="M5020 3814l74 30c3,2 4,7 0,9l-70 40c-4,3 -9,3 -14,1l-71 -29c-4,-2 -5,-7 -1,-9l71 -41c4,-2 7,-2 11,-1z"/>
   <path class="fil1 str6" d="M4905 3881l73 29c4,2 4,7 1,9l-70 40c-5,3 -9,3 -14,1l-72 -29c-4,-2 -4,-7 0,-9l70 -41c4,-2 8,-2 12,0z"/>
   <path class="fil1 str6" d="M4789 3947l74 30c3,1 4,6 0,9l-70 40c-4,2 -9,2 -14,1l-71 -30c-4,-1 -5,-7 -1,-9l71 -40c4,-2 8,-3 11,-1z"/>
   <path class="fil1 str6" d="M4674 4013l73 30c4,1 4,7 1,9l-70 40c-5,2 -9,3 -14,1l-72 -30c-4,-1 -4,-6 0,-8l71 -41c3,-2 7,-3 11,-1z"/>
   <path class="fil1 str6" d="M3866 4476l73 30c4,2 4,7 1,9l-70 40c-5,3 -10,3 -14,1l-72 -29c-4,-2 -4,-7 -1,-9l71 -41c4,-2 8,-2 12,-1z"/>
   <path class="fil1 str6" d="M3750 4543l73 29c4,2 5,7 1,9l-70 41c-4,2 -9,2 -14,0l-71 -29c-4,-1 -5,-7 -1,-9l71 -40c3,-3 7,-3 11,-1z"/>
   <path class="fil1 str6" d="M3635 4609l73 30c4,1 4,7 1,9l-70 40c-5,2 -9,2 -14,1l-72 -30c-4,-1 -4,-7 -1,-9l71 -40c4,-2 8,-3 12,-1z"/>
   <path class="fil1 str6" d="M4559 4079l73 30c3,2 4,7 0,9l-647 371c-4,3 -9,3 -14,1l-71 -29c-4,-2 -5,-7 -1,-9l648 -372c4,-2 8,-2 12,-1z"/>
  </g>
  <g id="_1041974032">
   <path class="fil2 str7" d="M4430 3607l73 30c4,1 4,7 1,9l-70 40c-5,2 -10,2 -14,1l-72 -30c-4,-1 -4,-7 -1,-9l71 -40c4,-2 8,-3 12,-1z"/>
   <path class="fil2 str7" d="M4314 3673l73 30c4,1 5,7 1,9l-70 40c-4,2 -9,3 -14,1l-71 -30c-4,-1 -5,-6 -1,-8l71 -41c3,-2 7,-3 11,-1z"/>
   <path class="fil2 str7" d="M4199 3739l73 30c4,2 4,7 1,9l-70 40c-5,3 -9,3 -14,1l-72 -29c-4,-2 -4,-7 -1,-9l71 -41c4,-2 8,-2 12,-1z"/>
   <path class="fil2 str7" d="M3968 3872l73 29c4,2 4,7 1,9l-70 41c-5,2 -9,2 -14,0l-72 -29c-4,-1 -4,-7 -1,-9l71 -40c4,-3 8,-3 12,-1z"/>
   <path class="fil2 str7" d="M3852 3938l74 30c3,1 4,7 0,9l-70 40c-4,2 -9,2 -14,1l-71 -30c-4,-1 -5,-7 -1,-9l71 -40c3,-2 7,-3 11,-1z"/>
   <path class="fil2 str7" d="M3737 4004l73 30c4,1 4,7 1,9l-70 40c-5,2 -9,3 -14,1l-72 -30c-4,-1 -4,-6 0,-8l70 -41c4,-2 8,-3 12,-1z"/>
   <path class="fil2 str7" d="M3621 4070l74 30c3,2 4,7 0,9l-70 40c-4,3 -9,3 -14,1l-71 -29c-4,-2 -5,-7 -1,-9l71 -41c4,-2 8,-2 11,-1z"/>
   <path class="fil2 str7" d="M3390 4203l74 30c3,1 4,6 0,8l-70 41c-4,2 -9,2 -13,0l-72 -29c-4,-1 -4,-7 -1,-9l71 -40c4,-3 8,-3 11,-1z"/>
   <path class="fil2 str7" d="M3275 4269l73 30c4,1 4,7 1,9l-70 40c-4,2 -9,2 -14,1l-72 -30c-3,-1 -4,-7 0,-9l71 -40c3,-2 7,-3 11,-1z"/>
   <path class="fil2 str7" d="M3160 4335l73 30c4,1 4,7 0,9l-70 40c-4,2 -9,3 -13,1l-72 -29c-4,-2 -4,-7 -1,-9l71 -41c4,-2 8,-3 12,-1z"/>
   <path class="fil2 str7" d="M3044 4401l73 30c4,2 5,7 1,9l-70 40c-4,3 -9,3 -14,1l-72 -29c-3,-2 -4,-7 0,-9l71 -41c3,-2 7,-2 11,-1z"/>
  </g>
  <g id="_1041978064">
   <path class="fil2 str7" d="M4605 3678l73 30c4,1 4,7 1,9l-70 40c-5,2 -9,2 -14,1l-72 -30c-4,-1 -4,-7 -1,-9l71 -40c4,-2 8,-3 12,-1z"/>
   <path class="fil2 str7" d="M4489 3744l73 30c4,1 5,7 1,9l-70 40c-4,2 -9,3 -14,1l-71 -30c-4,-1 -5,-6 -1,-8l71 -41c3,-2 7,-3 11,-1z"/>
   <path class="fil2 str7" d="M4374 3810l73 30c4,2 4,7 1,9l-70 40c-5,3 -9,3 -14,1l-72 -29c-4,-2 -4,-7 -1,-9l71 -41c4,-2 8,-2 12,-1z"/>
   <path class="fil2 str7" d="M4258 3876l74 30c3,2 4,7 0,9l-70 40c-4,3 -9,3 -14,1l-71 -29c-4,-2 -5,-7 -1,-9l71 -41c4,-2 7,-2 11,-1z"/>
   <path class="fil2 str7" d="M4143 3943l73 29c4,2 4,7 1,9l-70 41c-5,2 -9,2 -14,0l-72 -29c-4,-1 -4,-7 0,-9l70 -40c4,-3 8,-3 12,-1z"/>
   <path class="fil2 str7" d="M4027 4009l74 30c3,1 4,7 0,9l-70 40c-4,2 -9,2 -13,1l-72 -30c-4,-1 -4,-7 -1,-9l71 -40c4,-2 8,-3 11,-1z"/>
   <path class="fil2 str7" d="M3912 4075l73 30c4,1 4,7 1,9l-70 40c-5,2 -9,3 -14,1l-72 -29c-4,-2 -4,-7 0,-9l71 -41c3,-2 7,-3 11,-1z"/>
   <path class="fil2 str7" d="M3797 4141l73 30c4,2 4,7 0,9l-70 40c-4,3 -9,3 -13,1l-72 -29c-4,-2 -4,-7 -1,-9l71 -41c4,-2 8,-2 12,-1z"/>
   <path class="fil2 str7" d="M3681 4207l73 30c4,2 4,7 1,9l-70 40c-4,3 -9,3 -14,1l-72 -29c-3,-2 -4,-7 0,-9l71 -41c3,-2 7,-2 11,-1z"/>
   <path class="fil2 str7" d="M3566 4274l73 30c4,1 4,6 0,8l-70 41c-4,2 -9,2 -13,0l-72 -29c-4,-1 -4,-7 -1,-9l71 -40c4,-2 8,-3 12,-1z"/>
   <path class="fil2 str7" d="M3450 4340l73 30c4,1 5,7 1,9l-70 40c-4,2 -9,3 -14,1l-72 -30c-3,-1 -4,-7 0,-9l71 -40c3,-2 7,-3 11,-1z"/>
   <path class="fil2 str7" d="M3335 4406l73 30c4,2 4,7 1,9l-71 40c-4,2 -9,3 -13,1l-72 -29c-4,-2 -4,-7 -1,-9l71 -41c4,-2 8,-3 12,-1z"/>
   <path class="fil2 str7" d="M3219 4472l73 30c4,2 5,7 1,9l-70 40c-4,3 -9,3 -14,1l-71 -29c-4,-2 -5,-7 -1,-9l71 -41c3,-2 7,-2 11,-1z"/>
  </g>
  <g id="_1041982032">
   <path class="fil2 str7" d="M4743 3734l73 30c4,1 5,7 1,9l-70 40c-4,2 -9,3 -14,1l-71 -30c-4,-1 -5,-6 -1,-9l71 -40c3,-2 7,-3 11,-1z"/>
   <path class="fil2 str7" d="M4628 3800l73 30c4,2 4,7 1,9l-70 40c-5,3 -9,3 -14,1l-72 -29c-4,-2 -4,-7 -1,-9l71 -41c4,-2 8,-2 12,-1z"/>
   <path class="fil2 str7" d="M4512 3866l74 30c3,2 4,7 0,9l-70 40c-4,3 -9,3 -14,1l-71 -29c-4,-2 -5,-7 -1,-9l71 -41c4,-2 7,-2 11,-1z"/>
   <path class="fil2 str7" d="M4397 3933l73 29c4,2 4,7 1,9l-70 40c-5,3 -9,3 -14,1l-72 -29c-4,-2 -4,-7 0,-9l70 -41c4,-2 8,-2 12,0z"/>
   <path class="fil2 str7" d="M4281 3999l74 30c3,1 4,6 0,8l-70 41c-4,2 -9,2 -13,0l-72 -29c-4,-1 -4,-7 -1,-9l71 -40c4,-2 8,-3 11,-1z"/>
   <path class="fil2 str7" d="M4166 4065l73 30c4,1 4,7 1,9l-70 40c-5,2 -9,3 -14,1l-72 -30c-4,-1 -4,-6 0,-8l71 -41c3,-2 7,-3 11,-1z"/>
   <path class="fil2 str7" d="M4051 4131l73 30c4,2 4,7 0,9l-70 40c-4,3 -9,3 -13,1l-72 -29c-4,-2 -4,-7 -1,-9l71 -41c4,-2 8,-2 12,-1z"/>
   <path class="fil2 str7" d="M3935 4197l73 30c4,2 4,7 1,9l-70 40c-4,3 -9,3 -14,1l-72 -29c-3,-2 -4,-7 0,-9l71 -41c3,-2 7,-2 11,-1z"/>
   <path class="fil2 str7" d="M3820 4264l73 29c4,2 4,7 0,9l-70 40c-4,3 -9,3 -13,1l-72 -29c-4,-2 -4,-7 -1,-9l71 -41c4,-2 8,-2 12,0z"/>
   <path class="fil2 str7" d="M3704 4330l73 30c4,1 5,6 1,9l-70 40c-4,2 -9,2 -14,0l-72 -29c-3,-1 -4,-7 0,-9l71 -40c3,-2 7,-3 11,-1z"/>
   <path class="fil2 str7" d="M3589 4396l73 30c4,1 4,7 1,9l-71 40c-4,2 -9,3 -13,1l-72 -30c-4,-1 -4,-6 -1,-8l71 -41c4,-2 8,-3 12,-1z"/>
   <path class="fil2 str7" d="M3473 4462l73 30c4,2 5,7 1,9l-70 40c-4,3 -9,3 -14,1l-71 -29c-4,-2 -5,-7 -1,-9l71 -41c3,-2 7,-2 11,-1z"/>
   <path class="fil2 str7" d="M3358 4528l73 30c4,2 4,7 1,9l-70 40c-5,3 -10,3 -14,1l-72 -29c-4,-2 -4,-7 -1,-9l71 -41c4,-2 8,-2 12,-1z"/>
  </g>
  <g id="_1041986288">
   <path class="fil2 str7" d="M4882 3790l73 30c4,1 4,7 1,9l-70 40c-5,2 -9,3 -14,1l-72 -30c-4,-1 -4,-6 -1,-8l71 -41c4,-2 8,-3 12,-1z"/>
   <path class="fil2 str7" d="M4766 3856l74 30c3,2 4,7 0,9l-70 40c-4,3 -9,3 -14,1l-71 -29c-4,-2 -5,-7 -1,-9l71 -41c4,-2 7,-2 11,-1z"/>
   <path class="fil2 str7" d="M4651 3922l73 30c4,2 4,7 1,9l-70 40c-5,3 -9,3 -14,1l-72 -29c-4,-2 -4,-7 0,-9l70 -41c4,-2 8,-2 12,-1z"/>
   <path class="fil2 str7" d="M4535 3989l74 29c3,2 4,7 0,9l-70 41c-4,2 -9,2 -14,0l-71 -29c-4,-1 -4,-7 -1,-9l71 -40c4,-3 8,-3 11,-1z"/>
   <path class="fil2 str7" d="M4420 4055l73 30c4,1 4,7 1,9l-70 40c-5,2 -9,2 -14,1l-72 -30c-4,-1 -4,-7 0,-9l71 -40c3,-2 7,-3 11,-1z"/>
   <path class="fil2 str7" d="M4305 4121l73 30c4,1 4,7 0,9l-70 40c-4,2 -9,3 -13,1l-72 -30c-4,-1 -4,-6 -1,-8l71 -41c4,-2 8,-3 12,-1z"/>
   <path class="fil2 str7" d="M4189 4187l73 30c4,2 4,7 1,9l-70 40c-4,3 -9,3 -14,1l-72 -29c-3,-2 -4,-7 0,-9l71 -41c3,-2 7,-2 11,-1z"/>
   <path class="fil2 str7" d="M4074 4253l73 30c4,2 4,7 0,9l-70 40c-4,3 -9,3 -13,1l-72 -29c-4,-2 -4,-7 -1,-9l71 -41c4,-2 8,-2 12,-1z"/>
   <path class="fil2 str7" d="M3958 4320l73 30c4,1 5,6 1,8l-70 41c-4,2 -9,2 -14,0l-72 -29c-3,-1 -4,-7 0,-9l71 -40c3,-2 7,-3 11,-1z"/>
   <path class="fil2 str7" d="M3843 4386l73 30c4,1 4,7 1,9l-71 40c-4,2 -9,3 -13,1l-72 -30c-4,-1 -4,-7 -1,-9l71 -40c4,-2 8,-3 12,-1z"/>
   <path class="fil2 str7" d="M3727 4452l73 30c4,1 5,7 1,9l-70 40c-4,2 -9,3 -14,1l-71 -29c-4,-2 -5,-7 -1,-9l71 -41c3,-2 7,-3 11,-1z"/>
   <path class="fil2 str7" d="M3612 4518l73 30c4,2 4,7 1,9l-70 40c-5,3 -10,3 -14,1l-72 -29c-4,-2 -4,-7 -1,-9l71 -41c4,-2 8,-2 12,-1z"/>
   <path class="fil2 str7" d="M3496 4584l73 30c4,2 5,7 1,9l-70 40c-4,3 -9,3 -14,1l-71 -29c-4,-2 -5,-7 -1,-9l71 -41c3,-2 7,-2 11,-1z"/>
  </g>
  <g id="_1041991472">
   <path class="fil2 str7" d="M5020 3846l74 30c3,2 4,7 0,9l-70 40c-4,2 -9,3 -14,1l-71 -29c-4,-2 -5,-7 -1,-9l71 -41c4,-2 7,-3 11,-1z"/>
   <path class="fil2 str7" d="M4905 3912l73 30c4,2 4,7 1,9l-70 40c-5,3 -9,3 -14,1l-72 -29c-4,-2 -4,-7 0,-9l70 -41c4,-2 8,-2 12,-1z"/>
   <path class="fil2 str7" d="M4789 3979l74 29c3,2 4,7 0,9l-70 40c-4,3 -9,3 -14,1l-71 -29c-4,-2 -5,-7 -1,-9l71 -41c4,-2 8,-2 11,0z"/>
   <path class="fil2 str7" d="M4674 4045l73 30c4,1 4,6 1,8l-70 41c-5,2 -9,2 -14,0l-72 -29c-4,-1 -4,-7 0,-9l71 -40c3,-2 7,-3 11,-1z"/>
   <path class="fil2 str7" d="M3866 4508l73 30c4,2 4,7 1,9l-70 40c-5,3 -10,3 -14,1l-72 -29c-4,-2 -4,-7 -1,-9l71 -41c4,-2 8,-2 12,-1z"/>
   <path class="fil2 str7" d="M3750 4574l73 30c4,2 5,7 1,9l-70 40c-4,3 -9,3 -14,1l-71 -29c-4,-2 -5,-7 -1,-9l71 -41c3,-2 7,-2 11,-1z"/>
   <path class="fil2 str7" d="M3635 4641l73 29c4,2 4,7 1,9l-70 40c-5,3 -9,3 -14,1l-72 -29c-4,-2 -4,-7 -1,-9l71 -41c4,-2 8,-2 12,0z"/>
   <path class="fil2 str7" d="M4559 4111l73 30c3,1 4,7 0,9l-647 371c-4,2 -9,3 -14,1l-71 -30c-4,-1 -5,-6 -1,-8l648 -372c4,-2 8,-3 12,-1z"/>
  </g>
  <path class="fil1 str3" d="M3436 4797l-306 175 737 299"/>
  <path class="fil1 str3" d="M4067 4567l0 32 462 187 0 614 442 179"/>
  <path class="fil1 str0" d="M4345 4439l507 206 0 535 923 374"/>
  <path class="fil1 str1" d="M4787 4186l297 120 359 -206 771 312"/>
  <path class="fil3 str0" d="M3556 2743l-1662 952c-21,12 -39,3 -39,-20l0 -1337c0,-28 1,-39 28,-54l1671 -957c22,-12 42,-4 42,20l0 1344c0,34 -8,34 -40,52z"/>
  <path class="fil4" d="M3674 2324l-601 344c-23,13 -47,8 -47,-18l0 -898c0,-22 6,-40 27,-53l608 -348c10,-5 20,-6 28,-1 9,4 14,12 14,23l0 899c0,21 -8,40 -29,52z"/>
  <path class="fil5" d="M2935 3053l-854 488c-9,6 -19,7 -28,2 -9,-4 -13,-12 -13,-23l0 -653c0,-27 8,-43 34,-58l845 -484c20,-11 42,-1 42,22l0 663c0,18 -9,33 -26,43z"/>
  <path class="fil1 str0" d="M3776 2395l-598 342c-21,12 -43,3 -43,-20l0 -898c0,-22 5,-40 27,-53l602 -344c10,-6 21,-6 29,-2 8,3 13,12 13,23l0 899c0,22 -9,41 -30,53z"/>
  <path class="fil6" d="M2719 2376l-541 309c-9,6 -20,7 -28,5 -9,-3 -14,-12 -14,-26l0 -546c0,-18 7,-33 25,-43l540 -309c21,-12 42,-2 42,21l0 546c0,21 -5,32 -24,43z"/>
  <path class="fil7" d="M2182 2843l294 -168c28,-17 49,-6 54,14 5,20 -4,48 -28,63l-305 174c-55,31 -78,-47 -15,-83z"/>
  <path class="fil8" d="M2430 3215l-271 155c-5,3 -10,3 -14,1 -5,-2 -7,-6 -7,-12l0 -275c0,-8 4,-16 12,-20l271 -155c5,-3 10,-3 15,-1 4,2 6,6 6,11l0 274c0,10 -2,16 -12,22z"/>
  <path class="fil9" d="M3212 1857l297 -170c31,-18 50,-5 54,17 4,19 -4,46 -27,59l-305 175c-32,18 -52,3 -54,-21 -3,-19 6,-44 35,-60z"/>
  <path class="fil9" d="M3443 1917l-226 130c-17,10 -20,34 -15,47 5,11 16,13 27,7l224 -128c20,-12 24,-30 22,-43 -3,-15 -18,-21 -32,-13z"/>
  <path class="fil10" d="M2279 2199c-36,10 -64,-11 -64,-47 0,-35 28,-72 64,-82 35,-9 64,11 64,47 0,35 -29,72 -64,82z"/>
  <path class="fil10" d="M2204 2270l0 52c0,35 74,16 122,-17 22,-15 41,-38 41,-51l0 -53c0,-35 -47,-36 -88,-18 -40,17 -75,53 -75,87z"/>
  <path class="fil10" d="M3189 2841c-13,2 -24,-7 -24,-21 0,-13 11,-26 24,-28 13,-3 24,7 24,20 0,14 -11,27 -24,29z"/>
  <path class="fil10" d="M3271 2794c-13,2 -23,-7 -23,-21 0,-14 10,-26 23,-29 13,-2 24,7 24,21 0,14 -11,26 -24,29z"/>
  <path class="fil10" d="M3354 2746c-13,3 -24,-7 -24,-20 0,-14 11,-27 24,-29 13,-2 24,7 24,21 0,13 -11,26 -24,28z"/>
  <path class="fil10" d="M3436 2699c-13,2 -24,-7 -24,-20 0,-14 11,-27 24,-29 13,-2 24,7 24,21 0,13 -11,26 -24,28z"/>
  <path class="fil10" d="M1940 2373c-13,2 -24,-7 -24,-20 0,-14 11,-27 24,-29 13,-2 24,7 24,21 0,13 -11,26 -24,28z"/>
  <path class="fil1 str8" d="M2669 3078c-42,17 -76,-5 -76,-49 0,-43 34,-92 76,-109 43,-17 77,5 77,49 0,43 -34,92 -77,109z"/>
  <path class="fil1 str1" d="M3451 2915c-28,11 -51,-3 -51,-32 0,-29 23,-61 51,-72 28,-11 51,3 51,32 0,29 -23,61 -51,72z"/>
  <path class="fil10" d="M1940 2500c-13,2 -24,-7 -24,-21 0,-13 11,-26 24,-28 13,-2 24,7 24,20 0,14 -11,27 -24,29z"/>
  <path class="fil10" d="M1940 2627c-13,2 -24,-7 -24,-21 0,-13 11,-26 24,-28 13,-2 24,7 24,20 0,14 -11,27 -24,29z"/>
  <path class="fil1 str3" d="M2443 5079l-72 41 99 41 73 -42 -100 -40z"/>
  <path class="fil1 str3" d="M2846 2420l-540 310c-23,12 -42,3 -42,-21l0 -549c0,-17 9,-32 24,-41l541 -309c20,-12 42,-1 42,21l0 547c0,20 -5,31 -25,42z"/>
  <path class="fil1 str6" d="M3059 3114l-853 488c-21,12 -42,11 -42,-15l0 -673c0,-26 7,-28 31,-42l848 -486c10,-5 20,-6 29,-2 8,5 13,13 13,23l0 674c0,19 -9,23 -26,33z"/>
  <path class="fil1 str0" d="M3357 3871l-384 220c-36,20 -34,55 1,70 26,12 74,14 129,-17l405 -232c74,-43 -35,-108 -151,-41z"/>
  <path class="fil1 str3" d="M4090 4519l0 35 -106 60 0 -34 106 -61z"/>
  <g id="_1041248192">
   <path class="fil1 str3" d="M5737 4212l0 80"/>
   <path class="fil1 str3" d="M5836 4160l114 47c7,2 9,12 2,16l-75 43c-7,4 -14,4 -21,1l-113 -46c-8,-3 -8,-13 0,-17l75 -43c7,-5 10,-4 18,-1z"/>
   <path class="fil1 str3" d="M5798 4243l100 -58"/>
   <path class="fil1 str3" d="M5798 4243l0 77"/>
   <path class="fil1 str3" d="M5867 4271l0 69"/>
   <path class="fil1 str3" d="M5956 4214l0 80"/>
   <path class="fil1 str3" d="M5836 4208l114 46c7,3 9,12 2,16l-75 43c-7,4 -14,4 -21,1l-113 -45c-8,-3 -8,-13 0,-18l75 -43c7,-4 10,-3 18,0z"/>
  </g>
 </g>
</svg>
