<?xml version="1.0" encoding="UTF-8"?>
<!DOCTYPE svg PUBLIC "-//W3C//DTD SVG 1.0//EN" "http://www.w3.org/TR/2001/REC-SVG-20010904/DTD/svg10.dtd">
<!-- Creator: CorelDRAW X8 -->
<svg xmlns="http://www.w3.org/2000/svg" xml:space="preserve" width="529.166mm" height="529.166mm" version="1.0" style="shape-rendering:geometricPrecision; text-rendering:geometricPrecision; image-rendering:optimizeQuality; fill-rule:evenodd; clip-rule:evenodd"
viewBox="0 0 6346 6346"
 xmlns:xlink="http://www.w3.org/1999/xlink">
 <defs>
  <style type="text/css">
   <![CDATA[
    .str6 {stroke:fuchsia;stroke-width:9.91253;stroke-opacity:0.400000}
    .str3 {stroke:lime;stroke-width:9.91253}
    .str2 {stroke:aqua;stroke-width:9.91253}
    .str4 {stroke:aqua;stroke-width:9.91253}
    .str5 {stroke:fuchsia;stroke-width:9.91253}
    .str7 {stroke:fuchsia;stroke-width:9.91253}
    .str0 {stroke:white;stroke-width:9.91253}
    .str1 {stroke:white;stroke-width:9.91253}
    .fil1 {fill:none}
    .fil12 {fill:none;fill-rule:nonzero}
    .fil2 {fill:none}
    .fil13 {fill:aqua}
    .fil10 {fill:white}
    .fil9 {fill:#4C9CFF;fill-rule:nonzero}
    .fil7 {fill:white;fill-rule:nonzero}
    .fil11 {fill:#9900CC;fill-opacity:0.301961}
    .fil5 {fill:fuchsia;fill-opacity:0.501961}
    .fil4 {fill:white;fill-opacity:0.501961}
    .fil6 {fill:#2687FF;fill-opacity:0.600000}
    .fil14 {fill:white;fill-opacity:0.600000}
    .fil8 {fill:white}
    .fil3 {fill:url(#id0)}
    .fil0 {fill:url(#id1)}
   ]]>
  </style>
  <linearGradient id="id0" gradientUnits="userSpaceOnUse" x1="2039.53" y1="1941.99" x2="3411.19" y2="3063.66">
   <stop offset="0" style="stop-opacity:1; stop-color:#3D91F2"/>
   <stop offset="1" style="stop-opacity:1; stop-color:#A6C7FF"/>
  </linearGradient>
  <radialGradient id="id1" gradientUnits="userSpaceOnUse" gradientTransform="matrix(1.05263 -0 -0 0.349753 -157 2393)" cx="2982.63" cy="3680.69" r="3628.87" fx="2982.63" fy="3680.69">
   <stop offset="0" style="stop-opacity:1; stop-color:#66084F"/>
   <stop offset="1" style="stop-opacity:1; stop-color:#263942"/>
  </radialGradient>
 </defs>
 <g id="Camada_x0020_1">
  <metadata id="CorelCorpID_0Corel-Layer"/>
  <path class="fil0" d="M0 0l6346 0 0 6346 -6346 0 0 -6346z"/>
  <path class="fil1 str0" d="M1791 2329l-635 -257 -397 227 -627 -254"/>
  <path class="fil1 str0" d="M1791 2619l-628 -254 -205 117m-275 71l-319 -129"/>
  <path class="fil1 str0" d="M4595 3524l277 -160 415 168"/>
  <path class="fil1 str0" d="M4771 3084l203 -117 1262 511"/>
  <path class="fil1 str0" d="M1932 5425l-301 -122c-9,-3 -10,-15 -1,-20l144 -83"/>
  <path class="fil1 str1" d="M1630 5141l-705 405"/>
  <path class="fil1 str0" d="M2986 4275l-160 -64 -549 315m-752 431l-457 262"/>
  <path class="fil1 str0" d="M2897 3263l-757 434 0 66 752 305 757 -434 0 -66 -752 -305z"/>
  <path class="fil1 str0" d="M5322 3818l0 61 -1719 986 -902 -366 0 -61 1719 -985 902 365z"/>
  <path class="fil1 str1" d="M1834 3790l1781 -1021c12,-7 14,-14 14,-27l0 -1507c0,-24 -17,-34 -38,-22l-1776 1019c-18,10 -24,24 -24,44l0 1491c0,26 22,35 43,23z"/>
  <path class="fil1 str2" d="M1910 4393l-412 236c-4,2 -6,6 -6,10 0,5 3,9 7,10l617 250c9,4 17,3 26,-2l415 -238c4,-3 6,-7 6,-11 -1,-4 -3,-8 -7,-10l-613 -248c-13,-5 -21,-4 -33,3z"/>
  <path class="fil1 str2" d="M1492 4639l0 263c0,6 0,10 6,12l613 249c12,5 19,4 30,-3l413 -236c7,-5 9,-8 9,-16l0 -260"/>
  <path class="fil1 str2" d="M1826 5130l-93 53 83 34 92 -54 -82 -33z"/>
  <path class="fil1 str2" d="M1973 5190l-93 53 83 33 93 -53 -83 -33z"/>
  <path class="fil1 str2" d="M2167 4635l-93 53 83 33 93 -53 -83 -33z"/>
  <path class="fil1 str2" d="M2302 4689l-93 53 83 34 93 -53 -83 -34z"/>
  <path class="fil1 str2" d="M2447 4748l-93 53 82 33 93 -53 -82 -33z"/>
  <path class="fil1 str2" d="M2594 4807l-93 54 83 33 92 -53 -82 -34z"/>
  <path class="fil1 str2" d="M2129 4904l0 264"/>
  <path class="fil1 str2" d="M2385 5209l364 135 3 164 -513 294"/>
  <path class="fil1 str2" d="M2322 5148l-72 42 99 40 73 -41 -100 -41z"/>
  <path class="fil1 str2" d="M1525 4927l0 42 585 237c20,9 25,5 43,-6l371 -213 0 -46"/>
  <path class="fil1 str2" d="M2528 4938l-594 -240c-4,-2 -9,-2 -13,0l-396 228"/>
  <path class="fil1 str0" d="M2070 5346l-284 163 248 101 285 -164 -249 -100z"/>
  <path class="fil1 str2" d="M1546 5017l-93 53 83 33 93 -53 -83 -33z"/>
  <path class="fil1 str2" d="M1681 5071l-92 54 82 33 93 -53 -83 -34z"/>
  <path class="fil1 str2" d="M2482 4762l121 -70c9,-5 15,-5 24,-1l266 107c10,4 19,6 30,6l210 0"/>
  <path class="fil1 str2" d="M2558 5013l-73 42 100 40 72 -42 -99 -40z"/>
  <path class="fil1 str2" d="M2160 5776c-56,0 -102,32 -102,72 0,39 46,71 102,71 56,0 101,-32 101,-71 0,-40 -45,-72 -101,-72z"/>
  <path class="fil1 str3" d="M2052 5168l-181 104c-3,1 -4,4 -4,7 0,4 2,6 5,7l154 63c5,2 11,1 16,-2l181 -103c2,-2 4,-5 4,-8 -1,-3 -2,-6 -5,-7l-155 -62c-5,-2 -10,-2 -15,1z"/>
  <path class="fil1 str3" d="M2225 5451l-158 -65c-5,-1 -10,-1 -14,1l-185 106"/>
  <path class="fil1 str3" d="M1867 5279l0 207c0,10 2,12 11,16l151 61c4,1 7,1 10,-1l179 -102c6,-4 9,-4 9,-11l0 -213"/>
  <path class="fil1 str3" d="M2034 5352l0 212"/>
  <path class="fil1 str2" d="M2560 4919l-636 -257c-6,-3 -12,-2 -17,1l-415 238"/>
  <path class="fil1 str2" d="M1399 2945l-506 -205 -639 366"/>
  <path class="fil1 str2" d="M869 2446l-67 38c-2,2 -2,1 0,2l579 234 66 -38c3,-1 3,-1 0,-2l-578 -234z"/>
  <path class="fil1 str2" d="M800 2485l0 46 578 235c3,1 3,1 3,-1l0 -45"/>
  <path class="fil1 str2" d="M714 2535l-66 38c-3,2 -4,1 -1,2l578 234 67 -38c2,-1 2,-1 0,-2l-578 -234z"/>
  <path class="fil1 str2" d="M645 2574l0 46 579 235c2,1 1,1 1,-1l0 -45"/>
  <path class="fil1 str2" d="M558 2624l-67 38c-2,2 -2,1 0,2l579 234 67 -38c2,-1 2,-1 0,-2l-579 -234z"/>
  <path class="fil1 str2" d="M490 2663l0 47 579 234c1,1 1,1 1,-1l0 -45"/>
  <path class="fil1 str2" d="M403 2713l-66 38c-3,2 -3,1 -1,2l579 234 67 -38c2,-1 2,-1 0,-2l-579 -234z"/>
  <path class="fil1 str2" d="M334 2752l0 47 579 234c2,1 2,1 2,-1l0 -45"/>
  <path class="fil1 str2" d="M248 2802l-68 39c-1,1 -1,0 0,1l580 235 66 -39c3,-1 3,-1 0,-2l-578 -234z"/>
  <path class="fil1 str2" d="M760 3311l0 -234"/>
  <path class="fil1 str2" d="M179 2841l0 229c0,6 4,8 10,10l555 225c10,4 18,5 28,-1l670 -384c5,-3 7,-4 7,-10l0 -229"/>
  <path class="fil1 str2" d="M915 3034l-87 49 0 -46"/>
  <path class="fil1 str2" d="M1070 2945l-86 49 0 -46"/>
  <path class="fil1 str2" d="M1225 2856l-86 49 0 -46"/>
  <path class="fil1 str2" d="M1381 2766l-87 50 0 -46"/>
  <path class="fil1 str2" d="M254 3103l0 74 486 197c17,7 28,6 44,-3l53 -30m224 -129l339 -195 0 -74"/>
  <path class="fil1 str2" d="M800 2531l-39 23m-116 66l-40 23m-115 67l-40 22m-116 67l-39 22"/>
  <path class="fil1 str3" d="M1022 3203l-181 104c-3,2 -5,5 -4,8 0,3 2,6 4,7l155 62c5,2 11,2 15,-1l181 -104c3,-1 5,-4 4,-7 0,-3 -2,-6 -5,-7l-154 -63c-5,-2 -10,-2 -15,1z"/>
  <path class="fil1 str3" d="M1195 3486l-159 -64c-4,-2 -9,-2 -14,1l-184 106"/>
  <path class="fil1 str3" d="M837 3315l0 207c0,10 1,11 11,15l151 61c3,2 7,1 10,0l179 -103c3,-2 5,-3 7,-4 1,-2 1,-3 1,-7l0 -212"/>
  <path class="fil1 str3" d="M1004 3387l0 212"/>
  <path class="fil1 str2" d="M5436 1780l-429 246c-6,4 -10,10 -9,18 0,8 5,14 12,17l468 190c11,4 21,3 30,-2l428 -246c7,-4 10,-10 10,-18 -1,-8 -5,-14 -12,-17l-469 -189c-10,-4 -20,-4 -29,1z"/>
  <path class="fil1 str2" d="M5943 2141l-481 -195c-7,-3 -15,-3 -21,1l-441 253"/>
  <path class="fil1 str2" d="M4998 2044l0 153c0,11 4,11 12,15l462 187c11,4 28,4 39,-3l423 -242c10,-6 12,-7 12,-19l0 -150"/>
  <path class="fil1 str2" d="M5494 2257l0 142"/>
  <path class="fil1 str2" d="M5319 1976l-161 92c-2,2 -4,4 -4,7 1,3 2,5 5,6l137 55c4,2 9,1 13,-1l161 -92c2,-1 4,-4 3,-7 0,-2 -1,-5 -4,-6l-137 -55c-4,-2 -9,-2 -13,1z"/>
  <path class="fil1 str2" d="M4989 2245l-92 53 82 34 93 -53 -83 -34z"/>
  <path class="fil1 str0" d="M6056 2235l-284 163 248 101 284 -164 -248 -100z"/>
  <path class="fil1 str3" d="M6038 2057l-181 104c-3,1 -5,4 -4,7 0,4 2,6 5,7l154 63c5,2 11,1 15,-2l181 -103c3,-2 5,-5 4,-8 0,-3 -2,-6 -5,-7l-154 -62c-5,-2 -10,-2 -15,1z"/>
  <path class="fil1 str3" d="M6211 2340l-158 -65c-5,-1 -10,-1 -14,1l-185 106"/>
  <path class="fil1 str3" d="M5853 2168l0 207c0,10 1,12 11,16l151 61c3,1 7,1 10,-1l179 -102c6,-4 8,-4 8,-11l0 -213"/>
  <path class="fil1 str3" d="M6020 2241l0 212"/>
  <path class="fil1 str2" d="M5113 2295l-93 53 83 34 93 -53 -83 -34z"/>
  <path class="fil1 str2" d="M5237 2345l-93 54 83 33 92 -53 -82 -34z"/>
  <path class="fil1 str2" d="M5361 2395l-93 54 82 33 93 -53 -82 -34z"/>
  <path class="fil1 str4" d="M2621 5074l426 161 0 419 -229 146"/>
  <path class="fil1 str2" d="M4082 1971l-412 236c-4,2 -6,6 -5,11 0,4 3,8 7,9l617 250c9,4 17,3 25,-2l415 -238c4,-2 6,-6 6,-11 0,-4 -3,-8 -7,-10l-612 -248c-13,-5 -22,-4 -34,3z"/>
  <path class="fil1 str2" d="M3665 2218l0 738c0,6 -1,10 6,12l612 249c13,5 20,4 31,-3l413 -236c7,-5 8,-8 8,-16l0 -736"/>
  <path class="fil1 str2" d="M3999 3184l-93 53 82 34 93 -54 -82 -33z"/>
  <path class="fil1 str2" d="M4340 2689l-93 53 82 33 93 -53 -82 -33z"/>
  <path class="fil1 str2" d="M4475 2743l-93 54 82 33 93 -53 -82 -34z"/>
  <path class="fil1 str2" d="M4619 2802l-93 53 83 34 93 -54 -83 -33z"/>
  <path class="fil1 str2" d="M4766 2861l-92 54 82 33 93 -53 -83 -34z"/>
  <path class="fil1 str2" d="M4301 2482l0 740"/>
  <path class="fil1 str2" d="M4547 3172l-72 42 99 40 73 -41 -100 -41z"/>
  <path class="fil1 str2" d="M3697 2981l0 43 585 236c21,9 25,5 44,-6l371 -213 0 -46"/>
  <path class="fil1 str2" d="M4701 2992l-594 -240c-5,-2 -9,-2 -13,1l-397 227"/>
  <path class="fil1 str2" d="M3719 3071l-93 53 83 33 92 -53 -82 -33z"/>
  <path class="fil1 str2" d="M3854 3126l-93 53 83 33 93 -53 -83 -33z"/>
  <path class="fil1 str2" d="M4731 3067l-73 42 99 40 73 -42 -99 -40z"/>
  <path class="fil1 str2" d="M2207 3747l-134 76c-4,2 -6,6 -5,11 0,4 3,7 7,9l257 104c7,3 13,2 19,-1l133 -76c8,-5 7,-17 -1,-20l-259 -105c-6,-2 -12,-2 -17,2z"/>
  <path class="fil1 str2" d="M2489 3946l-264 -107c-4,-2 -9,-1 -13,1l-143 82"/>
  <path class="fil1 str2" d="M2068 3832l0 91c0,5 1,10 6,12l256 104c8,3 16,2 23,-2l130 -75c4,-2 6,-5 6,-9l0 -97"/>
  <path class="fil1 str2" d="M2342 3951l0 93"/>
  <path class="fil1 str2" d="M3853 2844l0 143 -138 -56 0 -143 138 56z"/>
  <path class="fil1 str2" d="M5402 3467l-118 67c-31,18 -39,54 -33,79 7,30 34,50 72,65l396 161c58,23 105,23 158,-8l102 -58c50,-29 27,-108 1,-158 -73,-140 -357,-276 -578,-148z"/>
  <path class="fil1 str1" d="M2607 3347l0 237c15,45 80,61 131,40 26,-11 50,-33 56,-64l0 -273c0,-29 7,-48 31,-65"/>
  <path class="fil1 str4" d="M5432 3451c66,-19 131,-3 175,22l-39 26c-69,-37 -157,-29 -219,-2"/>
  <path class="fil1 str2" d="M2704 3960l0 32 -1241 711 -529 0 -869 498"/>
  <path class="fil1 str2" d="M2191 3935l0 48 -725 415 -672 0 -561 322"/>
  <path class="fil1 str0" d="M3455 3714l0 31 130 53 482 -276 -491 -198c-9,-4 -10,-16 -1,-21l144 -83"/>
  <path class="fil1 str2" d="M2666 3910l0 35 178 72 0 -35 -178 -72z"/>
  <path class="fil1 str2" d="M5343 3588l0 67 146 59 0 -67 -146 -59z"/>
  <path class="fil1 str2" d="M3529 3636l0 35 -105 60 0 -34 105 -61z"/>
  <g id="_1080672336">
   <path class="fil1 str2" d="M3759 3391l0 80"/>
   <path class="fil1 str2" d="M3858 3339l114 46c7,3 9,13 2,16l-75 43c-7,4 -14,4 -21,2l-113 -46c-8,-3 -8,-13 0,-18l75 -43c7,-4 11,-3 18,0z"/>
   <path class="fil1 str2" d="M3820 3422l100 -58"/>
   <path class="fil1 str2" d="M3820 3422l0 76"/>
   <path class="fil1 str2" d="M3889 3450l0 69"/>
   <path class="fil1 str2" d="M3978 3392l0 81"/>
   <path class="fil1 str2" d="M3858 3386l114 47c7,2 9,12 2,16l-75 43c-7,4 -14,4 -21,1l-113 -46c-8,-3 -8,-13 0,-17l75 -43c7,-5 11,-4 18,-1z"/>
  </g>
  <path class="fil1 str0" d="M5183 2414l-117 68 750 304"/>
  <g id="_1080673648">
   <path class="fil1 str5" d="M4423 3559l73 30c4,1 4,7 1,9l-70 40c-4,2 -9,3 -14,1l-72 -30c-3,-1 -4,-6 0,-8l71 -41c3,-2 7,-3 11,-1z"/>
   <path class="fil1 str5" d="M4308 3625l73 30c4,2 4,7 0,9l-70 40c-4,3 -9,3 -13,1l-72 -29c-4,-2 -4,-7 -1,-9l71 -41c4,-2 8,-2 12,-1z"/>
   <path class="fil1 str5" d="M4192 3691l73 30c4,2 5,7 1,9l-70 40c-4,3 -9,3 -14,1l-72 -29c-3,-2 -4,-7 0,-9l71 -41c3,-2 7,-2 11,-1z"/>
   <path class="fil1 str5" d="M3961 3824l73 30c4,1 5,7 1,9l-70 40c-4,2 -9,2 -14,1l-71 -30c-4,-1 -5,-7 -1,-9l71 -40c3,-2 7,-3 11,-1z"/>
   <path class="fil1 str5" d="M3846 3890l73 30c4,1 4,7 1,9l-70 40c-5,2 -10,3 -14,1l-72 -30c-4,-1 -4,-6 -1,-8l71 -41c4,-2 8,-3 12,-1z"/>
   <path class="fil1 str5" d="M3730 3956l73 30c4,2 5,7 1,9l-70 40c-4,3 -9,3 -14,1l-71 -29c-4,-2 -5,-7 -1,-9l71 -41c3,-2 7,-2 11,-1z"/>
   <path class="fil1 str5" d="M3615 4022l73 30c4,2 4,7 1,9l-70 40c-5,3 -9,3 -14,1l-72 -29c-4,-2 -4,-7 -1,-9l71 -41c4,-2 8,-2 12,-1z"/>
   <path class="fil1 str5" d="M3384 4155l73 30c4,1 4,7 1,9l-70 40c-5,2 -9,2 -14,1l-72 -30c-4,-1 -4,-7 -1,-9l71 -40c4,-2 8,-3 12,-1z"/>
   <path class="fil1 str5" d="M3268 4221l73 30c4,1 5,7 1,9l-70 40c-4,2 -9,3 -14,1l-71 -29c-4,-2 -5,-7 -1,-9l71 -41c3,-2 7,-3 11,-1z"/>
   <path class="fil1 str5" d="M3153 4287l73 30c4,2 4,7 1,9l-70 40c-5,3 -9,3 -14,1l-72 -29c-4,-2 -4,-7 -1,-9l71 -41c4,-2 8,-2 12,-1z"/>
   <path class="fil1 str5" d="M3037 4353l74 30c3,2 4,7 0,9l-70 40c-4,3 -9,3 -14,1l-71 -29c-4,-2 -5,-7 -1,-9l71 -41c4,-2 7,-2 11,-1z"/>
  </g>
  <g id="_1080678064">
   <path class="fil1 str5" d="M4598 3630l73 30c4,1 5,7 1,9l-70 40c-4,2 -9,3 -14,1l-72 -30c-3,-1 -4,-6 0,-8l71 -41c3,-2 7,-3 11,-1z"/>
   <path class="fil1 str5" d="M4483 3696l73 30c4,2 4,7 1,9l-71 40c-4,3 -9,3 -13,1l-72 -29c-4,-2 -4,-7 -1,-9l71 -41c4,-2 8,-2 12,-1z"/>
   <path class="fil1 str5" d="M4367 3762l73 30c4,2 5,7 1,9l-70 40c-4,3 -9,3 -14,1l-71 -29c-4,-2 -5,-7 -1,-9l71 -41c3,-2 7,-2 11,-1z"/>
   <path class="fil1 str5" d="M4252 3829l73 29c4,2 4,7 1,9l-70 41c-5,2 -10,2 -14,0l-72 -29c-4,-1 -4,-7 -1,-9l71 -40c4,-3 8,-3 12,-1z"/>
   <path class="fil1 str5" d="M4136 3895l73 30c4,1 5,7 1,9l-70 40c-4,2 -9,2 -14,1l-71 -30c-4,-1 -5,-7 -1,-9l71 -40c3,-2 7,-3 11,-1z"/>
   <path class="fil1 str5" d="M4021 3961l73 30c4,1 4,7 1,9l-70 40c-5,2 -9,3 -14,1l-72 -29c-4,-2 -4,-7 -1,-9l71 -41c4,-2 8,-3 12,-1z"/>
   <path class="fil1 str5" d="M3905 4027l73 30c4,2 5,7 1,9l-70 40c-4,3 -9,3 -14,1l-71 -29c-4,-2 -5,-7 -1,-9l71 -41c3,-2 7,-2 11,-1z"/>
   <path class="fil1 str5" d="M3790 4093l73 30c4,2 4,7 1,9l-70 40c-5,3 -9,3 -14,1l-72 -29c-4,-2 -4,-7 -1,-9l71 -41c4,-2 8,-2 12,-1z"/>
   <path class="fil1 str5" d="M3674 4160l74 30c3,1 4,6 0,8l-70 41c-4,2 -9,2 -14,0l-71 -29c-4,-1 -5,-7 -1,-9l71 -40c4,-2 7,-3 11,-1z"/>
   <path class="fil1 str5" d="M3559 4226l73 30c4,1 4,7 1,9l-70 40c-5,2 -9,3 -14,1l-72 -30c-4,-1 -4,-7 0,-9l70 -40c4,-2 8,-3 12,-1z"/>
   <path class="fil1 str5" d="M3443 4292l74 30c3,1 4,7 0,9l-70 40c-4,2 -9,3 -14,1l-71 -29c-4,-2 -5,-7 -1,-9l71 -41c4,-2 8,-3 11,-1z"/>
   <path class="fil1 str5" d="M3328 4358l73 30c4,2 4,7 1,9l-70 40c-5,3 -9,3 -14,1l-72 -29c-4,-2 -4,-7 0,-9l71 -41c3,-2 7,-2 11,-1z"/>
   <path class="fil1 str5" d="M3212 4424l74 30c3,2 4,7 0,9l-70 40c-4,3 -9,3 -13,1l-72 -29c-4,-2 -4,-7 -1,-9l71 -41c4,-2 8,-2 11,-1z"/>
  </g>
  <g id="_1080679408">
   <path class="fil1 str5" d="M4737 3686l73 30c4,2 4,7 1,9l-71 40c-4,2 -9,3 -13,1l-72 -29c-4,-2 -4,-7 -1,-9l71 -41c4,-2 8,-2 12,-1z"/>
   <path class="fil1 str5" d="M4621 3752l73 30c4,2 5,7 1,9l-70 40c-4,3 -9,3 -14,1l-71 -29c-4,-2 -5,-7 -1,-9l71 -41c3,-2 7,-2 11,-1z"/>
   <path class="fil1 str5" d="M4506 3819l73 29c4,2 4,7 1,9l-70 40c-5,3 -10,3 -14,1l-72 -29c-4,-2 -4,-7 -1,-9l71 -41c4,-2 8,-2 12,0z"/>
   <path class="fil1 str5" d="M4390 3885l73 30c4,1 5,6 1,8l-70 41c-4,2 -9,2 -14,0l-71 -29c-4,-1 -5,-7 -1,-9l71 -40c3,-2 7,-3 11,-1z"/>
   <path class="fil1 str5" d="M4275 3951l73 30c4,1 4,7 1,9l-70 40c-5,2 -9,3 -14,1l-72 -30c-4,-1 -4,-6 -1,-8l71 -41c4,-2 8,-3 12,-1z"/>
   <path class="fil1 str5" d="M4159 4017l73 30c4,2 5,7 1,9l-70 40c-4,3 -9,3 -14,1l-71 -29c-4,-2 -5,-7 -1,-9l71 -41c3,-2 7,-2 11,-1z"/>
   <path class="fil1 str5" d="M4044 4083l73 30c4,2 4,7 1,9l-70 40c-5,3 -9,3 -14,1l-72 -29c-4,-2 -4,-7 -1,-9l71 -41c4,-2 8,-2 12,-1z"/>
   <path class="fil1 str5" d="M3928 4150l74 29c3,2 4,7 0,9l-70 40c-4,3 -9,3 -14,1l-71 -29c-4,-2 -5,-7 -1,-9l71 -41c3,-2 7,-2 11,0z"/>
   <path class="fil1 str5" d="M3813 4216l73 30c4,1 4,6 1,8l-70 41c-5,2 -9,2 -14,0l-72 -29c-4,-1 -4,-7 -1,-9l71 -40c4,-2 8,-3 12,-1z"/>
   <path class="fil1 str5" d="M3697 4282l74 30c3,1 4,7 0,9l-70 40c-4,2 -9,3 -14,1l-71 -30c-4,-1 -5,-6 -1,-8l71 -41c4,-2 7,-3 11,-1z"/>
   <path class="fil1 str5" d="M3582 4348l73 30c4,2 4,7 1,9l-70 40c-5,3 -9,3 -14,1l-72 -29c-4,-2 -4,-7 0,-9l71 -41c3,-2 7,-2 11,-1z"/>
   <path class="fil1 str5" d="M3466 4414l74 30c3,2 4,7 0,9l-70 40c-4,3 -9,3 -13,1l-72 -29c-4,-2 -4,-7 -1,-9l71 -41c4,-2 8,-2 11,-1z"/>
   <path class="fil1 str5" d="M3351 4481l73 29c4,2 4,7 1,9l-70 40c-4,3 -9,3 -14,1l-72 -29c-3,-2 -4,-7 0,-9l71 -41c3,-2 7,-2 11,0z"/>
  </g>
  <g id="_1080683536">
   <path class="fil1 str5" d="M4875 3742l73 30c4,2 5,7 1,9l-70 40c-4,3 -9,3 -14,1l-71 -29c-4,-2 -5,-7 -1,-9l71 -41c3,-2 7,-2 11,-1z"/>
   <path class="fil1 str5" d="M4760 3808l73 30c4,2 4,7 1,9l-70 40c-5,3 -10,3 -14,1l-72 -29c-4,-2 -4,-7 -1,-9l71 -41c4,-2 8,-2 12,-1z"/>
   <path class="fil1 str5" d="M4644 3875l73 29c4,2 5,7 1,9l-70 41c-4,2 -9,2 -14,0l-71 -29c-4,-1 -5,-7 -1,-9l71 -40c3,-3 7,-3 11,-1z"/>
   <path class="fil1 str5" d="M4529 3941l73 30c4,1 4,7 1,9l-70 40c-5,2 -9,2 -14,1l-72 -30c-4,-1 -4,-7 -1,-9l71 -40c4,-2 8,-3 12,-1z"/>
   <path class="fil1 str5" d="M4413 4007l73 30c4,1 5,7 1,9l-70 40c-4,2 -9,3 -14,1l-71 -30c-4,-1 -5,-6 -1,-8l71 -41c3,-2 7,-3 11,-1z"/>
   <path class="fil1 str5" d="M4298 4073l73 30c4,2 4,7 1,9l-70 40c-5,3 -9,3 -14,1l-72 -29c-4,-2 -4,-7 -1,-9l71 -41c4,-2 8,-2 12,-1z"/>
   <path class="fil1 str5" d="M4182 4139l74 30c3,2 4,7 0,9l-70 40c-4,3 -9,3 -14,1l-71 -29c-4,-2 -5,-7 -1,-9l71 -41c3,-2 7,-2 11,-1z"/>
   <path class="fil1 str5" d="M4067 4206l73 30c4,1 4,6 1,8l-70 41c-5,2 -9,2 -14,0l-72 -29c-4,-1 -4,-7 -1,-9l71 -40c4,-3 8,-3 12,-1z"/>
   <path class="fil1 str5" d="M3951 4272l74 30c3,1 4,7 0,9l-70 40c-4,2 -9,2 -14,1l-71 -30c-4,-1 -5,-7 -1,-9l71 -40c4,-2 7,-3 11,-1z"/>
   <path class="fil1 str5" d="M3836 4338l73 30c4,1 4,7 1,9l-70 40c-5,2 -9,3 -14,1l-72 -29c-4,-2 -4,-7 0,-9l71 -41c3,-2 7,-3 11,-1z"/>
   <path class="fil1 str5" d="M3720 4404l74 30c3,2 4,7 0,9l-70 40c-4,3 -9,3 -13,1l-72 -29c-4,-2 -4,-7 -1,-9l71 -41c4,-2 8,-2 11,-1z"/>
   <path class="fil1 str5" d="M3605 4470l73 30c4,2 4,7 1,9l-70 40c-4,3 -9,3 -14,1l-72 -29c-3,-2 -4,-7 0,-9l71 -41c3,-2 7,-2 11,-1z"/>
   <path class="fil1 str5" d="M3490 4537l73 30c4,1 4,6 0,8l-70 41c-4,2 -9,2 -13,0l-72 -29c-4,-1 -4,-7 -1,-9l71 -40c4,-2 8,-3 12,-1z"/>
  </g>
  <g id="_1080688400">
   <path class="fil1 str5" d="M5014 3798l73 30c4,2 4,7 1,9l-70 40c-5,3 -10,3 -14,1l-72 -29c-4,-2 -4,-7 -1,-9l71 -41c4,-2 8,-2 12,-1z"/>
   <path class="fil1 str5" d="M4898 3865l73 29c4,2 5,7 1,9l-70 40c-4,3 -9,3 -14,1l-71 -29c-4,-2 -5,-7 -1,-9l71 -41c3,-2 7,-2 11,0z"/>
   <path class="fil1 str5" d="M4783 3931l73 30c4,1 4,6 1,8l-70 41c-5,2 -9,2 -14,0l-72 -29c-4,-1 -4,-7 -1,-9l71 -40c4,-2 8,-3 12,-1z"/>
   <path class="fil1 str5" d="M4667 3997l73 30c4,1 5,7 1,9l-70 40c-4,2 -9,3 -14,1l-71 -30c-4,-1 -5,-6 -1,-9l71 -40c3,-2 7,-3 11,-1z"/>
   <path class="fil1 str5" d="M3859 4460l73 30c4,2 4,7 1,9l-70 40c-4,3 -9,3 -14,1l-72 -29c-3,-2 -4,-7 0,-9l71 -41c3,-2 7,-2 11,-1z"/>
   <path class="fil1 str5" d="M3744 4527l73 29c4,2 4,7 0,9l-70 40c-4,3 -9,3 -13,1l-72 -29c-4,-2 -4,-7 -1,-9l71 -41c4,-2 8,-2 12,0z"/>
   <path class="fil1 str5" d="M3628 4593l73 30c4,1 5,6 1,9l-70 40c-4,2 -9,2 -14,0l-72 -29c-3,-1 -4,-7 0,-9l71 -40c3,-2 7,-3 11,-1z"/>
   <path class="fil1 str5" d="M4552 4063l73 30c4,2 4,7 1,9l-648 371c-4,3 -9,3 -13,1l-72 -29c-4,-2 -4,-7 -1,-9l648 -372c4,-2 8,-2 12,-1z"/>
  </g>
  <g id="_1080690864">
   <path class="fil2 str6" d="M4423 3594l73 30c4,1 4,7 1,9l-70 40c-4,2 -9,3 -14,1l-72 -30c-3,-1 -4,-7 0,-9l71 -40c3,-2 7,-3 11,-1z"/>
   <path class="fil2 str6" d="M4308 3660l73 30c4,2 4,7 0,9l-70 40c-4,2 -9,3 -13,1l-72 -29c-4,-2 -4,-7 -1,-9l71 -41c4,-2 8,-3 12,-1z"/>
   <path class="fil2 str6" d="M4192 3726l73 30c4,2 5,7 1,9l-70 40c-4,3 -9,3 -14,1l-72 -29c-3,-2 -4,-7 0,-9l71 -41c3,-2 7,-2 11,-1z"/>
   <path class="fil2 str6" d="M3961 3859l73 30c4,1 5,6 1,8l-70 41c-4,2 -9,2 -14,0l-71 -29c-4,-1 -5,-7 -1,-9l71 -40c3,-2 7,-3 11,-1z"/>
   <path class="fil2 str6" d="M3846 3925l73 30c4,1 4,7 1,9l-70 40c-5,2 -10,3 -14,1l-72 -30c-4,-1 -4,-6 -1,-9l71 -40c4,-2 8,-3 12,-1z"/>
   <path class="fil2 str6" d="M3730 3991l73 30c4,2 5,7 1,9l-70 40c-4,2 -9,3 -14,1l-71 -29c-4,-2 -5,-7 -1,-9l71 -41c3,-2 7,-2 11,-1z"/>
   <path class="fil2 str6" d="M3615 4057l73 30c4,2 4,7 1,9l-70 40c-5,3 -9,3 -14,1l-72 -29c-4,-2 -4,-7 -1,-9l71 -41c4,-2 8,-2 12,-1z"/>
   <path class="fil2 str6" d="M3384 4190l73 30c4,1 4,6 1,8l-70 41c-5,2 -9,2 -14,0l-72 -29c-4,-1 -4,-7 -1,-9l71 -40c4,-2 8,-3 12,-1z"/>
   <path class="fil2 str6" d="M3268 4256l73 30c4,1 5,7 1,9l-70 40c-4,2 -9,3 -14,1l-71 -30c-4,-1 -5,-6 -1,-8l71 -41c3,-2 7,-3 11,-1z"/>
   <path class="fil2 str6" d="M3153 4322l73 30c4,2 4,7 1,9l-70 40c-5,3 -9,3 -14,1l-72 -29c-4,-2 -4,-7 -1,-9l71 -41c4,-2 8,-2 12,-1z"/>
   <path class="fil2 str6" d="M3037 4388l74 30c3,2 4,7 0,9l-70 40c-4,3 -9,3 -14,1l-71 -29c-4,-2 -5,-7 -1,-9l71 -41c4,-2 7,-2 11,-1z"/>
  </g>
  <g id="_1080692336">
   <path class="fil2 str6" d="M4598 3665l73 30c4,1 5,7 1,9l-70 40c-4,2 -9,3 -14,1l-72 -30c-3,-1 -4,-6 0,-9l71 -40c3,-2 7,-3 11,-1z"/>
   <path class="fil2 str6" d="M4483 3731l73 30c4,2 4,7 1,9l-71 40c-4,2 -9,3 -13,1l-72 -29c-4,-2 -4,-7 -1,-9l71 -41c4,-2 8,-2 12,-1z"/>
   <path class="fil2 str6" d="M4367 3797l73 30c4,2 5,7 1,9l-70 40c-4,3 -9,3 -14,1l-71 -29c-4,-2 -5,-7 -1,-9l71 -41c3,-2 7,-2 11,-1z"/>
   <path class="fil2 str6" d="M4252 3864l73 29c4,2 4,7 1,9l-70 40c-5,3 -10,3 -14,1l-72 -29c-4,-2 -4,-7 -1,-9l71 -41c4,-2 8,-2 12,0z"/>
   <path class="fil2 str6" d="M4136 3930l73 30c4,1 5,6 1,8l-70 41c-4,2 -9,2 -14,0l-71 -29c-4,-1 -5,-7 -1,-9l71 -40c3,-2 7,-3 11,-1z"/>
   <path class="fil2 str6" d="M4021 3996l73 30c4,1 4,7 1,9l-70 40c-5,2 -9,3 -14,1l-72 -30c-4,-1 -4,-6 -1,-8l71 -41c4,-2 8,-3 12,-1z"/>
   <path class="fil2 str6" d="M3905 4062l73 30c4,2 5,7 1,9l-70 40c-4,3 -9,3 -14,1l-71 -29c-4,-2 -5,-7 -1,-9l71 -41c3,-2 7,-2 11,-1z"/>
   <path class="fil2 str6" d="M3790 4128l73 30c4,2 4,7 1,9l-70 40c-5,3 -9,3 -14,1l-72 -29c-4,-2 -4,-7 -1,-9l71 -41c4,-2 8,-2 12,-1z"/>
   <path class="fil2 str6" d="M3674 4195l74 29c3,2 4,7 0,9l-70 40c-4,3 -9,3 -14,1l-71 -29c-4,-2 -5,-7 -1,-9l71 -41c4,-2 7,-2 11,0z"/>
   <path class="fil2 str6" d="M3559 4261l73 30c4,1 4,6 1,8l-70 41c-5,2 -9,2 -14,0l-72 -29c-4,-1 -4,-7 0,-9l70 -40c4,-2 8,-3 12,-1z"/>
   <path class="fil2 str6" d="M3443 4327l74 30c3,1 4,7 0,9l-70 40c-4,2 -9,3 -14,1l-71 -30c-4,-1 -5,-6 -1,-8l71 -41c4,-2 8,-3 11,-1z"/>
   <path class="fil2 str6" d="M3328 4393l73 30c4,2 4,7 1,9l-70 40c-5,3 -9,3 -14,1l-72 -29c-4,-2 -4,-7 0,-9l71 -41c3,-2 7,-2 11,-1z"/>
   <path class="fil2 str6" d="M3212 4459l74 30c3,2 4,7 0,9l-70 40c-4,3 -9,3 -13,1l-72 -29c-4,-2 -4,-7 -1,-9l71 -41c4,-2 8,-2 11,-1z"/>
  </g>
  <g id="_1080697104">
   <path class="fil2 str6" d="M4737 3721l73 30c4,1 4,7 1,9l-71 40c-4,2 -9,3 -13,1l-72 -30c-4,-1 -4,-6 -1,-8l71 -41c4,-2 8,-3 12,-1z"/>
   <path class="fil2 str6" d="M4621 3787l73 30c4,2 5,7 1,9l-70 40c-4,3 -9,3 -14,1l-71 -29c-4,-2 -5,-7 -1,-9l71 -41c3,-2 7,-2 11,-1z"/>
   <path class="fil2 str6" d="M4506 3853l73 30c4,2 4,7 1,9l-70 40c-5,3 -10,3 -14,1l-72 -29c-4,-2 -4,-7 -1,-9l71 -41c4,-2 8,-2 12,-1z"/>
   <path class="fil2 str6" d="M4390 3920l73 29c4,2 5,7 1,9l-70 41c-4,2 -9,2 -14,0l-71 -29c-4,-1 -5,-7 -1,-9l71 -40c3,-3 7,-3 11,-1z"/>
   <path class="fil2 str6" d="M4275 3986l73 30c4,1 4,7 1,9l-70 40c-5,2 -9,2 -14,1l-72 -30c-4,-1 -4,-7 -1,-9l71 -40c4,-2 8,-3 12,-1z"/>
   <path class="fil2 str6" d="M4159 4052l73 30c4,1 5,7 1,9l-70 40c-4,2 -9,3 -14,1l-71 -30c-4,-1 -5,-6 -1,-8l71 -41c3,-2 7,-3 11,-1z"/>
   <path class="fil2 str6" d="M4044 4118l73 30c4,2 4,7 1,9l-70 40c-5,3 -9,3 -14,1l-72 -29c-4,-2 -4,-7 -1,-9l71 -41c4,-2 8,-2 12,-1z"/>
   <path class="fil2 str6" d="M3928 4184l74 30c3,2 4,7 0,9l-70 40c-4,3 -9,3 -14,1l-71 -29c-4,-2 -5,-7 -1,-9l71 -41c3,-2 7,-2 11,-1z"/>
   <path class="fil2 str6" d="M3813 4251l73 30c4,1 4,6 1,8l-70 41c-5,2 -9,2 -14,0l-72 -29c-4,-1 -4,-7 -1,-9l71 -40c4,-2 8,-3 12,-1z"/>
   <path class="fil2 str6" d="M3697 4317l74 30c3,1 4,7 0,9l-70 40c-4,2 -9,2 -14,1l-71 -30c-4,-1 -5,-7 -1,-9l71 -40c4,-2 7,-3 11,-1z"/>
   <path class="fil2 str6" d="M3582 4383l73 30c4,1 4,7 1,9l-70 40c-5,2 -9,3 -14,1l-72 -29c-4,-2 -4,-7 0,-9l71 -41c3,-2 7,-3 11,-1z"/>
   <path class="fil2 str6" d="M3466 4449l74 30c3,2 4,7 0,9l-70 40c-4,3 -9,3 -13,1l-72 -29c-4,-2 -4,-7 -1,-9l71 -41c4,-2 8,-2 11,-1z"/>
   <path class="fil2 str6" d="M3351 4515l73 30c4,2 4,7 1,9l-70 40c-4,3 -9,3 -14,1l-72 -29c-3,-2 -4,-7 0,-9l71 -41c3,-2 7,-2 11,-1z"/>
  </g>
  <g id="_1080700656">
   <path class="fil2 str6" d="M4875 3777l73 30c4,2 5,7 1,9l-70 40c-4,2 -9,3 -14,1l-71 -29c-4,-2 -5,-7 -1,-9l71 -41c3,-2 7,-3 11,-1z"/>
   <path class="fil2 str6" d="M4760 3843l73 30c4,2 4,7 1,9l-70 40c-5,3 -10,3 -14,1l-72 -29c-4,-2 -4,-7 -1,-9l71 -41c4,-2 8,-2 12,-1z"/>
   <path class="fil2 str6" d="M4644 3910l73 29c4,2 5,7 1,9l-70 40c-4,3 -9,3 -14,1l-71 -29c-4,-2 -5,-7 -1,-9l71 -41c3,-2 7,-2 11,0z"/>
   <path class="fil2 str6" d="M4529 3976l73 30c4,1 4,6 1,8l-70 41c-5,2 -9,2 -14,0l-72 -29c-4,-1 -4,-7 -1,-9l71 -40c4,-2 8,-3 12,-1z"/>
   <path class="fil2 str6" d="M4413 4042l73 30c4,1 5,7 1,9l-70 40c-4,2 -9,3 -14,1l-71 -30c-4,-1 -5,-6 -1,-8l71 -41c3,-2 7,-3 11,-1z"/>
   <path class="fil2 str6" d="M4298 4108l73 30c4,2 4,7 1,9l-70 40c-5,3 -9,3 -14,1l-72 -29c-4,-2 -4,-7 -1,-9l71 -41c4,-2 8,-2 12,-1z"/>
   <path class="fil2 str6" d="M4182 4174l74 30c3,2 4,7 0,9l-70 40c-4,3 -9,3 -14,1l-71 -29c-4,-2 -5,-7 -1,-9l71 -41c3,-2 7,-2 11,-1z"/>
   <path class="fil2 str6" d="M4067 4241l73 29c4,2 4,7 1,9l-70 40c-5,3 -9,3 -14,1l-72 -29c-4,-2 -4,-7 -1,-9l71 -41c4,-2 8,-2 12,0z"/>
   <path class="fil2 str6" d="M3951 4307l74 30c3,1 4,6 0,8l-70 41c-4,2 -9,2 -14,0l-71 -29c-4,-1 -5,-7 -1,-9l71 -40c4,-2 7,-3 11,-1z"/>
   <path class="fil2 str6" d="M3836 4373l73 30c4,1 4,7 1,9l-70 40c-5,2 -9,3 -14,1l-72 -30c-4,-1 -4,-6 0,-8l71 -41c3,-2 7,-3 11,-1z"/>
   <path class="fil2 str6" d="M3720 4439l74 30c3,2 4,7 0,9l-70 40c-4,3 -9,3 -13,1l-72 -29c-4,-2 -4,-7 -1,-9l71 -41c4,-2 8,-2 11,-1z"/>
   <path class="fil2 str6" d="M3605 4505l73 30c4,2 4,7 1,9l-70 40c-4,3 -9,3 -14,1l-72 -29c-3,-2 -4,-7 0,-9l71 -41c3,-2 7,-2 11,-1z"/>
   <path class="fil2 str6" d="M3490 4572l73 29c4,2 4,7 0,9l-70 40c-4,3 -9,3 -13,1l-72 -29c-4,-2 -4,-7 -1,-9l71 -41c4,-2 8,-2 12,0z"/>
  </g>
  <g id="_1080635024">
   <path class="fil2 str6" d="M5014 3833l73 30c4,2 4,7 1,9l-70 40c-5,3 -10,3 -14,1l-72 -29c-4,-2 -4,-7 -1,-9l71 -41c4,-2 8,-2 12,-1z"/>
   <path class="fil2 str6" d="M4898 3899l73 30c4,2 5,7 1,9l-70 40c-4,3 -9,3 -14,1l-71 -29c-4,-2 -5,-7 -1,-9l71 -41c3,-2 7,-2 11,-1z"/>
   <path class="fil2 str6" d="M4783 3966l73 29c4,2 4,7 1,9l-70 41c-5,2 -9,2 -14,0l-72 -29c-4,-2 -4,-7 -1,-9l71 -40c4,-3 8,-3 12,-1z"/>
   <path class="fil2 str6" d="M4667 4032l73 30c4,1 5,7 1,9l-70 40c-4,2 -9,2 -14,1l-71 -30c-4,-1 -5,-7 -1,-9l71 -40c3,-2 7,-3 11,-1z"/>
   <path class="fil2 str6" d="M3859 4495l73 30c4,2 4,7 1,9l-70 40c-4,3 -9,3 -14,1l-72 -29c-3,-2 -4,-7 0,-9l71 -41c3,-2 7,-2 11,-1z"/>
   <path class="fil2 str6" d="M3744 4561l73 30c4,2 4,7 0,9l-70 40c-4,3 -9,3 -13,1l-72 -29c-4,-2 -4,-7 -1,-9l71 -41c4,-2 8,-2 12,-1z"/>
   <path class="fil2 str6" d="M3628 4628l73 30c4,1 5,6 1,8l-70 41c-4,2 -9,2 -14,0l-72 -29c-3,-1 -4,-7 0,-9l71 -40c3,-2 7,-3 11,-1z"/>
   <path class="fil2 str6" d="M4552 4098l73 30c4,1 4,7 1,9l-648 371c-4,2 -9,3 -13,1l-72 -29c-4,-2 -4,-7 -1,-9l648 -372c4,-2 8,-3 12,-1z"/>
  </g>
  <path class="fil1 str2" d="M3436 4797l-306 175 734 298 0 523"/>
  <path class="fil1 str2" d="M4067 4567l0 32 462 187 0 614 442 179"/>
  <path class="fil1 str0" d="M4345 4439l507 206 0 535 923 374"/>
  <path class="fil1 str1" d="M4787 4186l217 88 360 -206 482 195"/>
  <path class="fil3 str0" d="M3556 2743l-1662 952c-21,12 -39,3 -39,-20l0 -1353c0,-28 1,-39 28,-54l1671 -957c22,-12 42,-4 42,20l0 1360c0,34 -8,34 -40,52z"/>
  <path class="fil4" d="M3674 2324l-601 344c-23,13 -47,8 -47,-18l0 -898c0,-22 6,-40 27,-53l608 -348c10,-5 20,-6 28,-1 9,4 14,12 14,23l0 899c0,21 -8,40 -29,52z"/>
  <path class="fil5" d="M2935 3053l-854 488c-9,6 -19,7 -28,2 -9,-4 -13,-12 -13,-23l0 -653c0,-27 8,-43 34,-58l845 -484c20,-11 42,-1 42,22l0 663c0,18 -9,33 -26,43z"/>
  <path class="fil1 str0" d="M3776 2395l-598 342c-21,12 -43,3 -43,-20l0 -898c0,-22 5,-40 27,-53l602 -344c10,-6 21,-6 29,-2 8,3 13,12 13,23l0 899c0,22 -9,41 -30,53z"/>
  <path class="fil6" d="M2719 2370l-540 309c-10,6 -21,7 -28,5 -9,-3 -14,-12 -14,-26l0 -546c0,-18 7,-33 24,-43l541 -310c21,-12 42,-1 42,22l0 546c0,20 -6,32 -25,43z"/>
  <path class="fil7" d="M2170 2915l293 -168c29,-16 49,-5 54,15 5,20 -3,48 -28,62l-305 175c-55,31 -78,-47 -14,-84z"/>
  <path class="fil8" d="M2430 3256l-271 155c-5,3 -10,3 -14,1 -5,-2 -7,-6 -7,-11l0 -276c0,-8 4,-15 12,-20l271 -155c5,-3 10,-3 15,-1 4,2 6,6 6,12l0 274c0,10 -2,15 -12,21z"/>
  <path class="fil9" d="M3212 1857l297 -170c31,-18 50,-5 54,17 4,19 -4,46 -27,59l-305 175c-32,18 -52,3 -54,-21 -3,-19 6,-44 35,-60z"/>
  <path class="fil9" d="M3443 1917l-226 130c-17,10 -20,34 -15,47 5,11 16,13 27,7l224 -128c20,-12 24,-30 22,-43 -3,-15 -18,-21 -32,-13z"/>
  <path class="fil10" d="M2279 2265c-36,10 -64,-11 -64,-46 0,-36 28,-72 64,-82 35,-10 64,11 64,46 0,36 -29,73 -64,82z"/>
  <path class="fil10" d="M2204 2336l0 52c0,36 74,17 122,-16 22,-15 41,-38 41,-51l0 -53c0,-36 -47,-36 -88,-18 -40,17 -75,53 -75,86z"/>
  <path class="fil10" d="M3189 2841c-13,2 -24,-7 -24,-21 0,-13 11,-26 24,-28 13,-3 24,7 24,20 0,14 -11,27 -24,29z"/>
  <path class="fil10" d="M3271 2794c-13,2 -23,-7 -23,-21 0,-14 10,-26 23,-29 13,-2 24,7 24,21 0,14 -11,26 -24,29z"/>
  <path class="fil10" d="M3354 2746c-13,3 -24,-7 -24,-20 0,-14 11,-27 24,-29 13,-2 24,7 24,21 0,13 -11,26 -24,28z"/>
  <path class="fil10" d="M3436 2699c-13,2 -24,-7 -24,-20 0,-14 11,-27 24,-29 13,-2 24,7 24,21 0,13 -11,26 -24,28z"/>
  <path class="fil10" d="M1940 2373c-13,2 -24,-7 -24,-20 0,-14 11,-27 24,-29 13,-2 24,7 24,21 0,13 -11,26 -24,28z"/>
  <path class="fil1 str1" d="M2669 3078c-42,17 -76,-5 -76,-49 0,-43 34,-92 76,-109 43,-17 77,5 77,49 0,43 -34,92 -77,109z"/>
  <path class="fil1 str1" d="M3451 2915c-28,11 -51,-3 -51,-32 0,-29 23,-61 51,-72 28,-11 51,3 51,32 0,29 -23,61 -51,72z"/>
  <path class="fil10" d="M1940 2500c-13,2 -24,-7 -24,-21 0,-13 11,-26 24,-28 13,-2 24,7 24,20 0,14 -11,27 -24,29z"/>
  <path class="fil10" d="M1940 2627c-13,2 -24,-7 -24,-21 0,-13 11,-26 24,-28 13,-2 24,7 24,20 0,14 -11,27 -24,29z"/>
  <path class="fil1 str2" d="M2443 5079l-72 41 99 41 73 -42 -100 -40z"/>
  <path class="fil1 str2" d="M2831 2414l-541 309c-22,13 -42,3 -42,-21l0 -548c0,-17 9,-32 25,-41l541 -309c20,-12 42,-1 42,21l0 546c0,21 -6,32 -25,43z"/>
  <path class="fil1 str0" d="M3357 3871l-384 220c-36,20 -34,55 1,70 26,12 74,14 129,-17l405 -232c74,-43 -35,-108 -151,-41z"/>
  <path class="fil1 str2" d="M4090 4519l0 35 -106 60 0 -34 106 -61z"/>
  <g id="_841780720">
   <path class="fil1 str2" d="M4221 4654l0 80"/>
   <path class="fil1 str2" d="M4319 4602l115 46c6,3 8,13 2,17l-75 42c-7,4 -15,5 -22,2l-112 -46c-8,-3 -9,-13 -1,-17l75 -44c8,-4 11,-3 18,0z"/>
   <path class="fil1 str2" d="M4282 4685l100 -58"/>
   <path class="fil1 str2" d="M4282 4685l0 77"/>
   <path class="fil1 str2" d="M4351 4713l0 69"/>
   <path class="fil1 str2" d="M4439 4656l0 80"/>
   <path class="fil1 str2" d="M4319 4649l115 47c6,3 8,12 2,16l-75 43c-7,4 -15,4 -22,1l-112 -45c-8,-4 -9,-14 -1,-18l75 -43c8,-4 11,-3 18,-1z"/>
  </g>
  <path class="fil11" d="M3059 3114l-853 488c-21,12 -42,11 -42,-15l0 -673c0,-26 7,-28 31,-42l848 -486c10,-5 20,-6 29,-2 8,5 13,13 13,23l0 674c0,19 -9,23 -26,33z"/>
  <path class="fil1 str5" d="M3170 3177l-853 489c-21,11 -42,10 -42,-16l0 -673c0,-26 7,-28 31,-42l848 -485c10,-6 20,-7 29,-2 8,4 13,12 13,23l0 674c0,18 -9,22 -26,32z"/>
  <path class="fil12 str2" d="M4659 2338l-295 169c-17,10 -20,34 -15,47 5,11 16,13 27,7l293 -168c20,-12 24,-30 22,-43 -3,-15 -18,-20 -32,-12z"/>
  <path class="fil1 str4" d="M4395 3106c-22,9 -40,-3 -40,-25 0,-23 18,-48 40,-57 22,-8 40,3 40,26 0,22 -18,47 -40,56z"/>
  <path class="fil1 str2" d="M4701 2868l0 67 -159 91 0 -67 159 -91z"/>
  <path class="fil1 str2" d="M5445 1085l-564 324 0 319 -549 315"/>
  <g id="_841796848">
   <path class="fil1 str0" d="M4650 1854l0 86"/>
   <path class="fil1 str0" d="M4545 1816l-117 67c-4,2 -5,6 -5,10 0,3 2,7 6,8l78 32c6,2 15,1 21,-2l117 -68c4,-1 6,-5 5,-9 0,-4 -2,-7 -6,-8l-77 -31c-8,-4 -15,-3 -22,1z"/>
   <path class="fil1 str0" d="M4588 1896l-107 -43"/>
   <path class="fil1 str0" d="M4588 1896l0 79"/>
   <path class="fil1 str0" d="M4517 1937l0 74"/>
   <path class="fil1 str0" d="M4423 1893l0 81"/>
   <path class="fil1 str0" d="M4545 1866l-117 67c-4,2 -5,5 -5,9 0,4 2,7 6,9l78 31c6,3 15,2 21,-2l117 -67c4,-2 6,-5 5,-9 0,-4 -2,-7 -6,-9l-77 -31c-8,-3 -15,-3 -22,2z"/>
  </g>
  <path class="fil1 str2" d="M5916 510l-1305 749 0 352 -908 520"/>
  <path class="fil1 str2" d="M3977 746l0 367 -381 218"/>
  <path class="fil7" d="M2670 2287l-227 129c-17,10 -20,34 -15,47 5,11 16,14 28,7l224 -128c20,-12 24,-30 21,-43 -2,-15 -17,-20 -31,-12z"/>
  <path class="fil1 str0" d="M2196 2013l-828 -335"/>
  <path class="fil1 str7" d="M2275 3322l-608 -246 0 809 -269 154 -890 -360"/>
  <path class="fil13" d="M925 5573c21,0 39,-12 39,-27 0,-15 -18,-28 -39,-28 -22,0 -40,13 -40,28 0,15 18,27 40,27z"/>
  <path class="fil13" d="M65 5229c22,0 40,-12 40,-28 0,-15 -18,-27 -40,-27 -21,0 -39,12 -39,27 0,16 18,28 39,28z"/>
  <path class="fil13" d="M233 4747c22,0 40,-12 40,-27 0,-15 -18,-28 -40,-28 -21,0 -39,13 -39,28 0,15 18,27 39,27z"/>
  <path class="fil13" d="M5445 1113c22,0 39,-12 39,-28 0,-15 -17,-27 -39,-27 -22,0 -39,12 -39,27 0,16 17,28 39,28z"/>
  <path class="fil13" d="M5916 538c22,0 40,-12 40,-28 0,-15 -18,-27 -40,-27 -21,0 -39,12 -39,27 0,16 18,28 39,28z"/>
  <path class="fil13" d="M2818 5828c22,0 39,-12 39,-28 0,-15 -17,-27 -39,-27 -21,0 -39,12 -39,27 0,16 18,28 39,28z"/>
  <path class="fil1 str2" d="M5269 2854l-177 101c-3,3 -5,6 -5,10 1,4 3,8 7,9l254 103c5,2 11,2 16,-1l176 -101c4,-2 6,-6 5,-10 0,-4 -2,-7 -6,-9l-254 -103c-5,-2 -11,-2 -16,1z"/>
  <path class="fil1 str2" d="M5545 3127l-261 -106c-4,-1 -8,-1 -12,1l-183 105"/>
  <path class="fil1 str2" d="M5087 2969l0 160c0,6 2,6 7,8l250 101c7,3 14,3 21,-1l174 -99c5,-4 6,-4 6,-11l0 -162"/>
  <path class="fil1 str2" d="M5356 3081l0 157"/>
  <path class="fil1 str2" d="M3536 4879l-301 173c-5,3 -8,7 -7,13 0,5 3,9 8,11l330 134c8,3 14,3 21,-1l301 -173c5,-3 8,-7 7,-13 0,-5 -3,-10 -8,-12l-330 -133c-7,-3 -14,-3 -21,1z"/>
  <path class="fil1 str2" d="M3893 5156l-338 -138c-6,-2 -11,-1 -15,1l-310 178"/>
  <path class="fil1 str2" d="M3228 5065l0 130c0,8 3,8 9,10l325 132c9,4 18,4 27,-2l298 -170c7,-4 8,-5 8,-13l0 -129"/>
  <path class="fil1 str2" d="M3577 5214l0 123"/>
  <path class="fil1 str2" d="M3443 5332l-75 43 66 27 75 -43 -66 -27z"/>
  <path class="fil1 str2" d="M3217 5240l-75 43 66 27 75 -43 -66 -27z"/>
  <path class="fil1 str2" d="M3326 5284l-75 43 67 27 75 -43 -67 -27z"/>
  <path class="fil13" d="M4971 5606c22,0 39,-12 39,-27 0,-15 -17,-28 -39,-28 -22,0 -39,13 -39,28 0,15 17,27 39,27z"/>
  <path class="fil10" d="M5775 5581c22,0 39,-12 39,-27 0,-16 -17,-28 -39,-28 -22,0 -39,12 -39,28 0,15 17,27 39,27z"/>
  <path class="fil10" d="M5821 4270c22,0 39,-13 39,-28 0,-15 -17,-27 -39,-27 -22,0 -39,12 -39,27 0,15 17,28 39,28z"/>
  <path class="fil10" d="M1368 1705c21,0 39,-12 39,-27 0,-16 -18,-28 -39,-28 -22,0 -39,12 -39,28 0,15 17,27 39,27z"/>
  <path class="fil10" d="M364 2451c21,0 39,-12 39,-27 0,-16 -18,-28 -39,-28 -22,0 -39,12 -39,28 0,15 17,27 39,27z"/>
  <path class="fil13" d="M3977 773c22,0 40,-12 40,-27 0,-16 -18,-28 -40,-28 -21,0 -39,12 -39,28 0,15 18,27 39,27z"/>
  <path class="fil1 str2" d="M5261 3241l-65 36 57 23 65 -36 -57 -23z"/>
  <path class="fil1 str2" d="M5067 3162l-64 37 57 23 64 -37 -57 -23z"/>
  <path class="fil1 str2" d="M5161 3200l-64 37 57 23 64 -37 -57 -23z"/>
  <path class="fil1 str2" d="M5582 3049l-64 36 57 23 64 -36 -57 -23z"/>
  <path class="fil1 str2" d="M5389 2970l-64 37 57 23 64 -37 -57 -23z"/>
  <path class="fil1 str2" d="M5482 3008l-64 37 57 23 64 -37 -57 -23z"/>
  <path class="fil1 str2" d="M4997 766l-423 242c-4,3 -7,7 -6,13 0,5 3,9 8,11l270 110c7,3 14,2 21,-2l421 -242c5,-2 7,-7 7,-12 0,-6 -3,-10 -8,-12l-270 -109c-7,-3 -14,-3 -20,1z"/>
  <path class="fil1 str2" d="M5293 1018l-278 -121c-5,-2 -10,-2 -15,1l-433 249"/>
  <path class="fil1 str2" d="M4568 1021l-1 130c0,7 2,8 8,10l265 108c10,4 19,3 28,-2l419 -240c7,-4 8,-5 8,-13l0 -129"/>
  <path class="fil1 str2" d="M4856 1143l0 123"/>
  <path class="fil1 str2" d="M4780 945l-130 75 115 47 130 -75 -115 -47z"/>
  <path class="fil4" d="M3026 1810l0 -58c0,-22 6,-40 27,-53l608 -348c10,-5 20,-6 28,-1 9,4 14,12 14,23l0 49 -677 388z"/>
  <path class="fil14" d="M2137 2165l0 -53c0,-18 7,-33 24,-43l541 -310c21,-12 42,-1 42,22l0 36 -607 348z"/>
 </g>
</svg>
