<?xml version="1.0" encoding="UTF-8"?>
<!DOCTYPE svg PUBLIC "-//W3C//DTD SVG 1.0//EN" "http://www.w3.org/TR/2001/REC-SVG-20010904/DTD/svg10.dtd">
<!-- Creator: CorelDRAW X8 -->
<svg xmlns="http://www.w3.org/2000/svg" xml:space="preserve" width="582.083mm" height="476.25mm" version="1.0" style="shape-rendering:geometricPrecision; text-rendering:geometricPrecision; image-rendering:optimizeQuality; fill-rule:evenodd; clip-rule:evenodd"
viewBox="0 0 7772 6359"
 xmlns:xlink="http://www.w3.org/1999/xlink">
 <defs>
  <style type="text/css">
   <![CDATA[
    .str7 {stroke:fuchsia;stroke-width:11.0361;stroke-opacity:0.400000}
    .str2 {stroke:black;stroke-width:11.0361}
    .str4 {stroke:lime;stroke-width:11.0361}
    .str3 {stroke:aqua;stroke-width:11.0361}
    .str5 {stroke:aqua;stroke-width:11.0361}
    .str6 {stroke:fuchsia;stroke-width:11.0361}
    .str0 {stroke:white;stroke-width:11.0361}
    .str1 {stroke:white;stroke-width:11.0361}
    .str8 {stroke:white;stroke-width:7.35604}
    .fil1 {fill:none}
    .fil2 {fill:none}
    .fil10 {fill:white}
    .fil9 {fill:#4C9CFF;fill-rule:nonzero}
    .fil7 {fill:white;fill-rule:nonzero}
    .fil5 {fill:fuchsia;fill-opacity:0.501961}
    .fil4 {fill:white;fill-opacity:0.501961}
    .fil6 {fill:#2687FF;fill-opacity:0.600000}
    .fil8 {fill:white}
    .fil3 {fill:url(#id0)}
    .fil0 {fill:url(#id1)}
   ]]>
  </style>
  <linearGradient id="id0" gradientUnits="userSpaceOnUse" x1="2628.76" y1="1817.54" x2="4146.35" y2="3066.65">
   <stop offset="0" style="stop-opacity:1; stop-color:#3D91F2"/>
   <stop offset="1" style="stop-opacity:1; stop-color:#A6C7FF"/>
  </linearGradient>
  <radialGradient id="id1" gradientUnits="userSpaceOnUse" gradientTransform="matrix(1.05263 -0 -0 0.349753 -192 2398)" cx="3652.79" cy="3688.11" r="4040.21" fx="3652.79" fy="3688.11">
   <stop offset="0" style="stop-opacity:1; stop-color:#66084F"/>
   <stop offset="1" style="stop-opacity:1; stop-color:#263942"/>
  </radialGradient>
 </defs>
 <g id="Camada_x0020_1">
  <metadata id="CorelCorpID_0Corel-Layer"/>
  <path class="fil0" d="M0 0l7772 0 0 6359 -7772 0 0 -6359z"/>
  <path class="fil1 str0" d="M5469 3570l309 -177 461 186"/>
  <path class="fil1 str0" d="M5665 3080l226 -130 1575 638"/>
  <path class="fil1 str0" d="M2504 5687l-335 -136c-10,-4 -10,-17 -1,-23l161 -92"/>
  <path class="fil1 str1" d="M2168 5371l-785 450"/>
  <path class="fil1 str0" d="M3677 4407l-177 -72 -611 350m-838 481l-509 292"/>
  <path class="fil1 str2" d="M4191 5383c81,-70 301,-235 418,-133 130,113 428,123 131,363 -105,86 -411,-204 -466,-233 -6,-3 -29,2 20,-14"/>
  <path class="fil1 str2" d="M5773 3079c-329,-93 -5,-152 117,-265 108,-101 313,-37 430,20 58,28 90,196 -9,239 -215,95 -288,179 -517,82"/>
  <path class="fil1 str2" d="M2596 2348c-78,40 -684,340 -791,190 -192,-270 -111,-555 -680,-396 -77,22 -237,-408 -302,-495"/>
  <path class="fil1 str2" d="M2454 2133c-544,137 -422,-152 -697,-527 -14,-20 -145,-315 -174,-364"/>
  <path class="fil1 str2" d="M3192 1475c-32,-21 -300,-224 -293,-304"/>
  <path class="fil1 str2" d="M4537 2027c28,1 431,-115 296,-257 -128,-134 686,-421 748,-490l30 71"/>
  <path class="fil1 str2" d="M5287 1675c67,-136 -234,140 -234,-297 0,-266 -89,-357 205,-344 241,10 132,642 51,648 -22,1 -28,5 -22,-7z"/>
  <path class="fil1 str2" d="M5299 2042c77,-22 494,-202 479,-273 -87,-401 243,-288 576,-434 65,-29 329,-159 373,-195"/>
  <path class="fil1 str2" d="M4405 1095c498,-335 475,-49 31,-753"/>
  <path class="fil1 str0" d="M3578 3280l-842 483 0 73 837 340 843 -484 0 -73 -838 -339z"/>
  <path class="fil1 str0" d="M6278 3898l0 68 -1913 1097 -1004 -407 0 -68 1913 -1097 1004 407z"/>
  <path class="fil1 str1" d="M2396 3867l1982 -1137c14,-8 16,-16 16,-31l0 -1678c0,-26 -20,-37 -42,-24l-1979 1135c-19,11 -26,27 -26,49l0 1660c0,29 25,39 49,26z"/>
  <path class="fil1 str3" d="M2479 4537l-458 263c-4,3 -7,7 -7,12 1,5 4,9 8,11l687 278c10,4 19,3 29,-2l462 -266c4,-2 7,-6 6,-11 0,-5 -3,-9 -8,-11l-681 -276c-15,-6 -24,-6 -38,2z"/>
  <path class="fil1 str3" d="M2014 4812l0 293c0,6 0,10 7,13l682 276c14,6 22,5 34,-2l460 -264c8,-4 9,-8 9,-17l0 -289"/>
  <path class="fil1 str3" d="M2386 5358l-103 59 92 38 103 -60 -92 -37z"/>
  <path class="fil1 str3" d="M2550 5424l-103 60 92 37 103 -59 -92 -38z"/>
  <path class="fil1 str3" d="M2766 4807l-103 59 91 37 104 -59 -92 -37z"/>
  <path class="fil1 str3" d="M2916 4868l-103 59 92 37 103 -59 -92 -37z"/>
  <path class="fil1 str3" d="M3077 4933l-103 59 92 37 103 -59 -92 -37z"/>
  <path class="fil1 str3" d="M3241 4999l-103 59 92 37 103 -59 -92 -37z"/>
  <path class="fil1 str3" d="M2723 5107l0 293"/>
  <path class="fil1 str3" d="M3009 5447l405 150 3 182 -571 328"/>
  <path class="fil1 str3" d="M2939 5379l-81 46 111 45 80 -47 -110 -44z"/>
  <path class="fil1 str3" d="M2051 5132l0 47 651 264c23,10 28,5 49,-7l413 -237 0 -51"/>
  <path class="fil1 str3" d="M3168 5145l-662 -268c-4,-2 -9,-2 -14,1l-441 253"/>
  <path class="fil1 str0" d="M2658 5598l-317 182 277 112 317 -182 -277 -112z"/>
  <path class="fil1 str3" d="M2075 5232l-104 59 92 38 104 -60 -92 -37z"/>
  <path class="fil1 str3" d="M2225 5293l-103 59 92 37 103 -59 -92 -37z"/>
  <path class="fil1 str3" d="M3116 4948l135 -77c10,-6 17,-6 27,-2l296 120c11,4 22,6 34,6l234 0"/>
  <path class="fil1 str3" d="M3201 5228l-80 46 110 45 81 -46 -111 -45z"/>
  <path class="fil1 str3" d="M2758 6078c-63,0 -113,35 -113,79 0,44 50,80 113,80 62,0 113,-36 113,-80 0,-44 -51,-79 -113,-79z"/>
  <path class="fil1 str4" d="M2638 5400l-202 116c-3,2 -5,5 -4,9 0,3 2,6 5,7l172 70c6,2 12,1 17,-2l202 -115c3,-2 4,-5 4,-9 0,-3 -2,-6 -5,-7l-172 -70c-6,-2 -11,-2 -17,1z"/>
  <path class="fil1 str4" d="M2831 5715l-177 -71c-5,-2 -10,-2 -15,1l-206 118"/>
  <path class="fil1 str4" d="M2432 5525l0 230c0,11 2,13 12,17l168 68c4,2 8,1 12,-1l199 -114c6,-4 9,-4 9,-12l0 -237"/>
  <path class="fil1 str4" d="M2618 5605l0 236"/>
  <path class="fil1 str3" d="M3203 5123l-708 -286c-6,-3 -13,-2 -19,1l-462 265"/>
  <path class="fil1 str3" d="M1583 3579l-562 -228 -712 408"/>
  <path class="fil1 str3" d="M994 3024l-75 42c-2,2 -2,2 1,3l643 261 75 -43c2,-2 2,-1 0,-2l-644 -261z"/>
  <path class="fil1 str3" d="M917 3068l0 51 644 261c3,1 2,1 2,-1l0 -49"/>
  <path class="fil1 str3" d="M821 3123l-74 42c-3,2 -3,2 0,3l644 261 74 -43c2,-1 2,-1 -1,-2l-643 -261z"/>
  <path class="fil1 str3" d="M744 3167l0 51 645 261c2,1 2,1 2,-1l0 -49"/>
  <path class="fil1 str3" d="M648 3222l-75 43c-2,1 -2,1 0,2l645 261 75 -43c1,-1 1,-1 -1,-2l-644 -261z"/>
  <path class="fil1 str3" d="M571 3266l0 51 645 262c2,0 2,0 2,-1l0 -50"/>
  <path class="fil1 str3" d="M475 3321l-74 43c-3,1 -3,1 0,2l644 261 74 -43c3,-1 3,-1 0,-2l-644 -261z"/>
  <path class="fil1 str3" d="M399 3365l0 52 644 261c2,0 2,1 2,-2l0 -49"/>
  <path class="fil1 str3" d="M302 3421l-75 43c-1,0 -2,0 0,1l645 261 74 -43c3,-1 3,-1 0,-2l-644 -260z"/>
  <path class="fil1 str3" d="M872 3987l0 -261"/>
  <path class="fil1 str3" d="M226 3464l0 254c0,7 4,9 10,12l618 250c11,5 20,6 31,0l746 -428c6,-3 9,-5 9,-11l0 -255"/>
  <path class="fil1 str3" d="M1045 3678l-97 56 0 -52"/>
  <path class="fil1 str3" d="M1218 3579l-97 55 0 -51"/>
  <path class="fil1 str3" d="M1391 3480l-97 55 0 -51"/>
  <path class="fil1 str3" d="M1563 3381l-96 55 0 -51"/>
  <path class="fil1 str3" d="M309 3756l0 82 541 219c19,8 32,7 49,-3l59 -34m249 -143l378 -217 0 -82"/>
  <path class="fil1 str3" d="M917 3119l-44 25m-129 74l-44 25m-129 74l-44 26m-128 74l-44 25"/>
  <g id="_1038386832">
   <path class="fil1 str0" d="M6329 1321l0 95"/>
   <path class="fil1 str0" d="M6211 1278l-130 75c-4,2 -6,6 -6,10 1,5 3,8 7,10l87 35c7,3 17,2 23,-2l131 -75c4,-2 6,-6 6,-10 -1,-5 -3,-8 -7,-10l-86 -35c-9,-3 -16,-3 -25,2z"/>
   <path class="fil1 str0" d="M6259 1368l-119 -49"/>
   <path class="fil1 str0" d="M6259 1368l0 87"/>
   <path class="fil1 str0" d="M6181 1413l0 82"/>
   <path class="fil1 str0" d="M6075 1363l0 91"/>
   <path class="fil1 str0" d="M6211 1333l-130 75c-4,2 -6,6 -6,10 1,5 3,8 7,10l87 35c7,3 17,2 23,-2l131 -75c4,-2 6,-6 6,-10 -1,-5 -3,-8 -7,-10l-86 -34c-9,-4 -16,-3 -25,1z"/>
  </g>
  <path class="fil1 str4" d="M1164 3867l-202 116c-3,2 -5,5 -4,8 0,4 2,7 5,8l172 70c6,2 12,1 17,-2l202 -115c3,-2 4,-5 4,-9 0,-3 -2,-6 -5,-7l-172 -70c-6,-2 -11,-2 -17,1z"/>
  <path class="fil1 str4" d="M1357 4182l-177 -71c-5,-3 -10,-2 -15,1l-206 117"/>
  <path class="fil1 str4" d="M958 3991l0 231c0,11 2,13 12,17l168 68c4,1 8,1 12,-1l199 -114c3,-2 6,-3 7,-5 2,-1 2,-3 2,-7l0 -237"/>
  <path class="fil1 str4" d="M1144 4072l0 236"/>
  <path class="fil1 str3" d="M6702 2034l-477 274c-8,4 -12,12 -11,20 1,9 6,15 13,19l522 211c12,5 23,4 34,-2l476 -273c7,-5 11,-12 11,-21 -1,-8 -6,-15 -14,-18l-522 -212c-11,-4 -22,-4 -32,2z"/>
  <path class="fil1 str3" d="M7267 2436l-536 -217c-8,-3 -17,-3 -24,1l-490 282"/>
  <path class="fil1 str3" d="M6214 2328l0 171c0,11 4,12 14,16l514 208c13,5 32,4 44,-3l470 -270c12,-6 14,-8 14,-20l0 -168"/>
  <path class="fil1 str3" d="M6766 2565l0 158"/>
  <path class="fil1 str3" d="M6572 2252l-180 103c-2,1 -4,4 -4,7 1,3 3,6 5,7l153 62c5,2 11,1 15,-1l179 -103c2,-1 4,-4 4,-7 -1,-3 -2,-6 -5,-7l-153 -62c-5,-2 -10,-2 -14,1z"/>
  <path class="fil1 str3" d="M6205 2552l-104 59 92 37 104 -59 -92 -37z"/>
  <path class="fil1 str0" d="M7392 2540l-316 182 276 112 317 -182 -277 -112z"/>
  <path class="fil1 str4" d="M7372 2342l-202 116c-3,2 -4,5 -4,9 0,3 2,6 5,7l173 70c5,2 11,1 17,-2l201 -115c3,-2 5,-5 4,-9 0,-3 -2,-6 -5,-7l-172 -70c-6,-2 -11,-2 -17,1z"/>
  <path class="fil1 str4" d="M7565 2657l-177 -71c-5,-2 -10,-2 -15,1l-205 118"/>
  <path class="fil1 str4" d="M7166 2467l0 230c0,11 2,13 13,17l168 68c3,2 7,1 11,-1l199 -114c7,-4 9,-4 9,-12l0 -237"/>
  <path class="fil1 str4" d="M7352 2547l0 236"/>
  <path class="fil1 str3" d="M6343 2608l-104 59 92 37 103 -59 -91 -37z"/>
  <path class="fil1 str3" d="M6480 2664l-103 59 92 37 103 -59 -92 -37z"/>
  <path class="fil1 str3" d="M6618 2719l-103 60 92 37 103 -59 -92 -38z"/>
  <path class="fil1 str5" d="M3272 5296l473 179 0 466 -254 164"/>
  <path class="fil1 str3" d="M4898 1841l-458 263c-5,2 -7,7 -7,12 1,5 4,9 8,11l687 278c10,4 19,3 28,-3l463 -265c4,-2 7,-7 6,-12 0,-5 -3,-9 -8,-11l-682 -276c-14,-6 -23,-5 -37,3z"/>
  <path class="fil1 str3" d="M4433 2116l0 822c0,6 0,11 7,14l682 276c14,6 22,5 34,-3l460 -263c8,-5 9,-9 9,-18l0 -819"/>
  <path class="fil1 str3" d="M4805 3192l-103 59 92 37 103 -59 -92 -37z"/>
  <path class="fil1 str3" d="M5185 2640l-104 59 92 38 104 -60 -92 -37z"/>
  <path class="fil1 str3" d="M5335 2701l-103 59 92 38 103 -60 -92 -37z"/>
  <path class="fil1 str3" d="M5496 2766l-103 59 92 38 103 -60 -92 -37z"/>
  <path class="fil1 str3" d="M5660 2833l-103 59 92 37 103 -59 -92 -37z"/>
  <path class="fil1 str3" d="M5142 2410l0 824"/>
  <path class="fil1 str3" d="M5416 3179l-81 46 111 45 81 -47 -111 -44z"/>
  <path class="fil1 str3" d="M4470 2966l0 47 651 264c23,9 28,5 49,-7l413 -237 0 -52"/>
  <path class="fil1 str3" d="M5587 2978l-662 -268c-4,-2 -9,-1 -14,1l-441 253"/>
  <path class="fil1 str3" d="M4494 3066l-104 59 92 37 104 -59 -92 -37z"/>
  <path class="fil1 str3" d="M4644 3127l-103 59 92 37 103 -59 -92 -37z"/>
  <path class="fil1 str3" d="M5620 3062l-81 46 111 45 81 -47 -111 -44z"/>
  <path class="fil1 str2" d="M5557 2275c-69,53 -240,154 -327,181 -86,26 266,-207 338,-201"/>
  <path class="fil1 str2" d="M5273 3078c-100,125 -89,-220 15,-91 34,42 -15,86 -34,107"/>
  <path class="fil1 str2" d="M5379 3040c-28,0 -22,-16 -19,-46 0,-5 38,-44 36,16 -1,9 11,21 0,22"/>
  <path class="fil1 str2" d="M5459 2997c-27,17 -21,-2 -19,-32 0,-12 23,-35 20,26 0,5 5,2 -1,6z"/>
  <path class="fil1 str3" d="M2810 3818l-149 85c-4,3 -6,7 -6,12 1,5 4,9 8,10l287 117c7,2 14,2 21,-2l148 -85c9,-5 8,-18 -2,-22l-287 -117c-7,-2 -14,-2 -20,2z"/>
  <path class="fil1 str3" d="M3124 4040l-294 -119c-4,-2 -9,-1 -14,1l-159 92"/>
  <path class="fil1 str3" d="M2655 3913l0 102c0,5 2,11 8,13l284 115c9,4 18,3 26,-1l145 -84c4,-2 6,-6 6,-10l0 -108"/>
  <path class="fil1 str3" d="M2960 4046l0 103"/>
  <path class="fil1 str3" d="M4643 2813l0 159 -154 -62 0 -159 154 62z"/>
  <g id="_1038399440">
   <path class="fil1 str3" d="M320 4079l0 89"/>
   <path class="fil1 str3" d="M430 4021l127 51c8,4 10,14 3,19l-83 47c-8,5 -17,5 -24,2l-126 -51c-9,-4 -9,-15 0,-20l83 -48c8,-4 12,-3 20,0z"/>
   <path class="fil1 str3" d="M388 4113l112 -64"/>
   <path class="fil1 str3" d="M388 4113l0 85"/>
   <path class="fil1 str3" d="M465 4144l0 77"/>
   <path class="fil1 str3" d="M564 4080l0 90"/>
   <path class="fil1 str3" d="M430 4074l127 51c8,3 10,14 3,18l-83 48c-8,4 -17,5 -24,2l-126 -51c-9,-4 -9,-15 0,-20l83 -48c8,-5 12,-4 20,0z"/>
  </g>
  <path class="fil1 str3" d="M6367 3506l-130 75c-36,20 -45,60 -38,88 8,34 38,56 80,73l442 179c64,26 116,25 175,-9l114 -65c55,-32 30,-119 1,-175 -82,-157 -397,-307 -644,-166z"/>
  <path class="fil1 str1" d="M3256 3373l0 264c16,50 89,67 145,44 30,-12 57,-36 63,-70l0 -305c0,-32 7,-53 34,-72"/>
  <path class="fil1 str5" d="M6401 3489c74,-21 145,-3 195,24l-43 29c-77,-41 -175,-32 -244,-2"/>
  <path class="fil1 str3" d="M3364 4056l0 35 -1382 792 -589 0 -1178 676"/>
  <path class="fil1 str3" d="M2792 4028l0 53 -806 462 -748 0 -738 423"/>
  <path class="fil1 str0" d="M4199 3781l0 36 146 59 536 -308 -546 -221c-10,-4 -11,-18 -2,-23l161 -92"/>
  <path class="fil1 str3" d="M3322 4000l0 39 198 80 0 -39 -198 -80z"/>
  <path class="fil1 str3" d="M6302 3642l0 74 162 65 0 -74 -162 -65z"/>
  <path class="fil1 str3" d="M4282 3695l0 39 -117 67 0 -39 117 -67z"/>
  <g id="_1038404304">
   <path class="fil1 str3" d="M4538 3422l0 89"/>
   <path class="fil1 str3" d="M4648 3364l128 52c7,3 9,14 2,18l-83 47c-8,5 -17,5 -24,2l-126 -51c-8,-3 -9,-15 0,-19l83 -48c8,-5 12,-4 20,-1z"/>
   <path class="fil1 str3" d="M4606 3456l112 -64"/>
   <path class="fil1 str3" d="M4606 3456l0 86"/>
   <path class="fil1 str3" d="M4683 3487l0 78"/>
   <path class="fil1 str3" d="M4782 3424l0 89"/>
   <path class="fil1 str3" d="M4648 3417l128 51c7,3 9,14 2,18l-83 48c-8,5 -17,5 -24,2l-126 -51c-8,-4 -9,-15 0,-20l83 -48c8,-4 12,-3 20,0z"/>
  </g>
  <path class="fil1 str0" d="M6421 2741l-131 74 835 339"/>
  <path class="fil1 str1" d="M2535 3220l-343 197 0 565 -282 162 -397 0"/>
  <g id="_1038407120">
   <path class="fil1 str6" d="M5285 3627l82 33c4,2 4,8 0,10l-78 45c-4,3 -10,3 -15,1l-80 -33c-4,-2 -5,-7 -1,-10l79 -45c4,-2 9,-3 13,-1z"/>
   <path class="fil1 str6" d="M5157 3701l81 33c4,2 5,8 1,10l-78 45c-5,2 -10,3 -16,0l-79 -32c-5,-2 -5,-8 -1,-10l79 -45c4,-3 8,-3 13,-1z"/>
   <path class="fil1 str6" d="M5028 3774l81 34c5,1 5,7 1,10l-78 44c-5,3 -10,3 -15,1l-80 -32c-4,-2 -5,-8 -1,-10l79 -46c4,-2 9,-2 13,-1z"/>
   <path class="fil1 str6" d="M4771 3922l81 33c5,2 5,8 1,10l-78 45c-5,2 -10,3 -15,1l-80 -33c-4,-2 -5,-8 -1,-10l79 -45c4,-2 9,-3 13,-1z"/>
   <path class="fil1 str6" d="M4642 3996l82 33c4,2 5,7 1,10l-78 44c-5,3 -11,3 -16,1l-80 -32c-4,-2 -4,-8 0,-10l79 -45c4,-3 8,-3 12,-1z"/>
   <path class="fil1 str6" d="M4514 4069l81 34c4,1 5,7 1,9l-78 45c-5,3 -10,3 -15,1l-80 -33c-4,-1 -5,-7 -1,-9l79 -46c4,-2 8,-2 13,-1z"/>
   <path class="fil1 str6" d="M4385 4143l82 33c4,2 4,8 0,10l-78 45c-4,3 -10,3 -15,1l-80 -33c-4,-2 -4,-7 -1,-10l79 -45c4,-2 9,-3 13,-1z"/>
   <path class="fil1 str6" d="M4128 4290l82 34c4,1 4,7 0,10l-78 44c-4,3 -10,3 -15,1l-80 -32c-4,-2 -5,-8 -1,-10l79 -46c4,-2 9,-2 13,-1z"/>
   <path class="fil1 str6" d="M4000 4364l81 33c4,2 5,8 1,10l-78 45c-5,3 -10,3 -16,1l-79 -33c-5,-1 -5,-7 -1,-10l79 -45c4,-2 8,-3 13,-1z"/>
   <path class="fil1 str6" d="M3871 4438l81 33c5,2 5,8 1,10l-78 45c-5,2 -10,3 -15,1l-80 -33c-4,-2 -5,-8 -1,-10l79 -45c4,-2 9,-3 13,-1z"/>
   <path class="fil1 str6" d="M3742 4512l82 33c4,2 5,7 1,10l-78 44c-5,3 -10,3 -16,1l-79 -32c-5,-2 -5,-8 -1,-10l79 -45c4,-3 8,-3 12,-1z"/>
  </g>
  <g id="_1038408912">
   <path class="fil1 str6" d="M5480 3706l81 33c5,2 5,8 1,10l-78 45c-5,3 -10,3 -15,1l-80 -33c-4,-1 -5,-7 -1,-10l79 -45c4,-2 9,-3 13,-1z"/>
   <path class="fil1 str6" d="M5351 3780l82 33c4,2 5,8 1,10l-78 45c-5,2 -10,3 -16,1l-79 -33c-5,-2 -5,-8 -1,-10l79 -45c4,-2 8,-3 12,-1z"/>
   <path class="fil1 str6" d="M5223 3854l81 33c5,2 5,7 1,10l-78 44c-5,3 -10,3 -15,1l-80 -32c-4,-2 -5,-8 -1,-10l79 -45c4,-3 9,-3 13,-1z"/>
   <path class="fil1 str6" d="M5094 3927l82 33c4,2 5,8 1,10l-78 45c-5,3 -10,3 -16,1l-80 -33c-4,-1 -4,-7 0,-9l79 -46c4,-2 8,-3 12,-1z"/>
   <path class="fil1 str6" d="M4966 4001l81 33c5,2 5,8 1,10l-78 45c-5,3 -10,3 -15,1l-80 -33c-4,-2 -5,-7 -1,-10l79 -45c4,-2 8,-3 13,-1z"/>
   <path class="fil1 str6" d="M4837 4075l82 33c4,2 4,8 1,10l-78 45c-5,2 -11,3 -16,0l-80 -32c-4,-2 -4,-8 0,-10l79 -45c3,-3 8,-3 12,-1z"/>
   <path class="fil1 str6" d="M4709 4148l81 34c4,1 5,7 1,10l-78 44c-5,3 -10,3 -15,1l-80 -32c-4,-2 -5,-8 -1,-10l79 -46c4,-2 8,-2 13,-1z"/>
   <path class="fil1 str6" d="M4580 4222l82 33c4,2 4,8 0,10l-78 45c-4,3 -10,3 -15,1l-80 -33c-4,-1 -5,-7 -1,-10l79 -45c4,-2 9,-3 13,-1z"/>
   <path class="fil1 str6" d="M4452 4296l81 33c4,2 5,8 1,10l-78 45c-5,2 -10,3 -15,1l-80 -33c-5,-2 -5,-8 -1,-10l79 -45c4,-2 8,-3 13,-1z"/>
   <path class="fil1 str6" d="M4323 4370l81 33c5,1 5,7 1,10l-78 44c-5,3 -10,3 -15,1l-80 -32c-4,-2 -5,-8 -1,-10l79 -45c4,-3 9,-3 13,-1z"/>
   <path class="fil1 str6" d="M4194 4443l82 33c4,2 5,8 1,10l-78 45c-5,3 -10,3 -16,1l-79 -33c-5,-1 -5,-7 -1,-9l79 -46c4,-2 8,-3 12,-1z"/>
   <path class="fil1 str6" d="M4066 4517l81 33c5,2 5,8 1,10l-78 45c-5,3 -10,3 -15,1l-80 -33c-4,-2 -5,-8 -1,-10l79 -45c4,-2 9,-3 13,-1z"/>
   <path class="fil1 str6" d="M3937 4591l82 33c4,2 5,8 1,10l-78 44c-5,3 -10,4 -16,1l-80 -32c-4,-2 -4,-8 0,-10l79 -45c4,-3 8,-3 12,-1z"/>
  </g>
  <g id="_1038345200">
   <path class="fil1 str6" d="M5634 3769l82 33c4,2 4,7 1,10l-78 44c-5,3 -11,3 -16,1l-80 -32c-4,-2 -4,-8 0,-10l79 -45c4,-3 8,-3 12,-1z"/>
   <path class="fil1 str6" d="M5506 3842l81 34c4,1 5,7 1,9l-78 45c-5,3 -10,3 -15,1l-80 -33c-4,-1 -5,-7 -1,-9l79 -46c4,-2 8,-3 13,-1z"/>
   <path class="fil1 str6" d="M5377 3916l82 33c4,2 4,8 0,10l-78 45c-4,3 -10,3 -15,1l-80 -33c-4,-2 -5,-7 -1,-10l79 -45c4,-2 9,-3 13,-1z"/>
   <path class="fil1 str6" d="M5249 3990l81 33c4,2 5,8 1,10l-78 45c-5,2 -10,3 -15,0l-80 -32c-5,-2 -5,-8 -1,-10l79 -45c4,-3 8,-3 13,-1z"/>
   <path class="fil1 str6" d="M5120 4063l81 34c5,1 5,7 1,10l-78 44c-5,3 -10,3 -15,1l-80 -32c-4,-2 -5,-8 -1,-10l79 -46c4,-2 9,-2 13,-1z"/>
   <path class="fil1 str6" d="M4991 4137l82 33c4,2 5,8 1,10l-78 45c-5,3 -10,3 -16,1l-79 -33c-5,-1 -5,-7 -1,-10l79 -45c4,-2 8,-3 12,-1z"/>
   <path class="fil1 str6" d="M4863 4211l81 33c5,2 5,8 1,10l-78 45c-5,2 -10,3 -15,1l-80 -33c-4,-2 -5,-8 -1,-10l79 -45c4,-2 9,-3 13,-1z"/>
   <path class="fil1 str6" d="M4734 4285l82 33c4,2 5,7 1,10l-78 44c-5,3 -10,3 -16,1l-80 -32c-4,-2 -4,-8 0,-10l79 -45c4,-3 8,-3 12,-1z"/>
   <path class="fil1 str6" d="M4606 4358l81 33c5,2 5,8 1,10l-78 45c-5,3 -10,3 -15,1l-80 -33c-4,-1 -5,-7 -1,-9l79 -46c4,-2 8,-3 13,-1z"/>
   <path class="fil1 str6" d="M4477 4432l82 33c4,2 4,8 1,10l-78 45c-5,3 -11,3 -16,1l-80 -33c-4,-2 -4,-7 0,-10l79 -45c3,-2 8,-3 12,-1z"/>
   <path class="fil1 str6" d="M4349 4506l81 33c4,2 5,8 1,10l-78 45c-5,2 -10,3 -15,0l-80 -32c-4,-2 -5,-8 -1,-10l79 -45c4,-3 8,-3 13,-1z"/>
   <path class="fil1 str6" d="M4220 4579l82 34c4,1 4,7 0,10l-78 44c-4,3 -10,3 -15,1l-80 -32c-4,-2 -5,-8 -1,-10l79 -46c4,-2 9,-2 13,-1z"/>
   <path class="fil1 str6" d="M4092 4653l81 33c4,2 5,8 1,10l-78 45c-5,3 -10,3 -16,1l-79 -33c-5,-1 -5,-7 -1,-10l79 -45c4,-2 8,-3 13,-1z"/>
  </g>
  <g id="_1038349424">
   <path class="fil1 str6" d="M5788 3831l82 33c4,2 5,8 1,10l-78 45c-5,3 -10,3 -16,1l-79 -33c-5,-2 -5,-7 -1,-10l79 -45c4,-2 8,-3 12,-1z"/>
   <path class="fil1 str6" d="M5660 3905l81 33c5,2 5,8 1,10l-78 45c-5,2 -10,3 -15,0l-80 -32c-4,-2 -5,-8 -1,-10l79 -45c4,-3 9,-3 13,-1z"/>
   <path class="fil1 str6" d="M5531 3978l82 34c4,1 5,7 1,10l-78 44c-5,3 -10,3 -16,1l-80 -32c-4,-2 -4,-8 0,-10l79 -46c4,-2 8,-2 12,-1z"/>
   <path class="fil1 str6" d="M5403 4052l81 33c5,2 5,8 1,10l-78 45c-5,3 -10,3 -15,1l-80 -33c-4,-1 -5,-7 -1,-10l79 -45c4,-2 8,-3 13,-1z"/>
   <path class="fil1 str6" d="M5274 4126l82 33c4,2 4,8 1,10l-78 45c-5,2 -11,3 -16,1l-80 -33c-4,-2 -4,-8 0,-10l79 -45c4,-2 8,-3 12,-1z"/>
   <path class="fil1 str6" d="M5146 4200l81 33c4,2 5,7 1,10l-78 44c-5,3 -10,3 -15,1l-80 -32c-4,-2 -5,-8 -1,-10l79 -45c4,-3 8,-3 13,-1z"/>
   <path class="fil1 str6" d="M5017 4273l82 34c4,1 4,7 0,9l-78 45c-4,3 -10,3 -15,1l-80 -33c-4,-1 -5,-7 -1,-9l79 -46c4,-2 9,-3 13,-1z"/>
   <path class="fil1 str6" d="M4889 4347l81 33c4,2 5,8 1,10l-78 45c-5,3 -10,3 -15,1l-80 -33c-5,-2 -5,-7 -1,-10l79 -45c4,-2 8,-3 13,-1z"/>
   <path class="fil1 str6" d="M4760 4421l81 33c5,2 5,8 1,10l-78 45c-5,2 -10,3 -15,0l-80 -32c-4,-2 -5,-8 -1,-10l79 -45c4,-3 9,-3 13,-1z"/>
   <path class="fil1 str6" d="M4631 4494l82 34c4,1 5,7 1,10l-78 44c-5,3 -10,3 -16,1l-79 -32c-5,-2 -5,-8 -1,-10l79 -46c4,-2 8,-2 12,-1z"/>
   <path class="fil1 str6" d="M4503 4568l81 33c5,2 5,8 1,10l-78 45c-5,3 -10,3 -15,1l-80 -33c-4,-1 -5,-7 -1,-10l79 -45c4,-2 9,-3 13,-1z"/>
   <path class="fil1 str6" d="M4374 4642l82 33c4,2 5,8 1,10l-78 45c-5,2 -10,3 -16,1l-80 -33c-4,-2 -4,-8 0,-10l79 -45c4,-2 8,-3 12,-1z"/>
   <path class="fil1 str6" d="M4246 4716l81 33c5,2 5,7 1,10l-78 44c-5,3 -10,3 -15,1l-80 -32c-4,-2 -5,-8 -1,-10l79 -45c4,-3 8,-3 13,-1z"/>
  </g>
  <g id="_1038352784">
   <path class="fil1 str6" d="M5943 3893l81 34c4,1 5,7 1,10l-78 44c-5,3 -10,3 -15,1l-80 -32c-4,-2 -5,-8 -1,-10l79 -46c4,-2 8,-2 13,-1z"/>
   <path class="fil1 str6" d="M5814 3967l82 33c4,2 4,8 0,10l-78 45c-4,3 -10,3 -15,1l-80 -33c-4,-1 -5,-7 -1,-10l79 -45c4,-2 9,-3 13,-1z"/>
   <path class="fil1 str6" d="M5686 4041l81 33c4,2 5,8 1,10l-78 45c-5,3 -10,3 -15,1l-80 -33c-5,-2 -5,-8 -1,-10l79 -45c4,-2 8,-3 13,-1z"/>
   <path class="fil1 str6" d="M5557 4115l81 33c5,2 5,7 1,10l-78 44c-5,3 -10,4 -15,1l-80 -32c-4,-2 -5,-8 -1,-10l79 -45c4,-3 9,-3 13,-1z"/>
   <path class="fil1 str6" d="M4657 4631l82 33c4,2 4,7 0,10l-78 44c-4,3 -10,3 -15,1l-80 -32c-4,-2 -5,-8 -1,-10l79 -45c4,-3 9,-3 13,-1z"/>
   <path class="fil1 str6" d="M4529 4704l81 34c4,1 5,7 1,9l-78 45c-5,3 -10,3 -15,1l-80 -33c-5,-1 -5,-7 -1,-9l79 -46c4,-2 8,-2 13,-1z"/>
   <path class="fil1 str6" d="M4400 4778l81 33c5,2 5,8 1,10l-78 45c-5,3 -10,3 -15,1l-80 -33c-4,-2 -5,-7 -1,-10l79 -45c4,-2 9,-3 13,-1z"/>
   <path class="fil1 str6" d="M5428 4188l82 34c4,1 5,7 1,9l-721 414c-5,2 -10,3 -15,1l-80 -33c-4,-2 -5,-8 -1,-10l722 -414c4,-2 8,-2 12,-1z"/>
  </g>
  <g id="_1038358608">
   <path class="fil2 str7" d="M5285 3662l82 34c4,1 4,7 0,9l-78 45c-4,3 -10,3 -15,1l-80 -32c-4,-2 -5,-8 -1,-10l79 -46c4,-2 9,-2 13,-1z"/>
   <path class="fil2 str7" d="M5157 3736l81 33c4,2 5,8 1,10l-78 45c-5,3 -10,3 -16,1l-79 -33c-5,-1 -5,-7 -1,-10l79 -45c4,-2 8,-3 13,-1z"/>
   <path class="fil2 str7" d="M5028 3810l81 33c5,2 5,8 1,10l-78 45c-5,2 -10,3 -15,1l-80 -33c-4,-2 -5,-8 -1,-10l79 -45c4,-2 9,-3 13,-1z"/>
   <path class="fil2 str7" d="M4771 3957l81 33c5,2 5,8 1,10l-78 45c-5,3 -10,3 -15,1l-80 -33c-4,-1 -5,-7 -1,-10l79 -45c4,-2 9,-3 13,-1z"/>
   <path class="fil2 str7" d="M4642 4031l82 33c4,2 5,8 1,10l-78 45c-5,3 -11,3 -16,1l-80 -33c-4,-2 -4,-8 0,-10l79 -45c4,-2 8,-3 12,-1z"/>
   <path class="fil2 str7" d="M4514 4105l81 33c4,2 5,7 1,10l-78 44c-5,3 -10,4 -15,1l-80 -32c-4,-2 -5,-8 -1,-10l79 -45c4,-3 8,-3 13,-1z"/>
   <path class="fil2 str7" d="M4385 4178l82 34c4,1 4,7 0,9l-78 45c-4,3 -10,3 -15,1l-80 -32c-4,-2 -4,-8 -1,-10l79 -46c4,-2 9,-2 13,-1z"/>
   <path class="fil2 str7" d="M4128 4326l82 33c4,2 4,8 0,10l-78 45c-4,2 -10,3 -15,1l-80 -33c-4,-2 -5,-8 -1,-10l79 -45c4,-3 9,-3 13,-1z"/>
   <path class="fil2 str7" d="M4000 4399l81 34c4,1 5,7 1,10l-78 44c-5,3 -10,3 -16,1l-79 -32c-5,-2 -5,-8 -1,-10l79 -46c4,-2 8,-2 13,-1z"/>
   <path class="fil2 str7" d="M3871 4473l81 33c5,2 5,8 1,10l-78 45c-5,3 -10,3 -15,1l-80 -33c-4,-1 -5,-7 -1,-10l79 -45c4,-2 9,-3 13,-1z"/>
   <path class="fil2 str7" d="M3742 4547l82 33c4,2 5,8 1,10l-78 45c-5,2 -10,3 -16,1l-79 -33c-5,-2 -5,-8 -1,-10l79 -45c4,-2 8,-3 12,-1z"/>
  </g>
  <g id="_1038361360">
   <path class="fil2 str7" d="M5480 3741l81 34c5,1 5,7 1,10l-78 44c-5,3 -10,3 -15,1l-80 -32c-4,-2 -5,-8 -1,-10l79 -46c4,-2 9,-2 13,-1z"/>
   <path class="fil2 str7" d="M5351 3815l82 33c4,2 5,8 1,10l-78 45c-5,3 -10,3 -16,1l-79 -33c-5,-1 -5,-7 -1,-10l79 -45c4,-2 8,-3 12,-1z"/>
   <path class="fil2 str7" d="M5223 3889l81 33c5,2 5,8 1,10l-78 45c-5,2 -10,3 -15,1l-80 -33c-4,-2 -5,-8 -1,-10l79 -45c4,-2 9,-3 13,-1z"/>
   <path class="fil2 str7" d="M5094 3963l82 33c4,2 5,7 1,10l-78 44c-5,3 -10,3 -16,1l-80 -32c-4,-2 -4,-8 0,-10l79 -45c4,-3 8,-3 12,-1z"/>
   <path class="fil2 str7" d="M4966 4036l81 34c5,1 5,7 1,9l-78 45c-5,3 -10,3 -15,1l-80 -33c-4,-1 -5,-7 -1,-9l79 -46c4,-2 8,-3 13,-1z"/>
   <path class="fil2 str7" d="M4837 4110l82 33c4,2 4,8 1,10l-78 45c-5,3 -11,3 -16,1l-80 -33c-4,-2 -4,-7 0,-10l79 -45c3,-2 8,-3 12,-1z"/>
   <path class="fil2 str7" d="M4709 4184l81 33c4,2 5,8 1,10l-78 45c-5,2 -10,3 -15,0l-80 -32c-4,-2 -5,-8 -1,-10l79 -45c4,-3 8,-3 13,-1z"/>
   <path class="fil2 str7" d="M4580 4257l82 34c4,1 4,7 0,10l-78 44c-4,3 -10,3 -15,1l-80 -32c-4,-2 -5,-8 -1,-10l79 -46c4,-2 9,-2 13,-1z"/>
   <path class="fil2 str7" d="M4452 4331l81 33c4,2 5,8 1,10l-78 45c-5,3 -10,3 -15,1l-80 -33c-5,-1 -5,-7 -1,-10l79 -45c4,-2 8,-3 13,-1z"/>
   <path class="fil2 str7" d="M4323 4405l81 33c5,2 5,8 1,10l-78 45c-5,2 -10,3 -15,1l-80 -33c-4,-2 -5,-8 -1,-10l79 -45c4,-2 9,-3 13,-1z"/>
   <path class="fil2 str7" d="M4194 4479l82 33c4,2 5,7 1,10l-78 44c-5,3 -10,3 -16,1l-79 -32c-5,-2 -5,-8 -1,-10l79 -45c4,-3 8,-3 12,-1z"/>
   <path class="fil2 str7" d="M4066 4552l81 33c5,2 5,8 1,10l-78 45c-5,3 -10,3 -15,1l-80 -33c-4,-1 -5,-7 -1,-9l79 -46c4,-2 9,-3 13,-1z"/>
   <path class="fil2 str7" d="M3937 4626l82 33c4,2 5,8 1,10l-78 45c-5,3 -10,3 -16,1l-80 -33c-4,-2 -4,-7 0,-10l79 -45c4,-2 8,-3 12,-1z"/>
  </g>
  <g id="_1077476288">
   <path class="fil2 str7" d="M5634 3804l82 33c4,2 4,8 1,10l-78 45c-5,2 -11,3 -16,1l-80 -33c-4,-2 -4,-8 0,-10l79 -45c4,-2 8,-3 12,-1z"/>
   <path class="fil2 str7" d="M5506 3878l81 33c4,2 5,7 1,10l-78 44c-5,3 -10,3 -15,1l-80 -32c-4,-2 -5,-8 -1,-10l79 -45c4,-3 8,-3 13,-1z"/>
   <path class="fil2 str7" d="M5377 3951l82 34c4,1 4,7 0,9l-78 45c-4,3 -10,3 -15,1l-80 -33c-4,-1 -5,-7 -1,-9l79 -46c4,-2 9,-2 13,-1z"/>
   <path class="fil2 str7" d="M5249 4025l81 33c4,2 5,8 1,10l-78 45c-5,3 -10,3 -15,1l-80 -33c-5,-2 -5,-7 -1,-10l79 -45c4,-2 8,-3 13,-1z"/>
   <path class="fil2 str7" d="M5120 4099l81 33c5,2 5,8 1,10l-78 45c-5,2 -10,3 -15,0l-80 -32c-4,-2 -5,-8 -1,-10l79 -45c4,-3 9,-3 13,-1z"/>
   <path class="fil2 str7" d="M4991 4172l82 34c4,1 5,7 1,10l-78 44c-5,3 -10,3 -16,1l-79 -32c-5,-2 -5,-8 -1,-10l79 -46c4,-2 8,-2 12,-1z"/>
   <path class="fil2 str7" d="M4863 4246l81 33c5,2 5,8 1,10l-78 45c-5,3 -10,3 -15,1l-80 -33c-4,-1 -5,-7 -1,-10l79 -45c4,-2 9,-3 13,-1z"/>
   <path class="fil2 str7" d="M4734 4320l82 33c4,2 5,8 1,10l-78 45c-5,2 -10,3 -16,1l-80 -33c-4,-2 -4,-8 0,-10l79 -45c4,-2 8,-3 12,-1z"/>
   <path class="fil2 str7" d="M4606 4394l81 33c5,2 5,7 1,10l-78 44c-5,3 -10,3 -15,1l-80 -32c-4,-2 -5,-8 -1,-10l79 -45c4,-3 8,-3 13,-1z"/>
   <path class="fil2 str7" d="M4477 4467l82 34c4,1 4,7 1,9l-78 45c-5,3 -11,3 -16,1l-80 -33c-4,-1 -4,-7 0,-9l79 -46c3,-2 8,-2 12,-1z"/>
   <path class="fil2 str7" d="M4349 4541l81 33c4,2 5,8 1,10l-78 45c-5,3 -10,3 -15,1l-80 -33c-4,-2 -5,-7 -1,-10l79 -45c4,-2 8,-3 13,-1z"/>
   <path class="fil2 str7" d="M4220 4615l82 33c4,2 4,8 0,10l-78 45c-4,2 -10,3 -15,0l-80 -32c-4,-2 -5,-8 -1,-10l79 -45c4,-3 9,-3 13,-1z"/>
   <path class="fil2 str7" d="M4092 4688l81 34c4,1 5,7 1,10l-78 44c-5,3 -10,3 -16,1l-79 -32c-5,-2 -5,-8 -1,-10l79 -46c4,-2 8,-2 13,-1z"/>
  </g>
  <g id="_1077480992">
   <path class="fil2 str7" d="M5788 3866l82 34c4,1 5,7 1,9l-78 45c-5,3 -10,3 -16,1l-79 -32c-5,-2 -5,-8 -1,-10l79 -46c4,-2 8,-2 12,-1z"/>
   <path class="fil2 str7" d="M5660 3940l81 33c5,2 5,8 1,10l-78 45c-5,3 -10,3 -15,1l-80 -33c-4,-2 -5,-7 -1,-10l79 -45c4,-2 9,-3 13,-1z"/>
   <path class="fil2 str7" d="M5531 4014l82 33c4,2 5,8 1,10l-78 45c-5,2 -10,3 -16,1l-80 -33c-4,-2 -4,-8 0,-10l79 -45c4,-3 8,-3 12,-1z"/>
   <path class="fil2 str7" d="M5403 4087l81 34c5,1 5,7 1,10l-78 44c-5,3 -10,3 -15,1l-80 -32c-4,-2 -5,-8 -1,-10l79 -46c4,-2 8,-2 13,-1z"/>
   <path class="fil2 str7" d="M5274 4161l82 33c4,2 4,8 1,10l-78 45c-5,3 -11,3 -16,1l-80 -33c-4,-1 -4,-7 0,-10l79 -45c4,-2 8,-3 12,-1z"/>
   <path class="fil2 str7" d="M5146 4235l81 33c4,2 5,8 1,10l-78 45c-5,3 -10,3 -15,1l-80 -33c-4,-2 -5,-8 -1,-10l79 -45c4,-2 8,-3 13,-1z"/>
   <path class="fil2 str7" d="M5017 4309l82 33c4,2 4,7 0,10l-78 44c-4,3 -10,4 -15,1l-80 -32c-4,-2 -5,-8 -1,-10l79 -45c4,-3 9,-3 13,-1z"/>
   <path class="fil2 str7" d="M4889 4382l81 34c4,1 5,7 1,9l-78 45c-5,3 -10,3 -15,1l-80 -32c-5,-2 -5,-8 -1,-10l79 -46c4,-2 8,-2 13,-1z"/>
   <path class="fil2 str7" d="M4760 4456l81 33c5,2 5,8 1,10l-78 45c-5,3 -10,3 -15,1l-80 -33c-4,-2 -5,-7 -1,-10l79 -45c4,-2 9,-3 13,-1z"/>
   <path class="fil2 str7" d="M4631 4530l82 33c4,2 5,8 1,10l-78 45c-5,2 -10,3 -16,0l-79 -32c-5,-2 -5,-8 -1,-10l79 -45c4,-3 8,-3 12,-1z"/>
   <path class="fil2 str7" d="M4503 4603l81 34c5,1 5,7 1,10l-78 44c-5,3 -10,3 -15,1l-80 -32c-4,-2 -5,-8 -1,-10l79 -46c4,-2 9,-2 13,-1z"/>
   <path class="fil2 str7" d="M4374 4677l82 33c4,2 5,8 1,10l-78 45c-5,3 -10,3 -16,1l-80 -33c-4,-1 -4,-7 0,-10l79 -45c4,-2 8,-3 12,-1z"/>
   <path class="fil2 str7" d="M4246 4751l81 33c5,2 5,8 1,10l-78 45c-5,2 -10,3 -15,1l-80 -33c-4,-2 -5,-8 -1,-10l79 -45c4,-2 8,-3 13,-1z"/>
  </g>
  <g id="_1077485888">
   <path class="fil2 str7" d="M5943 3929l81 33c4,2 5,8 1,10l-78 45c-5,2 -10,3 -15,1l-80 -33c-4,-2 -5,-8 -1,-10l79 -45c4,-2 8,-3 13,-1z"/>
   <path class="fil2 str7" d="M5814 4003l82 33c4,2 4,7 0,10l-78 44c-4,3 -10,3 -15,1l-80 -32c-4,-2 -5,-8 -1,-10l79 -45c4,-3 9,-3 13,-1z"/>
   <path class="fil2 str7" d="M5686 4076l81 33c4,2 5,8 1,10l-78 45c-5,3 -10,3 -15,1l-80 -33c-5,-1 -5,-7 -1,-9l79 -46c4,-2 8,-3 13,-1z"/>
   <path class="fil2 str7" d="M5557 4150l81 33c5,2 5,8 1,10l-78 45c-5,3 -10,3 -15,1l-80 -33c-4,-2 -5,-8 -1,-10l79 -45c4,-2 9,-3 13,-1z"/>
   <path class="fil2 str7" d="M4657 4666l82 33c4,2 4,8 0,10l-78 45c-4,3 -10,3 -15,1l-80 -33c-4,-2 -5,-8 -1,-10l79 -45c4,-2 9,-3 13,-1z"/>
   <path class="fil2 str7" d="M4529 4740l81 33c4,2 5,7 1,10l-78 44c-5,3 -10,4 -15,1l-80 -32c-5,-2 -5,-8 -1,-10l79 -45c4,-3 8,-3 13,-1z"/>
   <path class="fil2 str7" d="M4400 4813l81 34c5,1 5,7 1,9l-78 45c-5,3 -10,3 -15,1l-80 -32c-4,-2 -5,-8 -1,-10l79 -46c4,-2 9,-2 13,-1z"/>
   <path class="fil2 str7" d="M5428 4224l82 33c4,2 5,8 1,10l-721 413c-5,3 -10,3 -15,1l-80 -33c-4,-1 -5,-7 -1,-10l722 -413c4,-3 8,-3 12,-1z"/>
  </g>
  <path class="fil1 str3" d="M4179 4987l-341 196 821 332"/>
  <path class="fil1 str3" d="M4881 4731l0 36 515 208 0 684 492 199"/>
  <path class="fil1 str0" d="M5191 4589l565 229 0 596 1027 416"/>
  <path class="fil1 str1" d="M5683 4307l330 134 400 -230 858 348"/>
  <path class="fil3 str0" d="M4312 2701l-1850 1060c-24,13 -44,3 -44,-22l0 -1490c0,-30 2,-42 31,-59l1861 -1066c24,-14 47,-5 47,23l0 1495c0,38 -9,39 -45,59z"/>
  <path class="fil4" d="M4443 2234l-669 383c-24,15 -52,9 -52,-20l0 -1000c0,-24 7,-45 31,-58l676 -388c11,-6 22,-7 32,-2 10,5 15,14 15,26l0 1001c0,24 -9,45 -33,58z"/>
  <path class="fil5" d="M3620 3046l-949 544c-11,6 -22,6 -32,2 -10,-5 -15,-14 -15,-26l0 -728c0,-30 9,-47 38,-63l941 -539c22,-13 47,-1 47,23l0 738c0,21 -10,37 -30,49z"/>
  <path class="fil1 str0" d="M4558 2313l-666 381c-24,14 -49,3 -49,-22l0 -1000c0,-25 7,-45 31,-59l670 -383c11,-7 23,-7 32,-3 9,5 14,14 14,26l0 1001c0,24 -9,46 -32,59z"/>
  <path class="fil6" d="M3380 2292l-602 345c-10,6 -22,7 -31,5 -10,-4 -16,-14 -16,-29l0 -608c0,-20 8,-37 28,-48l602 -345c23,-13 47,-1 47,24l0 609c0,22 -6,35 -28,47z"/>
  <path class="fil7" d="M2783 2811l327 -187c31,-18 54,-6 60,17 6,21 -4,53 -31,69l-339 194c-62,35 -88,-52 -17,-93z"/>
  <path class="fil8" d="M3059 3226l-302 173c-6,3 -11,3 -16,1 -5,-3 -8,-7 -8,-13l0 -306c0,-10 5,-18 14,-23l302 -173c6,-3 11,-3 16,-1 5,3 7,7 7,13l0 305c0,11 -3,18 -13,24z"/>
  <path class="fil9" d="M3929 1714l331 -189c34,-20 56,-6 60,19 5,21 -4,51 -30,66l-340 195c-35,20 -57,2 -60,-24 -2,-21 7,-48 39,-67z"/>
  <path class="fil9" d="M4187 1781l-253 145c-18,11 -22,37 -16,52 5,12 18,15 30,8l250 -143c22,-13 27,-33 24,-48 -3,-16 -19,-23 -35,-14z"/>
  <path class="fil10" d="M2890 2095c-39,11 -71,-12 -71,-52 0,-39 32,-80 71,-91 40,-11 72,12 72,52 0,39 -32,80 -72,91z"/>
  <path class="fil10" d="M2807 2174l0 58c0,39 82,18 136,-19 24,-16 46,-42 46,-57l0 -59c0,-39 -53,-40 -99,-20 -44,20 -83,59 -83,97z"/>
  <path class="fil10" d="M3904 2809c-15,3 -27,-7 -27,-22 0,-16 12,-30 27,-32 14,-3 26,8 26,23 0,15 -12,29 -26,31z"/>
  <path class="fil10" d="M3995 2757c-14,2 -26,-8 -26,-23 0,-15 12,-29 26,-32 15,-2 27,8 27,23 0,15 -12,29 -27,32z"/>
  <path class="fil10" d="M4087 2704c-14,3 -26,-7 -26,-23 0,-15 12,-29 26,-31 15,-3 27,8 27,23 0,15 -12,29 -27,31z"/>
  <path class="fil10" d="M4179 2652c-15,2 -27,-8 -27,-23 0,-15 12,-29 27,-32 15,-2 26,8 26,23 0,15 -11,29 -26,32z"/>
  <path class="fil10" d="M2513 2289c-14,2 -26,-8 -26,-23 0,-15 12,-29 26,-32 15,-2 27,8 27,23 0,15 -12,29 -27,32z"/>
  <path class="fil1 str8" d="M3325 3074c-47,18 -85,-6 -85,-55 0,-48 38,-103 85,-121 47,-19 85,5 85,54 0,49 -38,103 -85,122z"/>
  <path class="fil1 str1" d="M4195 2893c-31,12 -56,-4 -56,-36 0,-33 25,-69 56,-81 31,-12 57,4 57,36 0,32 -26,68 -57,81z"/>
  <path class="fil10" d="M2513 2430c-14,3 -26,-8 -26,-23 0,-15 12,-29 26,-32 15,-2 27,8 27,23 0,15 -12,30 -27,32z"/>
  <path class="fil10" d="M2513 2571c-14,3 -26,-7 -26,-23 0,-15 12,-29 26,-31 15,-3 27,8 27,23 0,15 -12,29 -27,31z"/>
  <path class="fil1 str3" d="M3074 5301l-81 47 110 44 81 -46 -110 -45z"/>
  <path class="fil1 str3" d="M3522 2341l-602 345c-25,14 -46,3 -46,-24l0 -611c0,-18 9,-35 27,-45l602 -344c22,-13 47,-1 47,23l0 609c0,22 -6,35 -28,47z"/>
  <path class="fil1 str6" d="M3759 3113l-950 544c-23,13 -47,12 -47,-17l0 -749c0,-29 8,-31 35,-47l944 -541c11,-6 22,-7 32,-2 10,5 15,14 15,26l0 750c0,21 -10,25 -29,36z"/>
  <path class="fil1 str0" d="M4091 3956l-428 245c-40,23 -37,62 1,79 30,13 83,15 144,-19l451 -259c82,-48 -39,-120 -168,-46z"/>
  <path class="fil1 str3" d="M4907 4678l0 39 -118 67 0 -39 118 -67z"/>
 </g>
</svg>
