<?xml version="1.0" encoding="UTF-8"?>
<!DOCTYPE svg PUBLIC "-//W3C//DTD SVG 1.0//EN" "http://www.w3.org/TR/2001/REC-SVG-20010904/DTD/svg10.dtd">
<!-- Creator: CorelDRAW X8 -->
<svg xmlns="http://www.w3.org/2000/svg" xml:space="preserve" width="582.083mm" height="476.25mm" version="1.0" style="shape-rendering:geometricPrecision; text-rendering:geometricPrecision; image-rendering:optimizeQuality; fill-rule:evenodd; clip-rule:evenodd"
viewBox="0 0 7740 6333"
 xmlns:xlink="http://www.w3.org/1999/xlink">
 <defs>
  <style type="text/css">
   <![CDATA[
    .str4 {stroke:lime;stroke-width:7.32608}
    .str3 {stroke:aqua;stroke-width:7.32608}
    .str5 {stroke:fuchsia;stroke-width:7.32608}
    .str1 {stroke:white;stroke-width:7.32608}
    .str2 {stroke:white;stroke-width:7.32608}
    .str0 {stroke:black;stroke-width:3.16646}
    .fil1 {fill:none}
    .fil0 {fill:url(#id0)}
   ]]>
  </style>
  <radialGradient id="id0" gradientUnits="userSpaceOnUse" gradientTransform="matrix(1.05263 -0 -0 0.349753 -216 2306)" cx="4102.32" cy="3546.43" r="4023.75" fx="4102.32" fy="3546.43">
   <stop offset="0" style="stop-opacity:1; stop-color:#66084F"/>
   <stop offset="1" style="stop-opacity:1; stop-color:#263942"/>
  </radialGradient>
 </defs>
 <g id="Camada_x0020_1">
  <metadata id="CorelCorpID_0Corel-Layer"/>
  <path class="fil0" d="M0 0l7740 0 0 6333 -7740 0 0 -6333z"/>
  <path class="fil1 str0" d="M3554 3307c568,32 565,-508 1002,28 276,339 784,-183 1026,-331 170,-104 780,-623 931,-636l-54 -30"/>
  <path class="fil1 str0" d="M4219 4990c7,2 -196,84 -149,107 169,81 1154,547 1429,616"/>
  <path class="fil1 str0" d="M5490 4598c-19,117 193,230 397,69 362,-286 889,402 1105,442"/>
  <path class="fil1 str0" d="M5328 4948c129,-111 476,-371 660,-211 206,180 675,195 207,574 -166,135 -648,-322 -736,-367 -9,-5 -45,2 31,-24"/>
  <path class="fil1 str0" d="M5348 3768c533,-241 416,-557 996,-129 283,208 156,-34 620,-194 46,-16 114,-92 140,-138"/>
  <path class="fil1 str0" d="M5974 3274c-481,-135 -8,-221 169,-386 158,-147 457,-54 627,29 86,41 131,286 -12,349 -314,138 -421,261 -754,119"/>
  <path class="fil1 str0" d="M2586 2338c-78,40 -682,339 -788,190 -192,-269 -111,-553 -677,-395 -78,22 -237,-406 -301,-493"/>
  <path class="fil1 str0" d="M2444 2124c-542,137 -421,-151 -694,-524 -14,-20 -144,-314 -174,-363"/>
  <path class="fil1 str0" d="M3179 1469c-32,-21 -299,-223 -292,-303"/>
  <path class="fil1 str0" d="M4420 2043c28,2 430,-114 295,-255 -127,-133 684,-419 745,-488l30 70"/>
  <path class="fil1 str0" d="M5168 1693c66,-135 -233,139 -233,-296 0,-264 -89,-355 204,-343 239,11 132,640 50,646 -22,1 -27,5 -21,-7z"/>
  <path class="fil1 str0" d="M5278 2033c76,-21 492,-201 476,-271 -87,-400 242,-287 574,-433 65,-28 328,-158 372,-193"/>
  <path class="fil1 str0" d="M4289 1116c496,-334 473,-50 31,-750"/>
  <path class="fil1 str0" d="M4449 3472c279,-115 -89,319 676,-81 291,-152 588,162 867,268 90,34 554,309 588,309"/>
  <path class="fil1 str0" d="M2733 4083c-265,143 -682,434 -789,439 -200,8 -468,-64 -651,-24 -255,55 -396,226 -692,333"/>
  <path class="fil1 str1" d="M3564 3267l-840 481 0 73 835 338 839 -482 0 -72 -834 -338z"/>
  <path class="fil1 str1" d="M6253 3882l0 67 -1906 1093 -1000 -405 0 -67 1905 -1093 1001 405z"/>
  <path class="fil1 str2" d="M2337 3879l2039 -1170 0 -1740 -2039 1169 0 1741z"/>
  <path class="fil1 str3" d="M2469 4554l-456 262c-5,2 -7,7 -7,12 1,5 4,9 8,10l684 278c10,4 19,2 28,-3l461 -264c4,-2 7,-7 6,-12 0,-5 -3,-9 -8,-11l-679 -275c-14,-5 -23,-5 -37,3z"/>
  <path class="fil1 str3" d="M2006 4828l0 291c0,6 0,11 7,13l679 276c14,5 22,4 34,-3l458 -262c8,-5 9,-9 9,-18l0 -288"/>
  <path class="fil1 str3" d="M2377 5372l-103 59 91 37 103 -59 -91 -37z"/>
  <path class="fil1 str3" d="M2540 5438l-103 59 91 37 103 -59 -91 -37z"/>
  <path class="fil1 str3" d="M2755 4822l-103 59 91 37 103 -59 -91 -37z"/>
  <path class="fil1 str3" d="M2905 4883l-103 59 91 37 103 -59 -91 -37z"/>
  <path class="fil1 str3" d="M3065 4948l-103 59 91 37 103 -59 -91 -37z"/>
  <path class="fil1 str3" d="M3228 5014l-103 59 92 37 102 -59 -91 -37z"/>
  <path class="fil1 str3" d="M2712 5121l0 293"/>
  <path class="fil1 str3" d="M3055 5426l403 150 4 146 -570 327"/>
  <path class="fil1 str3" d="M2985 5358l-80 47 110 44 80 -46 -110 -45z"/>
  <path class="fil1 str3" d="M2042 5147l0 47 649 262c23,10 28,5 49,-7l411 -236 0 -51"/>
  <path class="fil1 str3" d="M3155 5159l-659 -267c-5,-2 -9,-2 -14,1l-440 252"/>
  <path class="fil1 str1" d="M2501 5702l-495 -201c-10,-4 -11,-17 -2,-22l161 -93"/>
  <path class="fil1 str1" d="M2646 5619l-298 171 260 105 299 -171 -261 -105z"/>
  <path class="fil1 str3" d="M2066 5246l-103 59 92 37 103 -59 -92 -37z"/>
  <path class="fil1 str3" d="M2216 5307l-103 59 92 37 103 -59 -92 -37z"/>
  <path class="fil1 str3" d="M3104 4963l134 -77c10,-5 16,-6 27,-2l300 122c2,1 3,1 5,1l150 0"/>
  <path class="fil1 str3" d="M3188 5242l-80 46 110 45 80 -46 -110 -45z"/>
  <path class="fil1 str3" d="M2805 6019c-62,0 -113,36 -113,80 0,44 51,79 113,79 62,0 113,-35 113,-79 0,-44 -51,-80 -113,-80z"/>
  <path class="fil1 str4" d="M2627 5413l-201 116c-3,2 -4,5 -4,8 0,4 2,7 5,8l172 69c5,3 12,2 17,-1l200 -115c3,-2 5,-5 5,-9 -1,-3 -3,-6 -6,-7l-171 -70c-6,-2 -11,-2 -17,1z"/>
  <path class="fil1 str4" d="M2819 5727l-176 -71c-5,-2 -10,-2 -15,1l-204 117"/>
  <path class="fil1 str4" d="M2422 5537l0 230c0,10 2,12 13,17l167 67c4,2 7,2 11,0l198 -114c7,-4 10,-4 10,-12l0 -236"/>
  <path class="fil1 str4" d="M2607 5618l0 235"/>
  <path class="fil1 str3" d="M3190 5138l-705 -286c-6,-2 -13,-2 -19,1l-460 264"/>
  <path class="fil1 str3" d="M2227 3763l-560 -227 -709 406"/>
  <path class="fil1 str3" d="M1640 3210l-74 42c-2,2 -3,1 0,2l642 260 74 -43c2,-1 2,-1 0,-2l-642 -259z"/>
  <path class="fil1 str3" d="M1564 3253l0 51 641 260c3,1 3,2 3,-1l0 -49"/>
  <path class="fil1 str3" d="M1468 3308l-73 42c-4,2 -4,2 0,3l640 260 74 -43c3,-1 3,-1 0,-2l-641 -260z"/>
  <path class="fil1 str3" d="M1392 3352l0 51 642 260c2,1 1,1 1,-1l0 -49"/>
  <path class="fil1 str3" d="M1296 3407l-75 43c-2,1 -2,1 0,2l642 259 75 -42c2,-1 2,-1 0,-2l-642 -260z"/>
  <path class="fil1 str3" d="M1220 3451l0 51 642 260c1,1 1,1 1,-1l0 -50"/>
  <path class="fil1 str3" d="M1124 3506l-74 42c-3,2 -3,1 -1,2l642 260 74 -42c3,-2 3,-1 0,-2l-641 -260z"/>
  <path class="fil1 str3" d="M1047 3550l0 51 643 260c1,0 1,1 1,-2l0 -49"/>
  <path class="fil1 str3" d="M951 3605l-74 42c-2,1 -2,1 0,2l642 260 74 -43c2,-1 2,-1 0,-2l-642 -259z"/>
  <path class="fil1 str3" d="M1519 4169l0 -260"/>
  <path class="fil1 str3" d="M875 3648l0 253c0,7 4,9 11,12l615 249c11,4 20,6 31,-1l743 -426c6,-3 9,-4 9,-11l0 -254"/>
  <path class="fil1 str3" d="M1691 3861l-96 55 0 -51"/>
  <path class="fil1 str3" d="M1863 3763l-96 55 0 -52"/>
  <path class="fil1 str3" d="M2035 3664l-96 55 0 -51"/>
  <path class="fil1 str3" d="M2208 3565l-96 55 0 -51"/>
  <path class="fil1 str3" d="M959 3939l0 82 538 218c19,7 31,6 49,-4l58 -33m267 -153l358 -206 0 -82"/>
  <path class="fil1 str3" d="M1564 3304l-44 26m-128 73l-44 25m-128 74l-44 25m-129 74l-43 25"/>
  <g id="_1000024528">
   <path class="fil1 str1" d="M6918 2509l0 95"/>
   <path class="fil1 str1" d="M6801 2467l-130 74c-4,3 -6,6 -5,11 0,4 3,7 7,9l86 35c7,3 17,2 23,-2l130 -75c4,-2 6,-6 6,-10 0,-4 -3,-8 -7,-9l-85 -35c-9,-3 -17,-3 -25,2z"/>
   <path class="fil1 str1" d="M6849 2556l-119 -48"/>
   <path class="fil1 str1" d="M6849 2556l0 86"/>
   <path class="fil1 str1" d="M6771 2601l0 82"/>
   <path class="fil1 str1" d="M6666 2552l0 90"/>
   <path class="fil1 str1" d="M6801 2522l-130 74c-4,2 -6,6 -5,11 0,4 3,7 7,9l86 35c7,3 17,2 23,-2l130 -75c4,-2 6,-6 6,-10 0,-4 -3,-8 -7,-9l-85 -35c-9,-4 -17,-3 -25,2z"/>
  </g>
  <path class="fil1 str4" d="M1810 4032l-201 115c-3,2 -5,5 -5,9 0,3 2,6 6,7l171 70c6,2 12,1 17,-2l201 -115c3,-2 4,-5 4,-8 0,-4 -2,-7 -5,-8l-172 -69c-5,-3 -11,-2 -16,1z"/>
  <path class="fil1 str4" d="M2002 4345l-176 -71c-5,-2 -11,-1 -16,1l-204 118"/>
  <path class="fil1 str4" d="M1604 4156l0 229c0,11 2,13 13,17l167 68c4,1 8,1 11,-1l199 -114c3,-2 6,-3 7,-4 2,-2 2,-4 2,-8l0 -235"/>
  <path class="fil1 str4" d="M1789 4236l0 235"/>
  <path class="fil1 str3" d="M6083 1497l-475 272c-8,4 -12,12 -11,20 1,9 6,16 13,19l520 210c12,5 22,4 33,-2l475 -272c7,-4 11,-12 10,-20 0,-9 -5,-15 -13,-19l-520 -210c-11,-5 -22,-4 -32,2z"/>
  <path class="fil1 str3" d="M6646 1897l-534 -217c-8,-3 -17,-2 -24,2l-488 280"/>
  <path class="fil1 str3" d="M5597 1789l0 170c0,12 4,12 14,16l512 207c13,6 31,5 44,-2l468 -269c12,-6 13,-8 13,-21l0 -166"/>
  <path class="fil1 str3" d="M6147 2025l0 158"/>
  <path class="fil1 str3" d="M5953 1714l-178 102c-3,2 -4,4 -4,7 0,3 2,6 5,7l152 62c5,2 10,1 15,-2l178 -102c2,-1 4,-4 4,-7 -1,-3 -2,-6 -5,-7l-152 -61c-5,-2 -10,-2 -15,1z"/>
  <path class="fil1 str3" d="M5588 2012l-103 59 91 37 103 -59 -91 -37z"/>
  <path class="fil1 str1" d="M6769 2009l-298 171 261 105 298 -171 -261 -105z"/>
  <path class="fil1 str4" d="M6751 1803l-202 116c-3,2 -4,5 -4,8 0,4 2,6 6,8l171 69c6,2 12,1 17,-1l200 -115c3,-2 5,-5 5,-9 0,-3 -2,-6 -6,-7l-171 -70c-5,-2 -11,-2 -16,1z"/>
  <path class="fil1 str4" d="M6942 2117l-175 -71c-6,-2 -11,-2 -16,1l-204 117"/>
  <path class="fil1 str4" d="M6545 1927l0 230c0,10 2,12 13,17l167 67c4,2 8,2 11,0l198 -114c7,-4 10,-5 10,-12l0 -236"/>
  <path class="fil1 str4" d="M6730 2008l0 234"/>
  <path class="fil1 str3" d="M5725 2068l-103 59 92 37 103 -59 -92 -37z"/>
  <path class="fil1 str3" d="M5862 2123l-103 59 92 37 103 -59 -92 -37z"/>
  <path class="fil1 str3" d="M6000 2179l-103 59 91 37 103 -59 -91 -37z"/>
  <path class="fil1 str0" d="M3258 5310l601 226 0 289 -346 223"/>
  <path class="fil1 str0" d="M2009 5323l-734 480"/>
  <path class="fil1 str3" d="M4780 1858l-456 262c-5,3 -7,7 -7,12 1,5 4,9 8,11l684 277c10,4 19,3 28,-2l461 -265c4,-2 7,-7 6,-12 0,-4 -3,-9 -8,-10l-679 -275c-14,-6 -23,-5 -37,2z"/>
  <path class="fil1 str3" d="M4317 2132l0 819c0,6 0,11 7,14l679 275c14,5 22,4 34,-3l458 -262c8,-5 9,-9 9,-18l0 -816"/>
  <path class="fil1 str3" d="M4688 3204l-103 59 91 37 103 -59 -91 -37z"/>
  <path class="fil1 str3" d="M5066 2654l-103 59 91 37 103 -59 -91 -37z"/>
  <path class="fil1 str3" d="M5216 2715l-103 59 91 37 103 -59 -91 -37z"/>
  <path class="fil1 str3" d="M5376 2780l-103 59 91 37 103 -59 -91 -37z"/>
  <path class="fil1 str3" d="M5539 2846l-103 59 92 37 103 -59 -92 -37z"/>
  <path class="fil1 str3" d="M5023 2426l0 820"/>
  <path class="fil1 str3" d="M5296 3191l-80 46 110 44 80 -46 -110 -44z"/>
  <path class="fil1 str3" d="M4354 2979l0 47 648 262c23,10 28,5 49,-7l411 -236 0 -51"/>
  <path class="fil1 str3" d="M5466 2991l-659 -267c-4,-2 -9,-1 -14,1l-439 252"/>
  <path class="fil1 str1" d="M4812 3534l-495 -201c-10,-4 -11,-17 -2,-22l161 -92"/>
  <path class="fil1 str3" d="M4377 3078l-102 59 91 37 103 -59 -92 -37z"/>
  <path class="fil1 str3" d="M4527 3139l-103 59 92 37 103 -59 -92 -37z"/>
  <path class="fil1 str3" d="M5499 3074l-80 46 110 45 80 -46 -110 -45z"/>
  <path class="fil1 str0" d="M5437 2290c-69,53 -239,154 -326,181 -86,26 264,-206 337,-200"/>
  <path class="fil1 str0" d="M5153 3090c-99,125 -88,-219 16,-90 34,42 -16,86 -35,107"/>
  <path class="fil1 str0" d="M5259 3053c-27,0 -21,-16 -19,-47 0,-4 39,-43 36,17 -1,8 11,21 0,22"/>
  <path class="fil1 str0" d="M5339 3010c-27,17 -21,-3 -19,-32 0,-12 23,-35 20,25 0,6 5,3 -1,7z"/>
  <path class="fil1 str3" d="M2798 3803l-147 84c-5,3 -7,7 -7,12 1,5 4,9 8,10l286 116c7,3 14,2 21,-1l147 -85c9,-5 8,-18 -1,-22l-287 -116c-7,-3 -13,-2 -20,2z"/>
  <path class="fil1 str3" d="M3112 4024l-293 -119c-5,-2 -10,-1 -14,1l-159 91"/>
  <path class="fil1 str3" d="M2645 3897l0 101c0,6 1,11 7,14l283 115c9,3 18,2 26,-2l144 -83c4,-2 7,-6 7,-11l0 -107"/>
  <path class="fil1 str3" d="M2948 4029l0 103"/>
  <g id="_835479360">
   <path class="fil1 str3" d="M4520 3408l0 89"/>
   <path class="fil1 str3" d="M4629 3350l127 52c8,3 10,14 2,18l-82 47c-8,5 -17,5 -24,2l-125 -51c-9,-3 -10,-14 -1,-19l83 -48c9,-5 12,-4 20,-1z"/>
   <path class="fil1 str3" d="M4588 3442l111 -64"/>
   <path class="fil1 str3" d="M4588 3442l0 85"/>
   <path class="fil1 str3" d="M4664 3473l0 77"/>
   <path class="fil1 str3" d="M4763 3410l0 89"/>
   <path class="fil1 str3" d="M4629 3403l127 51c8,3 10,14 2,18l-82 48c-8,4 -17,4 -24,1l-125 -50c-9,-4 -10,-15 -1,-20l83 -48c9,-4 12,-3 20,0z"/>
  </g>
  <path class="fil1 str3" d="M4526 2827l0 158 -153 -62 0 -158 153 62z"/>
  <g id="_843845616">
   <path class="fil1 str3" d="M970 4243l0 89"/>
   <path class="fil1 str3" d="M1079 4185l127 51c7,3 9,14 2,18l-83 48c-7,4 -16,4 -24,1l-125 -50c-8,-4 -9,-15 0,-20l83 -48c8,-4 12,-3 20,0z"/>
   <path class="fil1 str3" d="M1037 4277l112 -64"/>
   <path class="fil1 str3" d="M1037 4277l0 85"/>
   <path class="fil1 str3" d="M1114 4308l0 77"/>
   <path class="fil1 str3" d="M1212 4244l0 89"/>
   <path class="fil1 str3" d="M1079 4237l127 52c7,3 9,14 2,18l-83 47c-7,5 -16,5 -24,2l-125 -51c-8,-3 -9,-14 0,-19l83 -48c8,-5 12,-4 20,-1z"/>
  </g>
  <g id="_843847984">
   <path class="fil1 str5" d="M5286 3606l81 33c4,2 4,8 1,10l-78 44c-5,3 -10,3 -15,1l-80 -32c-4,-2 -5,-8 -1,-10l79 -45c4,-2 8,-3 13,-1z"/>
   <path class="fil1 str5" d="M5158 3679l81 33c4,2 4,8 1,10l-78 45c-5,3 -10,3 -15,1l-80 -33c-4,-1 -5,-7 -1,-10l79 -45c4,-2 8,-2 13,-1z"/>
   <path class="fil1 str5" d="M5030 3753l81 33c4,2 4,7 0,10l-77 44c-5,3 -10,3 -15,1l-80 -32c-4,-2 -5,-8 -1,-10l79 -45c4,-3 8,-3 13,-1z"/>
   <path class="fil1 str5" d="M4902 3826l81 33c4,2 4,8 0,10l-77 45c-5,2 -10,3 -16,1l-79 -33c-4,-2 -5,-8 -1,-10l79 -45c4,-2 8,-3 13,-1z"/>
   <path class="fil1 str5" d="M4773 3900l82 33c4,1 4,7 0,10l-77 44c-5,3 -10,3 -16,1l-79 -33c-4,-1 -5,-7 -1,-9l79 -45c4,-3 8,-3 12,-1z"/>
   <path class="fil1 str5" d="M4645 3973l82 33c4,2 4,8 0,10l-77 44c-5,3 -10,3 -16,1l-79 -32c-4,-2 -5,-8 -1,-10l79 -45c4,-2 8,-3 12,-1z"/>
   <path class="fil1 str5" d="M4517 4046l82 33c4,2 4,8 0,10l-77 45c-5,3 -10,3 -16,1l-79 -33c-4,-1 -5,-7 -1,-10l79 -45c4,-2 8,-2 12,-1z"/>
   <path class="fil1 str5" d="M4389 4120l81 33c5,2 5,7 1,10l-77 44c-5,3 -10,3 -16,1l-79 -32c-4,-2 -5,-8 -1,-10l79 -45c4,-2 8,-3 12,-1z"/>
   <path class="fil1 str5" d="M4261 4193l81 33c5,2 5,8 1,10l-77 45c-5,2 -10,3 -16,1l-79 -33c-4,-2 -5,-7 -1,-10l79 -45c4,-2 8,-3 12,-1z"/>
   <path class="fil1 str5" d="M4133 4267l81 33c5,1 5,7 1,10l-77 44c-5,3 -10,3 -16,1l-79 -32c-5,-2 -5,-8 -1,-10l79 -45c4,-3 8,-3 12,-1z"/>
   <path class="fil1 str5" d="M4005 4340l81 33c5,2 5,8 1,10l-77 44c-5,3 -11,4 -16,1l-79 -32c-5,-2 -5,-8 -1,-10l79 -45c4,-2 8,-3 12,-1z"/>
  </g>
  <g id="_843868560">
   <path class="fil1 str5" d="M5439 3668l81 33c5,2 5,8 1,10l-78 45c-4,2 -10,3 -15,0l-79 -32c-5,-2 -5,-8 -1,-10l79 -45c3,-2 8,-3 12,-1z"/>
   <path class="fil1 str5" d="M5311 3742l81 33c5,1 5,7 1,9l-78 45c-4,3 -10,3 -15,1l-79 -33c-5,-1 -5,-7 -1,-9l78 -45c4,-3 9,-3 13,-1z"/>
   <path class="fil1 str5" d="M5183 3815l81 33c5,2 5,8 1,10l-78 44c-4,3 -10,3 -15,1l-79 -32c-5,-2 -5,-8 -1,-10l78 -45c4,-2 9,-3 13,-1z"/>
   <path class="fil1 str5" d="M5055 3888l81 33c4,2 5,8 1,10l-78 45c-4,3 -10,3 -15,1l-79 -33c-5,-1 -5,-7 -1,-10l78 -45c4,-2 9,-2 13,-1z"/>
   <path class="fil1 str5" d="M4927 3962l81 33c4,2 5,7 1,10l-78 44c-4,3 -10,3 -15,1l-79 -32c-5,-2 -5,-8 -1,-10l78 -45c4,-3 9,-3 13,-1z"/>
   <path class="fil1 str5" d="M4799 4035l81 33c4,2 5,8 1,10l-78 45c-5,2 -10,3 -15,1l-80 -33c-4,-2 -4,-7 0,-10l78 -45c4,-2 9,-3 13,-1z"/>
   <path class="fil1 str5" d="M4671 4109l81 33c4,1 5,7 1,10l-78 44c-5,3 -10,3 -15,1l-80 -32c-4,-2 -4,-8 0,-10l78 -45c4,-3 9,-3 13,-1z"/>
   <path class="fil1 str5" d="M4543 4182l81 33c4,2 5,8 1,10l-78 44c-5,3 -10,4 -15,1l-80 -32c-4,-2 -4,-8 0,-10l78 -45c4,-2 9,-3 13,-1z"/>
   <path class="fil1 str5" d="M4415 4255l81 33c4,2 5,8 1,10l-78 45c-5,3 -10,3 -15,1l-80 -33c-4,-1 -4,-7 0,-10l78 -45c4,-2 9,-2 13,-1z"/>
   <path class="fil1 str5" d="M4287 4329l81 33c4,2 5,8 1,10l-78 44c-5,3 -10,3 -15,1l-80 -32c-4,-2 -4,-8 0,-10l78 -45c4,-2 9,-3 13,-1z"/>
   <path class="fil1 str5" d="M4159 4402l81 33c4,2 5,8 1,10l-78 45c-5,2 -10,3 -15,1l-80 -33c-4,-2 -4,-7 -1,-10l79 -45c4,-2 9,-3 13,-1z"/>
  </g>
  <g id="_575361488">
   <path class="fil1 str5" d="M5593 3730l81 33c4,2 5,8 1,10l-78 45c-5,3 -10,3 -15,1l-80 -33c-4,-1 -4,-7 -1,-10l79 -45c4,-2 8,-2 13,-1z"/>
   <path class="fil1 str5" d="M5465 3804l81 33c4,2 5,7 1,10l-78 44c-5,3 -10,3 -15,1l-80 -32c-4,-2 -5,-8 -1,-10l79 -45c4,-3 8,-3 13,-1z"/>
   <path class="fil1 str5" d="M5337 3877l81 33c4,2 5,8 1,10l-78 45c-5,2 -10,3 -15,1l-80 -33c-4,-2 -5,-8 -1,-10l79 -45c4,-2 8,-3 13,-1z"/>
   <path class="fil1 str5" d="M5209 3951l81 33c4,1 5,7 1,9l-78 45c-5,3 -10,3 -15,1l-80 -33c-4,-1 -5,-7 -1,-9l79 -45c4,-3 8,-3 13,-1z"/>
   <path class="fil1 str5" d="M5081 4024l81 33c4,2 5,8 1,10l-78 44c-5,3 -10,3 -15,1l-80 -32c-4,-2 -5,-8 -1,-10l79 -45c4,-2 8,-3 13,-1z"/>
   <path class="fil1 str5" d="M4953 4097l81 33c4,2 5,8 1,10l-78 45c-5,3 -10,3 -15,1l-80 -33c-4,-1 -5,-7 -1,-10l79 -45c4,-2 8,-2 13,-1z"/>
   <path class="fil1 str5" d="M4825 4171l81 33c4,2 4,7 1,10l-78 44c-5,3 -10,3 -15,1l-80 -32c-4,-2 -5,-8 -1,-10l79 -45c4,-3 8,-3 13,-1z"/>
   <path class="fil1 str5" d="M4697 4244l81 33c4,2 4,8 1,10l-78 45c-5,2 -10,3 -15,1l-80 -33c-4,-2 -5,-7 -1,-10l79 -45c4,-2 8,-3 13,-1z"/>
   <path class="fil1 str5" d="M4569 4318l81 33c4,1 4,7 0,10l-77 44c-5,3 -10,3 -16,1l-79 -32c-4,-2 -5,-8 -1,-10l79 -45c4,-3 8,-3 13,-1z"/>
   <path class="fil1 str5" d="M4440 4391l82 33c4,2 4,8 0,10l-77 44c-5,3 -10,4 -16,1l-79 -32c-4,-2 -5,-8 -1,-10l79 -45c4,-2 8,-3 12,-1z"/>
   <path class="fil1 str5" d="M4312 4464l82 34c4,1 4,7 0,9l-77 45c-5,3 -10,3 -16,1l-79 -33c-4,-1 -5,-7 -1,-9l79 -46c4,-2 8,-2 12,-1z"/>
  </g>
  <path class="fil1 str3" d="M6341 3492l-181 104c-22,12 -19,35 -13,53 13,35 48,54 81,67l466 189c63,25 115,25 174,-9l114 -65c55,-31 30,-118 1,-174 -82,-156 -396,-306 -642,-165z"/>
  <path class="fil1 str2" d="M3243 3359l0 263c16,50 89,67 145,44 29,-12 56,-36 62,-70l0 -304c0,-32 7,-52 34,-71"/>
  <path class="fil1 str2" d="M3243 3568c-61,77 -19,161 77,166 37,2 75,-4 109,-23 28,-16 53,-41 64,-73 13,-42 1,-89 -43,-105"/>
  <path class="fil1 str0" d="M120 5600c78,-64 502,-278 715,-408 337,-206 499,-334 607,-334 146,0 734,60 831,2 43,-27 603,-351 617,-365 39,-38 361,-264 409,-280"/>
  <path class="fil1 str0" d="M3650 4396c-273,-140 -387,52 -602,178"/>
  <path class="fil1 str0" d="M3689 4073c37,-52 128,2 176,38 41,31 15,55 135,-15 260,-150 834,-502 923,-525"/>
 </g>
</svg>
