<?xml version="1.0" encoding="UTF-8"?>
<!DOCTYPE svg PUBLIC "-//W3C//DTD SVG 1.0//EN" "http://www.w3.org/TR/2001/REC-SVG-20010904/DTD/svg10.dtd">
<!-- Creator: CorelDRAW X8 -->
<svg xmlns="http://www.w3.org/2000/svg" xml:space="preserve" width="3200px" height="1800px" version="1.0" style="shape-rendering:geometricPrecision; text-rendering:geometricPrecision; image-rendering:optimizeQuality; fill-rule:evenodd; clip-rule:evenodd"
viewBox="0 0 6933 3900"
 xmlns:xlink="http://www.w3.org/1999/xlink">
 <defs>
  <style type="text/css">
   <![CDATA[
    .str4 {stroke:aqua;stroke-width:4.51108;stroke-opacity:0.400000}
    .str5 {stroke:black;stroke-width:4.51108}
    .str3 {stroke:lime;stroke-width:4.51108}
    .str7 {stroke:lime;stroke-width:4.51108}
    .str1 {stroke:aqua;stroke-width:4.51108}
    .str6 {stroke:aqua;stroke-width:4.51108}
    .str2 {stroke:fuchsia;stroke-width:4.51108}
    .str0 {stroke:white;stroke-width:4.51108}
    .str8 {stroke:white;stroke-width:4.51108}
    .fil1 {fill:none}
    .fil8 {fill:none}
    .fil9 {fill:none}
    .fil4 {fill:aqua}
    .fil5 {fill:#5C9AE0}
    .fil2 {fill:#723BA3}
    .fil3 {fill:#9C61CF}
    .fil12 {fill:#E6E6E6}
    .fil13 {fill:white}
    .fil16 {fill:#4C9CFF;fill-rule:nonzero}
    .fil11 {fill:white;fill-rule:nonzero}
    .fil17 {fill:#CD6DD6;fill-opacity:0.501961}
    .fil7 {fill:fuchsia;fill-opacity:0.501961}
    .fil6 {fill:white;fill-opacity:0.501961}
    .fil14 {fill:#2687FF;fill-opacity:0.600000}
    .fil10 {fill:#2687FF;fill-opacity:0.600000}
    .fil15 {fill:white}
    .fil0 {fill:url(#id0)}
   ]]>
  </style>
  <radialGradient id="id0" gradientUnits="userSpaceOnUse" gradientTransform="matrix(1.05263 -0 -0 0.349753 -193 1420)" cx="3674.23" cy="2183.74" r="2477.65" fx="3674.23" fy="2183.74">
   <stop offset="0" style="stop-opacity:1; stop-color:#66084F"/>
   <stop offset="1" style="stop-opacity:1; stop-color:#263942"/>
  </radialGradient>
 </defs>
 <g id="Camada_x0020_1">
  <metadata id="CorelCorpID_0Corel-Layer"/>
  <path class="fil0" d="M0 0l6933 0 0 3900 -6933 0 0 -3900z"/>
  <path class="fil1 str0" d="M3118 2311l322 -185c7,-4 11,-4 18,-1l94 38"/>
  <path class="fil1 str0" d="M3890 2577l484 196"/>
  <path class="fil1 str0" d="M3713 2679l86 34c3,1 4,3 4,6 0,3 -1,5 -3,6l-101 58"/>
  <path class="fil1 str0" d="M3833 2610l261 105c3,1 4,3 4,6 0,2 -1,5 -3,6l-135 77"/>
  <path class="fil1 str0" d="M2945 2287l-116 66c-2,1 -4,1 -6,0l-180 -72m-97 -40l-23 -9m-97 -40l-23 -9m-97 -39l-194 -79c-5,-2 -6,-9 -1,-11l168 -97m104 -60l77 -43 0 -17m740 304l223 -129c7,-3 11,-3 17,-1l221 90"/>
  <path class="fil1 str1" d="M3714 1321l-244 140c-4,2 -6,6 -6,10 1,4 3,8 7,10l267 108c6,2 11,2 17,-2l243 -139c4,-2 6,-6 6,-10 -1,-5 -3,-8 -7,-10l-267 -108c-5,-2 -11,-2 -16,1z"/>
  <path class="fil1 str1" d="M4002 1526l-274 -111c-4,-1 -8,-1 -12,1l-250 144"/>
  <path class="fil1 str1" d="M3464 1471l0 87c0,6 2,6 7,8l263 107c7,2 16,2 23,-1l240 -138c6,-4 7,-5 7,-11l0 -85"/>
  <path class="fil1 str1" d="M3747 1592l0 81"/>
  <path class="fil1 str1" d="M3454 1595l-400 -162c-5,-2 -7,-2 -11,0l-640 367 0 30 394 160c10,4 15,3 25,-2l632 -363 0 -30z"/>
  <path class="fil2 str2" d="M3024 1385l-607 348c-9,6 -18,-1 -18,-11l0 -470c0,-21 3,-27 21,-37l604 -346c11,-6 20,-1 20,10l0 474c0,15 -5,24 -20,32z"/>
  <path class="fil3" d="M2473 1258l0 373c0,37 -59,51 -59,10l0 -364c0,-29 22,-44 39,-42 11,1 20,10 20,23z"/>
  <path class="fil1 str1" d="M5309 2060l288 116c3,1 4,3 4,6 1,3 -1,5 -3,6l-31 18m-102 58l-331 190m-96 55l-25 15m-94 54l-61 35c-2,1 -3,3 -3,6 0,2 1,4 4,5l122 50"/>
  <path class="fil1 str0" d="M2443 2237l-102 59c-2,1 -4,3 -4,6l0 333c0,3 -1,5 -3,6l-267 153"/>
  <path class="fil1 str0" d="M1576 2389l141 -82m204 16l174 71c3,1 4,3 4,6l0 91c0,3 -1,5 -3,7l-536 307"/>
  <path class="fil1 str1" d="M1102 1994l103 -59m104 -60l406 -233c2,-1 4,-3 4,-6 -1,-2 -2,-4 -5,-5l-270 -110c-2,-1 -4,-3 -4,-5 0,-3 1,-5 3,-6l129 -74m245 -141l135 -77"/>
  <path class="fil1 str0" d="M5277 2423l456 184"/>
  <path class="fil1 str1" d="M3856 1989l-364 208 0 30 690 279 363 -208 0 -30 -689 -279z"/>
  <path class="fil1 str0" d="M4378 2379l0 15 94 38c6,3 11,2 17,-2l370 -212c5,-3 4,-10 -1,-12l-242 -98c-5,-2 -5,-8 0,-11l157 -90"/>
  <path class="fil4" d="M1282 2348c13,0 23,-7 23,-16 0,-9 -10,-16 -23,-16 -12,0 -22,7 -22,16 0,9 10,16 22,16z"/>
  <path class="fil1 str1" d="M5232 1293l-1161 666 -185 -75m-227 -92l-290 -118 0 -15"/>
  <path class="fil1 str0" d="M2807 2622l137 -79m105 -60l341 -196c6,-3 9,-3 15,0l52 21m383 155l493 199c4,2 9,2 13,-1l95 -54m279 -160l135 -78"/>
  <path class="fil1 str0" d="M4562 1243l-220 126 153 61m138 56l70 28 -224 129"/>
  <path class="fil1 str1" d="M3951 2247l-88 51c-3,1 -4,4 -4,6 0,3 2,5 4,6l196 79c5,2 11,2 16,-1l88 -50c2,-1 4,-4 3,-6 0,-3 -1,-5 -4,-6l-196 -79c-6,-3 -10,-3 -15,0z"/>
  <path class="fil1 str1" d="M5009 1612l-235 134c-2,1 -3,4 -3,6 0,3 2,5 4,6l351 142c5,2 10,1 15,-1l236 -136c2,-1 3,-3 3,-6 0,-3 -1,-5 -4,-6l-348 -141c-7,-3 -12,-2 -19,2z"/>
  <path class="fil1 str1" d="M4771 1752l0 150c0,3 0,5 4,7l348 141c7,3 11,2 18,-2l234 -134c4,-3 5,-5 5,-9l0 -148"/>
  <path class="fil1 str0" d="M4628 2405l-144 83c-2,1 -3,3 -3,6 0,2 2,4 4,5l77 32c4,1 9,1 13,-1l142 -82c5,-2 4,-9 -1,-11l-79 -32c-3,-2 -6,-1 -9,0z"/>
  <path class="fil1 str0" d="M4722 2496l-88 -35c-2,-1 -4,-1 -7,0l-146 84"/>
  <path class="fil1 str0" d="M4481 2492l0 55c0,5 1,6 6,7l76 31c4,2 7,2 10,0l144 -83c2,-1 3,-3 3,-6l0 -54"/>
  <path class="fil1 str1" d="M1654 1234l-158 91c-3,1 -4,4 -4,7 0,3 2,5 5,6l173 70c4,2 7,1 11,-1l158 -90c3,-2 4,-4 4,-7 0,-3 -2,-5 -5,-6l-173 -70c-4,-2 -7,-2 -11,0z"/>
  <path class="fil1 str1" d="M1842 1379l-178 -72c-3,-1 -6,-1 -8,1l-163 93"/>
  <path class="fil1 str1" d="M1492 1332l0 68c0,4 2,4 5,6l170 69c5,2 10,2 15,-1l156 -90c4,-2 5,-2 5,-7l0 -67"/>
  <path class="fil1 str1" d="M4961 2031l-53 31 47 19 53 -31 -47 -19z"/>
  <path class="fil1 str1" d="M5045 2065l-53 30 47 19 53 -30 -47 -19z"/>
  <path class="fil1 str1" d="M3736 1748l-78 44c-3,2 -4,4 -4,7 1,2 2,4 4,5l152 61c3,2 7,1 10,-1l79 -44c2,-2 3,-4 3,-6 0,-3 -2,-5 -4,-6l-152 -61c-3,-2 -7,-1 -10,1z"/>
  <path class="fil1 str1" d="M3904 1866l-158 -64c-2,-1 -4,-1 -7,0l-84 48"/>
  <path class="fil1 str1" d="M3654 1797l0 54c0,3 1,6 4,7l150 61c5,2 9,1 14,-1l85 -49c2,-1 3,-3 3,-6l0 -50"/>
  <path class="fil5 str0" d="M3874 1951l660 267c8,3 15,-1 15,-10l0 -516c0,-14 -5,-23 -18,-28l-656 -266c-8,-3 -16,1 -16,11l0 518c0,13 3,19 15,24z"/>
  <path class="fil6" d="M3828 1710l256 104c10,4 20,0 20,-11l0 -384c0,-9 -2,-17 -11,-20l-260 -106c-4,-1 -8,-1 -12,2 -4,2 -6,6 -6,11l0 383c0,10 4,17 13,21z"/>
  <path class="fil7" d="M4137 2045l364 147c4,2 8,2 12,-1 4,-2 6,-6 6,-11l0 -279c0,-11 -4,-17 -15,-22l-361 -146c-8,-3 -18,3 -18,12l0 283c0,8 4,14 12,17z"/>
  <path class="fil1 str1" d="M4964 2462c30,-4 52,-26 49,-50 -3,-24 -30,-40 -60,-36 -31,4 -53,26 -50,50 3,24 30,40 61,36z"/>
  <path class="fil1 str1" d="M4903 2441l0 81 0 29c0,28 37,41 61,38 30,-4 52,-27 49,-50l0 -127"/>
  <path class="fil1 str1" d="M5084 2394c31,-4 53,-26 50,-50 -3,-24 -30,-40 -61,-36 -30,4 -52,26 -49,50 3,24 30,40 60,36z"/>
  <path class="fil1 str1" d="M5024 2373l0 110c0,28 37,40 60,37 31,-3 53,-26 50,-50l0 -126"/>
  <path class="fil1 str1" d="M1856 1401l-35 20 54 22 35 -21 -54 -21z"/>
  <path class="fil1 str1" d="M1800 1432l-35 21 54 22 35 -21 -54 -22z"/>
  <path class="fil1 str1" d="M1739 1467l-35 21 54 22 35 -21 -54 -22z"/>
  <path class="fil1 str1" d="M2974 2247l-53 30 24 10 23 9 53 -30 -47 -19z"/>
  <path class="fil1 str1" d="M3176 2131l-53 30 24 10 23 9 53 -30 -47 -19z"/>
  <path class="fil1 str1" d="M5155 1749l-53 31 47 19 53 -31 -47 -19z"/>
  <path class="fil1 str1" d="M5232 1780l-53 31 47 19 53 -30 -47 -20z"/>
  <path class="fil1 str1" d="M5314 1814l-52 30 46 19 53 -30 -47 -19z"/>
  <path class="fil1 str1" d="M5398 1848l-53 30 47 19 53 -30 -47 -19z"/>
  <path class="fil1 str1" d="M5133 1903l0 150"/>
  <path class="fil1 str1" d="M1676 1410l0 65"/>
  <path class="fil1 str0" d="M4569 2533l0 54"/>
  <path class="fil1 str1" d="M3815 1868l0 54"/>
  <path class="fil1 str1" d="M5414 1884l105 43c1,0 1,0 2,0l184 0c1,0 2,0 3,-1l361 -207"/>
  <path class="fil1 str1" d="M4449 2194l-53 31 87 35 52 -31 -86 -35z"/>
  <path class="fil1 str1" d="M2969 1440l-62 36 55 22 63 -36 -56 -22z"/>
  <path class="fil1 str1" d="M1280 2331l211 -121"/>
  <path class="fil1 str1" d="M1522 2171l-53 30 47 19 53 -30 -47 -19z"/>
  <path class="fil1 str1" d="M5065 2100l268 108c2,1 4,3 4,6 0,2 -1,4 -4,6l-201 115m-108 62l-13 7m-108 62l-354 203c-2,2 -3,4 -3,6 0,3 2,5 4,6l424 172"/>
  <path class="fil1 str1" d="M4393 2346l0 24 -36 21 0 -24 36 -21z"/>
  <path class="fil1 str1" d="M4472 2567l-53 31 24 9 23 10 53 -31 -47 -19z"/>
  <path class="fil1 str1" d="M5273 2025l-41 23 57 23 41 -24 -57 -22z"/>
  <path class="fil1 str1" d="M4903 2497c0,28 37,40 61,37 30,-3 52,-26 49,-49"/>
  <path class="fil1 str1" d="M5024 2429c0,28 37,40 60,37 31,-3 53,-26 50,-50"/>
  <path class="fil1 str1" d="M1885 2288l-41 24 56 23 41 -24 -56 -23z"/>
  <path class="fil1 str1" d="M1405 2022l-39 -16c-5,-2 -8,-2 -13,1l-370 212"/>
  <path class="fil1 str1" d="M2099 1479l-149 86c-2,1 -3,1 -4,2 -2,0 -5,0 -7,-1l-163 -66"/>
  <path class="fil1 str1" d="M2487 1425l-166 96c-3,1 -4,4 -4,7l0 188c0,3 -1,6 -4,8l-351 201"/>
  <path class="fil1 str3" d="M3506 2279l-251 144c-2,1 -3,4 -3,6 0,3 2,5 4,6l314 127c7,3 13,2 20,-2l247 -142c2,-1 3,-3 3,-6 0,-2 -1,-4 -4,-5l-315 -128c-6,-2 -10,-3 -15,0z"/>
  <path class="fil1 str3" d="M3252 2429l0 106c0,2 1,4 3,5l317 128c6,2 9,2 15,-1l251 -145c2,-1 2,-1 2,-3l0 -107"/>
  <path class="fil1 str1" d="M4790 1916l0 24 332 135c12,4 15,2 25,-4l212 -121 0 -26"/>
  <path class="fil1 str1" d="M5361 1922l-338 -137c-3,-1 -5,-1 -8,1l-225 129"/>
  <path class="fil1 str0" d="M5025 2201l-254 -103c-5,-2 -6,-9 -1,-12l83 -47"/>
  <path class="fil1 str3" d="M3580 2564l0 106"/>
  <path class="fil1 str3" d="M3427 2565l0 29 -150 -61 0 -29 150 61z"/>
  <path class="fil1 str0" d="M5099 2158l-153 88 134 54 153 -88 -134 -54z"/>
  <path class="fil1 str1" d="M4802 1967l-53 30 47 19 53 -30 -47 -19z"/>
  <path class="fil1 str1" d="M4879 1998l-53 30 47 19 53 -30 -47 -19z"/>
  <path class="fil1 str1" d="M3853 2545l-35 21 54 22 35 -21 -54 -22z"/>
  <path class="fil1 str1" d="M3797 2577l-35 21 54 22 35 -21 -54 -22z"/>
  <path class="fil1 str1" d="M3738 2612l-36 20 54 22 36 -21 -54 -21z"/>
  <path class="fil1 str1" d="M3676 2647l-35 20 54 22 35 -20 -54 -22z"/>
  <path class="fil1 str3" d="M3839 2518l-319 -129c-5,-2 -8,-2 -13,1l-254 145"/>
  <g id="_1063474528">
   <path class="fil1 str3" d="M3797 2059l-30 17c-2,1 -2,3 0,4l33 13c2,1 4,1 6,0l29 -17c2,-1 2,-3 0,-4l-33 -14c-2,0 -4,0 -5,1z"/>
   <path class="fil1 str3" d="M3851 2081l-30 17c-1,1 -1,3 1,4l33 13c2,1 4,1 6,0l29 -17c2,-1 1,-3 0,-4l-34 -13c-1,-1 -3,-1 -5,0z"/>
   <path class="fil1 str3" d="M3906 2103l-30 17c-2,1 -2,3 0,4l33 13c2,1 4,1 6,0l29 -17c2,-1 2,-3 0,-4l-33 -13c-2,-1 -4,-1 -5,0z"/>
   <path class="fil1 str3" d="M3960 2125l-30 17c-1,1 -1,3 1,4l33 13c2,1 4,1 6,0l29 -17c2,-1 1,-3 0,-4l-34 -13c-1,-1 -3,-1 -5,0z"/>
   <path class="fil1 str3" d="M4015 2147l-30 17c-2,1 -1,3 0,4l33 13c2,1 4,1 6,0l29 -17c2,-1 2,-3 0,-4l-33 -13c-2,-1 -4,-1 -5,0z"/>
   <path class="fil1 str3" d="M4069 2169l-30 17c-1,1 -1,3 1,4l33 13c2,1 4,1 6,0l29 -17c2,-1 1,-3 0,-4l-34 -13c-1,-1 -3,-1 -5,0z"/>
   <path class="fil1 str3" d="M4124 2191l-30 17c-2,1 -1,3 0,4l33 14c2,0 4,0 6,-1l29 -17c2,-1 2,-3 0,-4l-33 -13c-2,-1 -4,-1 -5,0z"/>
   <path class="fil1 str3" d="M4178 2213l-30 17c-1,1 -1,4 1,4l33 14c2,0 4,0 6,-1l29 -17c2,0 1,-3 0,-3l-34 -14c-1,-1 -3,-1 -5,0z"/>
   <path class="fil1 str3" d="M4233 2235l-30 17c-2,1 -1,4 0,4l33 14c2,1 4,0 6,-1l29 -16c2,-1 2,-4 0,-4l-33 -14c-2,-1 -4,-1 -5,0z"/>
   <path class="fil1 str3" d="M4287 2257l-30 17c-1,1 -1,4 1,4l33 14c2,1 4,0 6,-1l29 -16c2,-1 1,-4 0,-4l-34 -14c-1,-1 -3,-1 -5,0z"/>
   <path class="fil1 str3" d="M4342 2279l-30 18c-2,0 -1,3 0,3l33 14c2,1 4,1 6,-1l29 -16c2,-1 2,-4 0,-4l-33 -14c-2,0 -4,0 -5,0z"/>
  </g>
  <g id="_1063476160">
   <path class="fil1 str3" d="M3739 2092l-29 17c-2,1 -2,3 0,4l33 13c2,1 4,1 6,0l29 -17c2,-1 1,-3 0,-4l-34 -14c-1,0 -3,0 -5,1z"/>
   <path class="fil1 str3" d="M3794 2114l-30 17c-2,1 -1,3 0,4l33 13c2,1 4,1 6,0l30 -17c1,-1 1,-3 -1,-4l-33 -14c-2,0 -4,0 -5,1z"/>
   <path class="fil1 str3" d="M3848 2136l-29 17c-2,1 -2,3 0,4l33 13c2,1 4,1 6,0l29 -17c2,-1 1,-3 0,-4l-34 -13c-1,-1 -3,-1 -5,0z"/>
   <path class="fil1 str3" d="M3903 2158l-30 17c-2,1 -1,3 0,4l33 13c2,1 4,1 6,0l30 -17c1,-1 1,-3 -1,-4l-33 -13c-2,-1 -4,-1 -5,0z"/>
   <path class="fil1 str3" d="M3957 2180l-29 17c-2,1 -2,3 0,4l33 13c2,1 4,1 6,0l29 -17c2,-1 1,-3 0,-4l-34 -13c-1,-1 -3,-1 -5,0z"/>
   <path class="fil1 str3" d="M4012 2202l-30 17c-2,1 -1,3 0,4l33 13c2,1 4,1 6,0l30 -17c1,-1 1,-3 -1,-4l-33 -13c-2,-1 -4,-1 -5,0z"/>
   <path class="fil1 str3" d="M4066 2224l-29 17c-2,1 -2,3 0,4l33 13c2,1 4,1 6,0l29 -17c2,-1 1,-3 0,-4l-34 -13c-1,-1 -3,-1 -5,0z"/>
   <path class="fil1 str3" d="M4121 2246l-30 17c-2,1 -1,3 0,4l33 14c2,0 4,0 6,-1l30 -17c1,-1 1,-3 -1,-4l-33 -13c-2,-1 -4,-1 -5,0z"/>
   <path class="fil1 str3" d="M4175 2268l-29 17c-2,1 -2,4 0,4l33 14c2,0 4,0 6,-1l29 -17c2,0 2,-3 0,-3l-34 -14c-1,-1 -3,-1 -5,0z"/>
   <path class="fil1 str3" d="M4230 2290l-30 17c-2,1 -1,4 0,4l33 14c2,1 4,0 6,-1l30 -16c1,-1 1,-4 -1,-4l-33 -14c-2,-1 -4,-1 -5,0z"/>
   <path class="fil1 str3" d="M4284 2312l-29 17c-2,1 -2,4 0,4l33 14c2,1 4,0 6,-1l29 -16c2,-1 2,-4 0,-4l-34 -14c-1,-1 -3,-1 -5,0z"/>
  </g>
  <path class="fil1 str0" d="M1940 2211l272 111c3,1 4,3 4,6l0 230c0,2 -1,4 -3,5l-139 80"/>
  <path class="fil1 str1" d="M2367 2128c30,-4 53,-26 50,-50 -3,-24 -30,-40 -61,-36 -30,3 -53,26 -50,50 3,23 30,40 61,36z"/>
  <path class="fil1 str1" d="M2306 2113l0 21 0 28c0,29 37,41 61,38 30,-4 53,-26 50,-50l0 -72"/>
  <path class="fil1 str1" d="M2487 2176c30,-3 52,-26 49,-50 -3,-23 -30,-40 -60,-36 -31,4 -53,26 -50,50 3,24 30,40 61,36z"/>
  <path class="fil1 str1" d="M2426 2162l0 20 0 29c0,28 37,41 61,38 30,-4 52,-27 49,-50l0 -73"/>
  <path class="fil1 str1" d="M2607 2225c30,-4 53,-26 50,-50 -3,-24 -30,-40 -61,-36 -30,4 -53,26 -50,50 3,24 30,40 61,36z"/>
  <path class="fil1 str1" d="M2546 2210l0 21 0 29c0,28 37,40 61,37 30,-3 53,-26 50,-50l0 -72"/>
  <path class="fil1 str1" d="M5414 1999l87 36c1,0 1,0 2,0l260 0c1,0 2,0 3,-1l209 -119"/>
  <path class="fil1 str1" d="M5334 1822l69 -40c5,-3 9,-3 14,-1l154 63c1,0 2,0 2,0l77 0"/>
  <path class="fil1 str1" d="M5378 1965l-42 23 57 23 41 -23 -56 -23z"/>
  <path class="fil1 str3" d="M3649 2428l-101 58c-13,7 -14,18 -11,25 5,12 20,17 35,16 10,0 19,-3 26,-7l114 -66c15,-8 9,-23 -8,-30 -14,-5 -36,-6 -55,4z"/>
  <path class="fil1 str1" d="M2021 1950l-287 -117 -364 209"/>
  <path class="fil1 str1" d="M1720 1666l-38 22c-1,0 -1,0 0,1l329 133 38 -22c1,-1 2,0 0,-1l-329 -133z"/>
  <path class="fil1 str1" d="M1681 1688l0 26 329 134c1,0 1,1 1,-1l0 -25"/>
  <path class="fil1 str1" d="M1632 1716l-38 22c-2,1 -2,1 0,1l329 134 38 -22c1,-1 1,-1 0,-1l-329 -134z"/>
  <path class="fil1 str1" d="M1593 1739l0 26 329 134c1,0 1,0 1,-1l0 -25"/>
  <path class="fil1 str1" d="M1543 1767l-38 22c-1,1 -1,0 0,1l330 133 38 -22c1,0 1,0 0,0l-330 -134z"/>
  <path class="fil1 str1" d="M1504 1790l0 26 330 133c1,1 1,1 1,0l0 -26"/>
  <path class="fil1 str1" d="M1455 1818l-38 22c-1,0 -1,0 0,1l329 133 38 -22c1,-1 1,0 0,-1l-329 -133z"/>
  <path class="fil1 str1" d="M1416 1840l0 26 329 134c1,0 1,0 1,-1l0 -25"/>
  <path class="fil1 str1" d="M1367 1868l-39 22c0,1 -1,1 0,1l330 134 38 -22c1,-1 1,-1 0,-1l-329 -134z"/>
  <path class="fil1 str1" d="M1658 2158l0 -133"/>
  <path class="fil1 str1" d="M1328 1891l0 130c0,3 2,4 5,6l316 127c6,3 10,3 16,0l381 -218c3,-2 4,-3 4,-6l0 -130"/>
  <path class="fil1 str1" d="M1746 2000l-49 28 0 -26"/>
  <path class="fil1 str1" d="M1835 1950l-50 28 0 -26"/>
  <path class="fil1 str1" d="M1923 1899l-49 28 0 -26"/>
  <path class="fil1 str1" d="M2011 1848l-49 28 0 -26"/>
  <path class="fil1 str1" d="M1370 2040l0 42 277 112c9,4 16,3 25,-2l30 -17m136 -79l184 -105 0 -42"/>
  <path class="fil1 str1" d="M1681 1714l-22 13m-66 38l-23 13m-66 38l-22 13m-66 37l-22 13"/>
  <g id="_1063418848">
   <path class="fil1 str0" d="M1309 1872l0 48"/>
   <path class="fil1 str0" d="M1249 1850l-66 38c-2,1 -3,3 -3,5 0,3 1,4 3,5l44 18c4,2 9,1 13,-1l66 -38c2,-1 3,-3 3,-5 0,-3 -1,-4 -3,-5l-44 -18c-5,-2 -8,-1 -13,1z"/>
   <path class="fil1 str0" d="M1274 1896l-61 -25"/>
   <path class="fil1 str0" d="M1274 1896l0 44"/>
   <path class="fil1 str0" d="M1234 1919l0 42"/>
   <path class="fil1 str0" d="M1180 1893l0 47"/>
   <path class="fil1 str0" d="M1249 1878l-66 38c-2,1 -3,3 -3,6 0,2 1,4 3,4l44 18c4,2 9,1 13,-1l66 -38c2,-1 3,-3 3,-5 0,-2 -1,-4 -3,-5l-44 -18c-5,-2 -8,-1 -13,1z"/>
  </g>
  <path class="fil8 str4" d="M3951 2269l-88 51c-3,1 -4,3 -4,6 0,2 2,5 4,6l196 79c5,2 11,2 16,-1l88 -50c2,-2 4,-4 3,-6 0,-3 -1,-5 -4,-6l-196 -80c-6,-2 -10,-2 -15,1z"/>
  <path class="fil4" d="M1102 2010c12,0 22,-7 22,-16 0,-9 -10,-16 -22,-16 -12,0 -22,7 -22,16 0,9 10,16 22,16z"/>
  <path class="fil4" d="M1560 2821c12,0 22,-7 22,-16 0,-9 -10,-16 -22,-16 -12,0 -22,7 -22,16 0,9 10,16 22,16z"/>
  <path class="fil4" d="M2074 2659c12,0 22,-7 22,-16 0,-9 -10,-16 -22,-16 -12,0 -22,7 -22,16 0,9 10,16 22,16z"/>
  <path class="fil4" d="M2826 2370c13,0 23,-7 23,-15 0,-9 -10,-16 -23,-16 -12,0 -22,7 -22,16 0,8 10,15 22,15z"/>
  <path class="fil4" d="M2807 2638c12,0 22,-7 22,-16 0,-9 -10,-16 -22,-16 -12,0 -22,7 -22,16 0,9 10,16 22,16z"/>
  <path class="fil4" d="M3699 2798c13,0 23,-7 23,-15 0,-9 -10,-16 -23,-16 -12,0 -22,7 -22,16 0,8 10,15 22,15z"/>
  <path class="fil4" d="M4149 2604c12,0 22,-7 22,-16 0,-9 -10,-16 -22,-16 -12,0 -22,7 -22,16 0,9 10,16 22,16z"/>
  <path class="fil4" d="M4374 2789c12,0 22,-7 22,-16 0,-9 -10,-16 -22,-16 -13,0 -23,7 -23,16 0,9 10,16 23,16z"/>
  <path class="fil4" d="M4981 2690c13,0 23,-7 23,-16 0,-9 -10,-16 -23,-16 -12,0 -22,7 -22,16 0,9 10,16 22,16z"/>
  <path class="fil4" d="M4855 2385c12,0 22,-7 22,-16 0,-8 -10,-15 -22,-15 -13,0 -23,7 -23,15 0,9 10,16 23,16z"/>
  <path class="fil4" d="M5733 2623c13,0 23,-7 23,-16 0,-8 -10,-15 -23,-15 -12,0 -22,7 -22,15 0,9 10,16 22,16z"/>
  <g id="_1063424416">
   <path class="fil1 str1" d="M2383 1894l0 48"/>
   <path class="fil1 str1" d="M2324 1872l-67 38c-2,1 -3,3 -3,6 0,2 1,4 4,4l44 18c3,2 8,1 12,-1l67 -38c2,-1 3,-3 2,-5 0,-2 -1,-4 -3,-5l-44 -18c-4,-2 -8,-1 -12,1z"/>
   <path class="fil1 str1" d="M2348 1918l-61 -25"/>
   <path class="fil1 str1" d="M2348 1918l0 44"/>
   <path class="fil1 str1" d="M2308 1941l0 42"/>
   <path class="fil1 str1" d="M2254 1916l0 46"/>
   <path class="fil1 str1" d="M2324 1900l-67 38c-2,2 -3,4 -3,6 0,2 1,4 4,5l44 17c3,2 8,1 12,-1l67 -38c2,-1 3,-3 2,-5 0,-2 -1,-4 -3,-5l-44 -18c-4,-1 -8,-1 -12,1z"/>
  </g>
  <g id="_1063427072">
   <path class="fil1 str1" d="M3049 2480l0 48"/>
   <path class="fil1 str1" d="M2989 2458l-67 38c-2,1 -3,3 -3,6 0,2 2,4 4,4l44 18c3,2 8,1 12,-1l67 -38c2,-1 3,-3 3,-5 -1,-2 -2,-4 -4,-5l-44 -18c-4,-2 -8,-1 -12,1z"/>
   <path class="fil1 str1" d="M3013 2504l-61 -25"/>
   <path class="fil1 str1" d="M3013 2504l0 44"/>
   <path class="fil1 str1" d="M2973 2527l0 42"/>
   <path class="fil1 str1" d="M2919 2502l0 46"/>
   <path class="fil1 str1" d="M2989 2486l-67 38c-2,2 -3,4 -3,6 0,2 2,4 4,5l44 17c3,2 8,1 12,-1l67 -38c2,-1 3,-3 3,-5 -1,-2 -2,-4 -4,-5l-44 -18c-4,-1 -8,-1 -12,1z"/>
  </g>
  <g id="_1063429952">
   <path class="fil1 str0" d="M5570 2201l0 49"/>
   <path class="fil1 str0" d="M5510 2179l-67 38c-2,1 -3,3 -3,6 0,2 2,4 4,4l44 18c4,2 9,1 12,-1l67 -38c2,-1 3,-3 3,-5 0,-2 -2,-4 -4,-5l-44 -18c-4,-2 -8,-1 -12,1z"/>
   <path class="fil1 str0" d="M5534 2225l-61 -25"/>
   <path class="fil1 str0" d="M5534 2225l0 44"/>
   <path class="fil1 str0" d="M5494 2248l0 42"/>
   <path class="fil1 str0" d="M5440 2223l0 46"/>
   <path class="fil1 str0" d="M5510 2207l-67 39c-2,1 -3,3 -3,5 0,2 2,4 4,5l44 18c4,1 9,1 12,-1l67 -39c2,-1 3,-3 3,-5 0,-2 -2,-4 -4,-5l-44 -18c-4,-1 -8,-1 -12,1z"/>
  </g>
  <path class="fil1 str0" d="M4627 2571l-24 14 11 5 11 4 24 -14 -22 -9z"/>
  <path class="fil1 str0" d="M4673 2545l-25 14 11 4 11 5 25 -14 -22 -9z"/>
  <path class="fil1 str0" d="M4715 2520l-24 15 11 4 11 5 24 -15 -22 -9z"/>
  <path class="fil1 str0" d="M938 2285c32,0 58,-18 58,-40 0,-23 -26,-41 -58,-41 -32,0 -58,18 -58,41 0,22 26,40 58,40z"/>
  <path class="fil1 str0" d="M2022 2861c32,0 58,-18 58,-41 0,-22 -26,-41 -58,-41 -32,0 -58,19 -58,41 0,23 26,41 58,41z"/>
  <path class="fil1 str0" d="M4149 2629c32,0 58,-19 58,-41 0,-23 -26,-41 -58,-41 -32,0 -58,18 -58,41 0,22 26,41 58,41z"/>
  <path class="fil1 str1" d="M5228 2441c32,0 58,-18 58,-41 0,-22 -26,-40 -58,-40 -32,0 -58,18 -58,40 0,23 26,41 58,41z"/>
  <path class="fil1 str1" d="M6114 1734c32,0 58,-18 58,-41 0,-22 -26,-40 -58,-40 -32,0 -58,18 -58,40 0,23 26,41 58,41z"/>
  <path class="fil4" d="M5975 1930c12,0 22,-7 22,-15 0,-9 -10,-16 -22,-16 -13,0 -23,7 -23,16 0,8 10,15 23,15z"/>
  <path class="fil4" d="M5232 1308c12,0 22,-7 22,-15 0,-9 -10,-16 -22,-16 -12,0 -22,7 -22,16 0,8 10,15 22,15z"/>
  <path class="fil4" d="M4562 1259c12,0 22,-7 22,-16 0,-9 -10,-16 -22,-16 -12,0 -22,7 -22,16 0,9 10,16 22,16z"/>
  <path class="fil4" d="M1952 1234c12,0 22,-7 22,-16 0,-9 -10,-16 -22,-16 -12,0 -22,7 -22,16 0,9 10,16 22,16z"/>
  <path class="fil1 str3" d="M1807 2088l-103 59c-2,1 -2,2 -2,4 0,2 1,3 2,4l88 36c3,1 7,0 9,-1l103 -59c2,-1 2,-3 2,-4 0,-2 -1,-4 -2,-4l-88 -36c-3,-1 -6,-1 -9,1z"/>
  <path class="fil1 str3" d="M1906 2249l-91 -37c-2,-1 -5,-1 -8,1l-104 60"/>
  <path class="fil1 str3" d="M1702 2151l0 118c0,5 1,6 6,9l86 34c2,1 4,1 6,0l101 -58c2,-1 4,-2 4,-3 1,-1 1,-1 1,-4l0 -120"/>
  <path class="fil1 str3" d="M1797 2192l0 121"/>
  <path class="fil1 str3" d="M3082 2041l-104 59c-1,1 -2,3 -2,4 0,2 1,4 3,4l88 36c3,1 6,1 9,-1l102 -59c2,-1 3,-2 3,-4 0,-2 -1,-3 -3,-4l-88 -36c-3,-1 -6,-1 -8,1z"/>
  <path class="fil1 str3" d="M3180 2202l-90 -37c-3,-1 -6,-1 -8,1l-105 60"/>
  <path class="fil1 str3" d="M2976 2104l0 118c0,6 1,7 7,9l85 35c2,0 4,0 6,-1l102 -58c3,-2 5,-2 5,-6l0 -121"/>
  <path class="fil1 str3" d="M3071 2146l0 120"/>
  <path class="fil1 str3" d="M5090 2053l-103 59c-2,1 -3,2 -3,4 0,2 2,4 3,4l88 36c3,1 6,0 9,-1l103 -59c1,-1 2,-3 2,-4 0,-2 -1,-4 -3,-4l-88 -36c-3,-1 -5,-1 -8,1z"/>
  <path class="fil1 str3" d="M5188 2214l-90 -37c-3,-1 -5,-1 -8,1l-105 60"/>
  <path class="fil1 str3" d="M4984 2116l0 118c0,6 1,6 7,9l86 35c2,0 4,0 5,-1l102 -58c4,-2 5,-2 5,-6l0 -121"/>
  <path class="fil1 str3" d="M5079 2158l0 120"/>
  <path class="fil1 str1" d="M5379 1911l-362 -146c-3,-2 -7,-1 -10,0l-236 136"/>
  <path class="fil1 str0" d="M3797 1731l256 104c9,4 18,-2 18,-12l0 -383c0,-10 -2,-17 -11,-21l-257 -104c-4,-2 -9,-1 -12,1 -4,2 -6,6 -6,11l0 384c0,9 4,17 12,20z"/>
  <path class="fil1 str2" d="M4107 2066l364 147c4,2 8,1 12,-1 4,-3 6,-6 6,-11l0 -279c0,-11 -3,-17 -13,-21l-363 -147c-4,-2 -8,-1 -12,1 -4,3 -6,7 -6,11l0 283c0,8 4,14 12,17z"/>
  <path class="fil1 str1" d="M4256 1704l231 93c10,4 18,-1 18,-12l0 -234c0,-7 -4,-13 -10,-15l-231 -94c-9,-3 -18,3 -18,12l0 233c0,9 2,14 10,17z"/>
  <path class="fil9 str1" d="M2701 1402l-196 111c-9,5 -18,1 -18,-8l0 -400c0,-9 3,-16 11,-21l196 -111c7,-4 16,2 16,10l0 404c0,7 -1,10 -9,15z"/>
  <path class="fil10" d="M2727 1423l-195 111c-9,5 -17,0 -17,-9l0 -400c0,-9 2,-15 11,-20l194 -110c7,-4 16,1 16,9l0 404c0,8 -1,11 -9,15z"/>
  <path class="fil11" d="M2548 1149l105 -59c18,-10 29,16 12,26l-107 61c-10,5 -18,0 -19,-9 -1,-6 1,-14 9,-19z"/>
  <path class="fil11" d="M2553 1243l132 -75c6,-4 13,-3 18,0 6,5 8,15 5,23 -2,4 -5,8 -10,11l-132 74c-25,14 -35,-21 -13,-33z"/>
  <g id="_1061336752">
   <path class="fil1 str2" d="M3066 1464l32 13c2,1 2,3 0,4l-30 17c-2,1 -4,1 -6,1l-32 -13c-1,-1 -2,-3 0,-4l31 -18c1,-1 3,-1 5,0z"/>
   <path class="fil1 str2" d="M3015 1493l32 13c2,0 2,3 1,4l-31 17c-2,1 -4,1 -6,1l-31 -13c-2,-1 -2,-3 -1,-4l31 -18c2,-1 4,-1 5,0z"/>
   <path class="fil1 str2" d="M2965 1522l32 13c2,0 2,3 0,4l-30 17c-2,1 -4,1 -6,1l-32 -13c-2,-1 -2,-3 0,-4l31 -18c1,-1 3,-1 5,0z"/>
   <path class="fil1 str2" d="M2914 1551l32 13c2,0 2,3 1,4l-31 17c-2,1 -4,1 -6,1l-31 -13c-2,-1 -2,-3 -1,-4l31 -18c2,-1 4,-1 5,0z"/>
   <path class="fil1 str2" d="M2864 1580l32 13c1,0 2,3 0,4l-31 17c-1,1 -3,1 -6,1l-31 -13c-2,-1 -2,-3 0,-4l31 -18c1,-1 3,-1 5,0z"/>
   <path class="fil1 str2" d="M2813 1609l32 13c2,0 2,3 1,4l-31 17c-2,1 -4,1 -6,1l-31 -13c-2,-1 -2,-3 -1,-4l31 -18c2,-1 4,-1 5,0z"/>
   <path class="fil1 str2" d="M2763 1638l32 13c1,0 2,3 0,4l-31 17c-2,1 -4,1 -6,1l-31 -13c-2,-1 -2,-3 0,-4l31 -18c1,-1 3,-1 5,0z"/>
   <path class="fil1 str2" d="M2712 1667l32 13c2,0 2,3 1,4l-31 17c-2,1 -4,1 -6,0l-32 -12c-1,-1 -1,-3 0,-4l31 -18c2,-1 3,-1 5,0z"/>
   <path class="fil1 str2" d="M2662 1696l32 13c1,0 2,3 0,4l-31 17c-2,1 -4,1 -6,0l-31 -12c-2,-1 -2,-3 0,-4l31 -18c1,-1 3,-1 5,0z"/>
   <path class="fil1 str2" d="M2611 1725l32 13c2,0 2,3 0,3l-30 18c-2,1 -4,1 -6,0l-32 -12c-1,-1 -2,-3 0,-4l31 -18c2,-1 3,-1 5,0z"/>
   <path class="fil1 str2" d="M2561 1754l32 13c1,0 1,3 0,3l-31 18c-2,1 -4,1 -6,0l-31 -12c-2,-1 -2,-3 0,-4l31 -18c1,-1 3,-1 5,0z"/>
  </g>
  <g id="_1061340752">
   <path class="fil1 str3" d="M3854 2026l-30 17c-1,1 -1,3 1,4l33 13c2,1 4,1 6,0l29 -17c1,-1 1,-3 0,-4l-34 -13c-2,-1 -3,-1 -5,0z"/>
   <path class="fil1 str3" d="M3909 2048l-30 17c-2,1 -2,3 0,4l33 13c2,1 4,1 6,0l29 -17c2,-1 2,-3 0,-4l-33 -13c-2,-1 -4,-1 -5,0z"/>
   <path class="fil1 str3" d="M3963 2070l-30 17c-1,1 -1,3 1,4l33 13c2,1 4,1 6,0l29 -17c1,-1 1,-3 0,-4l-34 -13c-2,-1 -3,-1 -5,0z"/>
   <path class="fil1 str3" d="M4018 2092l-30 17c-2,1 -2,3 0,4l33 13c2,1 4,1 6,0l29 -17c2,-1 2,-3 0,-4l-33 -13c-2,-1 -4,-1 -5,0z"/>
   <path class="fil1 str3" d="M4072 2114l-30 17c-1,1 -1,3 1,4l33 13c2,1 4,1 6,0l29 -17c1,-1 1,-3 0,-4l-34 -13c-2,-1 -3,-1 -5,0z"/>
   <path class="fil1 str3" d="M4127 2136l-30 17c-2,1 -2,3 0,4l33 14c2,0 4,0 6,-1l29 -17c2,-1 2,-3 0,-3l-33 -14c-2,-1 -4,-1 -5,0z"/>
   <path class="fil1 str3" d="M4181 2158l-30 17c-1,1 -1,4 1,4l33 14c2,0 4,0 6,-1l29 -17c1,0 1,-3 0,-3l-34 -14c-2,-1 -3,-1 -5,0z"/>
   <path class="fil1 str3" d="M4236 2180l-30 17c-2,1 -2,4 0,4l33 14c2,1 4,0 6,-1l29 -16c2,-1 2,-4 0,-4l-33 -14c-2,-1 -4,-1 -5,0z"/>
   <path class="fil1 str3" d="M4290 2202l-30 18c-1,0 -1,3 1,3l33 14c2,1 4,0 6,-1l29 -16c1,-1 1,-4 0,-4l-34 -14c-2,-1 -3,0 -5,0z"/>
   <path class="fil1 str3" d="M4345 2225l-30 17c-2,0 -2,3 0,3l33 14c2,1 4,1 6,-1l29 -16c2,-1 2,-4 0,-4l-33 -14c-2,0 -4,0 -5,1z"/>
   <path class="fil1 str3" d="M4399 2247l-30 17c-1,1 -1,3 1,4l33 13c2,1 4,1 6,-1l29 -16c1,-1 1,-3 0,-4l-34 -14c-2,0 -3,0 -5,1z"/>
  </g>
  <g id="_1061343664">
   <path class="fil1 str2" d="M3127 1488l32 13c1,1 1,3 0,4l-31 18c-2,1 -4,1 -6,0l-31 -13c-2,0 -2,-3 0,-3l31 -18c1,-1 3,-1 5,-1z"/>
   <path class="fil1 str2" d="M3076 1517l32 13c2,1 2,3 0,4l-30 18c-2,1 -4,1 -6,0l-32 -13c-1,0 -2,-3 0,-4l31 -17c2,-1 3,-1 5,-1z"/>
   <path class="fil1 str2" d="M3025 1546l33 13c1,1 1,3 0,4l-31 18c-2,1 -4,1 -6,0l-31 -13c-2,0 -2,-3 -1,-4l31 -17c2,-1 4,-1 5,-1z"/>
   <path class="fil1 str2" d="M2975 1575l32 13c2,1 2,3 0,4l-30 18c-2,1 -4,1 -6,0l-32 -13c-1,0 -2,-3 0,-4l31 -17c2,-1 3,-1 5,-1z"/>
   <path class="fil1 str2" d="M2924 1604l32 13c2,1 2,3 1,4l-31 18c-2,1 -4,1 -6,0l-31 -13c-2,0 -2,-3 -1,-4l31 -17c2,-1 4,-1 5,-1z"/>
   <path class="fil1 str2" d="M2874 1633l32 13c2,1 2,3 0,4l-30 18c-2,1 -4,1 -6,0l-32 -13c-2,0 -2,-3 0,-4l31 -17c1,-1 3,-2 5,-1z"/>
   <path class="fil1 str2" d="M2823 1662l32 13c2,1 2,3 1,4l-31 18c-2,1 -4,1 -6,0l-31 -13c-2,0 -2,-3 -1,-4l31 -17c2,-1 4,-2 5,-1z"/>
   <path class="fil1 str2" d="M2773 1691l32 13c2,1 2,3 0,4l-31 18c-1,1 -3,1 -6,0l-31 -13c-2,0 -2,-3 0,-4l31 -17c1,-1 3,-2 5,-1z"/>
   <path class="fil1 str2" d="M2722 1720l32 13c2,1 2,3 1,4l-31 18c-2,1 -4,1 -6,0l-31 -13c-2,0 -2,-3 -1,-4l31 -17c2,-1 4,-2 5,-1z"/>
   <path class="fil1 str2" d="M2672 1749l32 13c1,1 2,3 0,4l-31 18c-1,1 -4,1 -6,0l-31 -13c-2,-1 -2,-3 0,-4l31 -18c1,0 3,-1 5,0z"/>
   <path class="fil1 str2" d="M2621 1778l32 13c2,1 2,3 1,4l-31 18c-2,1 -4,1 -6,0l-32 -13c-1,-1 -1,-3 0,-4l31 -18c2,0 3,-1 5,0z"/>
  </g>
  <g id="_1061347280">
   <path class="fil1 str2" d="M3187 1513l32 13c2,1 2,3 1,4l-31 17c-2,1 -4,2 -6,1l-32 -13c-1,-1 -1,-3 0,-4l31 -18c2,-1 3,-1 5,0z"/>
   <path class="fil1 str2" d="M3137 1542l32 13c1,1 2,3 0,4l-31 17c-2,1 -4,2 -6,1l-31 -13c-2,-1 -2,-3 0,-4l31 -18c1,-1 3,-1 5,0z"/>
   <path class="fil1 str2" d="M3086 1571l32 13c2,1 2,3 0,4l-30 17c-2,1 -4,2 -6,1l-32 -13c-1,-1 -1,-3 0,-4l31 -18c2,-1 3,-1 5,0z"/>
   <path class="fil1 str2" d="M3036 1600l32 13c1,1 1,3 0,4l-31 17c-2,1 -4,2 -6,1l-31 -13c-2,-1 -2,-3 0,-4l31 -18c1,-1 3,-1 5,0z"/>
   <path class="fil1 str2" d="M2985 1629l32 13c2,1 2,3 0,4l-30 17c-2,1 -4,1 -6,1l-32 -13c-1,-1 -2,-3 0,-4l31 -18c2,-1 3,-1 5,0z"/>
   <path class="fil1 str2" d="M2935 1658l32 13c1,0 1,3 0,4l-31 17c-2,1 -4,1 -6,1l-31 -13c-2,-1 -2,-3 -1,-4l32 -18c1,-1 3,-1 5,0z"/>
   <path class="fil1 str2" d="M2884 1687l32 13c2,0 2,3 0,4l-30 17c-2,1 -4,1 -6,1l-32 -13c-1,-1 -2,-3 0,-4l31 -18c2,-1 3,-1 5,0z"/>
   <path class="fil1 str2" d="M2833 1716l32 13c2,0 2,3 1,4l-31 17c-2,1 -4,1 -6,1l-31 -13c-2,-1 -2,-3 -1,-4l31 -18c2,-1 4,-1 5,0z"/>
   <path class="fil1 str2" d="M2783 1745l32 13c2,0 2,3 0,4l-30 17c-2,1 -4,1 -6,1l-32 -13c-2,-1 -2,-3 0,-4l31 -18c1,-1 3,-1 5,0z"/>
   <path class="fil1 str2" d="M2732 1774l32 13c2,0 2,3 1,4l-31 17c-2,1 -4,1 -6,1l-31 -13c-2,-1 -2,-3 -1,-4l31 -18c2,-1 4,-1 5,0z"/>
   <path class="fil1 str2" d="M2682 1803l32 13c2,0 2,3 0,4l-31 17c-1,1 -3,1 -6,1l-31 -13c-2,-1 -2,-3 0,-4l31 -18c1,-1 3,-1 5,0z"/>
  </g>
  <path class="fil12 str5" d="M3253 1569c-2,23 7,97 7,138 0,96 -15,51 -22,-8 -12,-98 -39,80 -46,88 -20,21 -8,-76 -8,-89 0,-25 10,-70 -6,-88 -11,-12 -86,-175 -35,-146 53,29 26,87 79,73 7,-2 60,-239 63,-98 0,12 -32,115 -32,130z"/>
  <path class="fil13 str5" d="M3183 1525c14,11 49,8 55,-25 6,-35 -7,-58 -37,-51 -14,3 -27,21 -29,38 -2,14 -1,33 11,38z"/>
  <path class="fil1 str1" d="M3035 1677l97 39c3,1 4,4 4,6 0,3 -2,6 -5,7l-215 123c-6,4 -12,5 -18,2l-97 -39c-2,-1 -3,-3 -3,-6 0,-3 2,-5 4,-7l217 -124c6,-3 10,-4 16,-1z"/>
  <path class="fil8 str4" d="M3035 1700l97 40c3,1 4,3 4,6 0,3 -2,6 -5,7l-215 123c-6,3 -12,5 -18,2l-97 -39c-2,-1 -3,-3 -3,-6 0,-3 2,-6 4,-7l217 -124c6,-3 10,-4 16,-2z"/>
  <path class="fil1 str1" d="M2612 1876l0 24 121 49 0 -23 -121 -50z"/>
  <path class="fil1 str1" d="M2506 1833l0 24 33 14 0 -24 -33 -14z"/>
  <path class="fil1 str1" d="M2437 1805l0 24 50 20 0 -24 -50 -20z"/>
  <path class="fil1 str1" d="M2754 1934l0 24 33 13 0 -24 -33 -13z"/>
  <path class="fil1 str1" d="M3409 1612l0 24 -61 35 0 -24 61 -35z"/>
  <path class="fil1 str6" d="M2886 1939c6,0 10,-4 10,-9 0,-6 -4,-10 -10,-10 -5,0 -9,4 -9,10 0,5 4,9 9,9z"/>
  <path class="fil1 str1" d="M3683 2266l0 23 34 14 0 -24 -34 -13z"/>
  <path class="fil1 str1" d="M3574 2221l0 24 81 33 0 -24 -81 -33z"/>
  <path class="fil1 str6" d="M4127 2453c-6,0 -10,4 -10,9 0,5 4,9 10,9 5,0 9,-4 9,-9 0,-5 -4,-9 -9,-9z"/>
  <path class="fil1 str1" d="M4484 2294l0 24 -60 34 0 -24 60 -34z"/>
  <path class="fil1 str0" d="M3251 1783l-332 190c-35,20 -33,45 -17,58 22,19 73,20 129,-11l350 -201c64,-37 -30,-93 -130,-36z"/>
  <path class="fil1 str1" d="M3647 1432l-92 53c-1,1 -2,2 -2,4 1,1 1,2 3,3l78 32c3,1 5,0 8,-1l91 -52c1,-1 2,-3 2,-4 0,-2 -1,-3 -3,-4l-77 -31c-3,-1 -6,-1 -8,0z"/>
  <path class="fil1 str1" d="M3714 1610l0 40 -38 -16 0 -39 38 15z"/>
  <path class="fil1 str7" d="M3635 2601c6,0 10,-5 10,-10 0,-5 -4,-9 -10,-9 -5,0 -9,4 -9,9 0,5 4,10 9,10z"/>
  <path class="fil14" d="M4230 1726l231 94c4,1 8,1 11,-1 4,-1 7,-6 7,-11l0 -234c0,-8 -3,-13 -11,-16l-231 -94c-9,-3 -18,2 -18,12l0 234c0,8 3,13 11,16z"/>
  <path class="fil11" d="M4433 1936l-125 -51c-12,-5 -21,1 -23,11 -2,8 1,20 12,24l130 53c23,9 33,-26 6,-37z"/>
  <path class="fil15" d="M4304 2092l116 47c2,0 5,0 6,-1 2,-1 3,-3 3,-5l0 -118c0,-3 -2,-6 -5,-8l-116 -47c-2,0 -4,0 -6,1 -2,1 -3,3 -3,5l0 118c0,4 1,6 5,8z"/>
  <path class="fil16" d="M4025 1496l-127 -51c-13,-6 -21,1 -23,11 -2,8 2,19 11,23l131 53c13,5 22,-3 23,-13 1,-8 -3,-18 -15,-23z"/>
  <path class="fil16" d="M3926 1525l97 39c7,3 8,13 6,19 -2,5 -7,7 -12,5l-95 -39c-9,-3 -11,-11 -9,-17 1,-6 7,-10 13,-7z"/>
  <path class="fil13" d="M4406 1627c11,2 21,-7 21,-18 0,-12 -10,-22 -21,-24 -12,-1 -21,7 -21,19 0,12 9,22 21,23z"/>
  <path class="fil13" d="M4430 1647l0 17c0,11 -24,9 -40,1 -7,-4 -13,-10 -13,-15l0 -17c0,-11 15,-14 29,-11 13,4 24,14 24,25z"/>
  <path class="fil1 str1" d="M2301 1295l-360 207c-1,1 -2,1 -3,1 -3,1 -5,1 -8,0l-93 -38"/>
  <path class="fil17" d="M3082 1292l-303 174c-7,4 -14,-1 -14,-7l0 -226c0,-7 2,-11 8,-15l305 -174c7,-4 13,0 13,7l0 225c0,8 -1,12 -9,16z"/>
  <path class="fil6" d="M3108 968l-279 160c-17,9 -38,0 -45,-21 -7,-22 1,-57 31,-74l271 -156c26,-15 53,1 56,31 2,20 -5,43 -34,60z"/>
  <path class="fil15" d="M2908 1371l-117 68c-4,2 -8,0 -8,-4l0 -104c0,-4 1,-7 5,-9l117 -67c3,-2 7,1 7,4l0 106c0,3 -1,4 -4,6z"/>
  <path class="fil1 str3" d="M3113 1309l-304 174c-3,2 -6,2 -8,1 -3,-1 -5,-4 -5,-8l0 -226c0,-6 1,-11 7,-14l305 -175c7,-4 13,0 13,7l0 225c0,8 -1,12 -8,16z"/>
  <path class="fil1 str1" d="M3140 983l-278 160c-17,10 -39,1 -46,-21 -7,-22 1,-57 31,-74l272 -156c26,-15 53,2 56,31 2,20 -6,43 -35,60z"/>
  <path class="fil1 str1" d="M4460 1410l0 48"/>
  <path class="fil1 str1" d="M4560 1357l110 45c3,1 5,4 5,8 0,4 -3,7 -6,9l-73 42c-6,4 -15,4 -20,2l-111 -45c-3,-1 -5,-4 -5,-8 1,-3 3,-7 6,-9l73 -41c7,-5 14,-5 21,-3z"/>
  <path class="fil1 str1" d="M4675 1410l0 50"/>
  <path class="fil1 str1" d="M4560 1404l110 45c3,1 5,4 5,8 0,3 -3,7 -6,9l-73 42c-6,3 -15,4 -20,2l-111 -45c-3,-1 -5,-4 -5,-8 1,-4 3,-7 6,-9l73 -42c7,-4 14,-5 21,-2z"/>
  <path class="fil1 str1" d="M4587 1463l0 48"/>
  <path class="fil11" d="M2841 1074l104 -59c19,-11 30,16 12,26l-107 61c-9,5 -17,0 -19,-9 -1,-6 1,-14 10,-19z"/>
  <path class="fil11" d="M2477 1630l0 -14 -9 4 0 14 9 -4zm-15 36c0,0 -1,0 -1,0 -1,-1 -1,-1 -1,-2l0 -21c0,-1 0,-2 1,-3 0,-1 1,-2 1,-2l2 -1 0 -18c0,-1 0,-2 1,-3 0,-1 1,-1 1,-1l13 -8c0,0 1,0 1,1 0,0 1,1 1,2l0 17 2 -1c0,0 1,0 1,0 1,1 1,2 1,2l0 22c0,1 0,1 -1,2 0,1 -1,2 -1,2 -1,1 -1,1 -2,0 0,0 0,-1 0,-2l0 -18 -13 7 0 18c0,1 0,2 0,3 -1,1 -1,1 -2,2l-4 2zm29 -16c-1,0 -1,0 -1,-1 -1,0 -1,-1 -1,-2l0 -42c0,-1 0,-2 1,-3 0,-1 0,-1 1,-2 1,0 1,0 1,1 1,0 1,1 1,2l0 17 2 -1c1,0 1,0 2,0 0,1 0,1 0,2l0 18 13 -7 0 -4c0,-1 0,-2 0,-2 1,-1 1,-2 2,-2 0,-1 1,-1 1,0 0,0 1,1 1,2l0 7c0,1 -1,2 -1,3 0,1 -1,1 -1,2l-21 12zm47 -35l0 -14 -12 7 0 14 12 -7zm-4 -18l0 -14 -12 7 0 14 12 -7zm-14 36c-1,0 -1,0 -2,0 0,-1 0,-1 0,-2l0 -42c0,-1 0,-2 0,-3 1,-1 1,-2 2,-2l16 -10c1,0 1,0 2,1 0,0 0,1 0,2l0 17 2 -1c1,0 1,0 2,0 0,1 0,1 0,2l0 21c0,1 0,2 0,3 -1,1 -1,2 -2,2l-20 12zm29 -17c-1,1 -1,1 -2,0 0,0 0,-1 0,-2l0 -42c0,-1 0,-2 0,-3 1,-1 1,-1 2,-2l20 -11c1,-1 1,-1 2,0 0,0 0,1 0,2 0,1 0,2 0,3 -1,1 -1,1 -2,2l-18 10 0 14 14 -8c1,0 1,0 2,0 0,1 0,1 0,2 0,1 0,2 0,3 -1,1 -1,2 -2,2l-10 6 0 14 14 -8c1,-1 1,-1 2,0 0,0 0,1 0,2 0,1 0,2 0,3 -1,1 -1,1 -2,2l-20 11zm43 -52l0 -14 -12 7 0 14 12 -7zm-14 36c-1,0 -2,0 -2,0 0,-1 -1,-1 -1,-2l0 -43c0,0 1,-1 1,-2 0,-1 1,-2 2,-2l16 -10c1,0 1,0 1,1 1,0 1,1 1,2l0 17 2 -1c1,0 1,0 2,0 0,1 0,1 0,2l0 21c0,1 0,2 0,3 -1,1 -1,2 -2,2 0,0 -1,0 -1,0 -1,-1 -1,-1 -1,-2l0 -18 -12 7 0 18c0,1 -1,2 -1,3 0,1 -1,1 -1,2l-4 2zm37 -21c-1,0 -1,0 -2,0 0,-1 0,-2 0,-3l0 -38 -7 3c0,1 -1,1 -1,0 0,0 -1,-1 -1,-2 0,-1 1,-2 1,-3 0,-1 1,-1 1,-2l21 -12c1,0 1,0 1,1 1,0 1,1 1,2 0,1 0,2 -1,3 0,1 0,1 -1,1l-10 6 0 14 2 -1c0,0 1,0 1,0 1,1 1,2 1,3l0 21c0,1 0,2 -1,2 0,1 -1,2 -1,2l-4 3zm39 -30l0 -35 -17 10 0 14 2 -2c1,0 1,0 2,1 0,0 0,1 0,2l0 17 13 -7zm-19 18c0,0 -1,0 -1,0 -1,-1 -1,-1 -1,-2l0 -43c0,-1 0,-1 1,-2 0,-1 1,-2 1,-2l21 -12c0,0 1,0 1,0 1,1 1,1 1,2l0 42c0,1 0,2 -1,3 0,1 -1,2 -1,2l-21 12zm58 -33c-1,0 -1,0 -2,0 0,-1 0,-2 0,-2l0 -43c0,-1 0,-2 0,-2 1,-1 1,-2 2,-2l21 -12c0,0 1,0 1,0 0,1 1,1 1,2 0,1 -1,2 -1,3 0,1 -1,2 -1,2l-19 11 0 14 14 -9c1,0 1,0 2,1 0,0 0,1 0,2 0,1 0,2 0,2 -1,1 -1,2 -2,2l-10 6 0 18c0,1 0,2 -1,3 0,1 0,1 -1,1l-4 3zm33 -19c-1,0 -1,0 -2,0 0,-1 0,-1 0,-2l0 -7c0,-1 0,-2 0,-3 1,-1 1,-2 2,-2l4 -2c1,-1 1,-1 1,0 1,0 1,1 1,2l0 7c0,1 0,2 -1,3 0,1 0,1 -1,2l-4 2z"/>
  <path class="fil13" d="M4037 1983c5,0 9,-4 9,-9 0,-5 -4,-9 -9,-9 -5,0 -9,4 -9,9 0,5 4,9 9,9z"/>
  <path class="fil13" d="M4002 1969c5,0 8,-4 8,-9 0,-5 -3,-9 -8,-9 -5,0 -9,4 -9,9 0,5 4,9 9,9z"/>
  <path class="fil13" d="M3967 1955c4,0 8,-4 8,-9 0,-5 -4,-9 -8,-9 -5,0 -9,4 -9,9 0,5 4,9 9,9z"/>
  <path class="fil13" d="M3931 1940c5,0 9,-4 9,-9 0,-5 -4,-9 -9,-9 -4,0 -8,4 -8,9 0,5 4,9 8,9z"/>
  <path class="fil13" d="M4517 1702c5,0 9,-4 9,-9 0,-5 -4,-9 -9,-9 -5,0 -9,4 -9,9 0,5 4,9 9,9z"/>
  <path class="fil13" d="M2965 1338c4,0 8,-4 8,-9 0,-5 -4,-9 -8,-9 -5,0 -9,4 -9,9 0,5 4,9 9,9z"/>
  <path class="fil13" d="M2994 1321c5,0 9,-4 9,-9 0,-4 -4,-8 -9,-8 -5,0 -9,4 -9,8 0,5 4,9 9,9z"/>
  <path class="fil13" d="M3024 1305c4,0 8,-4 8,-9 0,-5 -4,-9 -8,-9 -5,0 -9,4 -9,9 0,5 4,9 9,9z"/>
  <path class="fil13" d="M3053 1288c5,0 9,-4 9,-9 0,-5 -4,-9 -9,-9 -5,0 -9,4 -9,9 0,5 4,9 9,9z"/>
  <path class="fil1 str8" d="M3018 1415c10,-2 18,-12 18,-23 0,-10 -8,-17 -18,-15 -10,3 -19,13 -19,24 0,10 9,17 19,14z"/>
  <path class="fil1 str8" d="M3126 966c14,-3 25,-17 25,-31 0,-15 -11,-24 -25,-21 -14,4 -25,18 -25,32 0,14 11,23 25,20z"/>
  <path class="fil1 str8" d="M4236 2057c18,4 33,-8 33,-27 0,-18 -15,-37 -33,-41 -18,-4 -32,8 -32,26 0,19 14,37 32,42z"/>
  <path class="fil1 str8" d="M3892 1980c10,2 18,-5 18,-15 0,-11 -8,-21 -18,-23 -10,-3 -19,4 -19,14 0,11 9,21 19,24z"/>
  <path class="fil4" d="M2099 1495c13,0 23,-7 23,-16 0,-9 -10,-16 -23,-16 -12,0 -22,7 -22,16 0,9 10,16 22,16z"/>
  <path class="fil1 str1" d="M1715 1272l0 40 -38 -16 0 -39 38 15z"/>
 </g>
</svg>
