<?xml version="1.0" encoding="UTF-8"?>
<!DOCTYPE svg PUBLIC "-//W3C//DTD SVG 1.0//EN" "http://www.w3.org/TR/2001/REC-SVG-20010904/DTD/svg10.dtd">
<!-- Creator: CorelDRAW X8 -->
<svg xmlns="http://www.w3.org/2000/svg" xml:space="preserve" width="2200px" height="1800px" version="1.0" style="shape-rendering:geometricPrecision; text-rendering:geometricPrecision; image-rendering:optimizeQuality; fill-rule:evenodd; clip-rule:evenodd"
viewBox="0 0 585 478"
 xmlns:xlink="http://www.w3.org/1999/xlink">
 <defs>
  <style type="text/css">
   <![CDATA[
    .str0 {stroke:black;stroke-width:0.239214}
    .fil1 {fill:none}
    .fil0 {fill:url(#id0)}
   ]]>
  </style>
  <radialGradient id="id0" gradientUnits="userSpaceOnUse" gradientTransform="matrix(1.05263 -0 -0 0.349753 -16 174)" cx="309.915" cy="267.92" r="303.979" fx="309.915" fy="267.92">
   <stop offset="0" style="stop-opacity:1; stop-color:#66084F"/>
   <stop offset="1" style="stop-opacity:1; stop-color:#263942"/>
  </radialGradient>
 </defs>
 <g id="Camada_x0020_1">
  <metadata id="CorelCorpID_0Corel-Layer"/>
  <path class="fil0" d="M0 0l585 0 0 478 -585 0 0 -478z"/>
  <path class="fil1 str0" d="M261 228c-8,2 -68,23 -68,12 1,-28 -2,-56 2,-86 5,-37 -10,-28 45,-43 17,-5 76,-24 87,-16 6,4 -7,112 -16,115 -16,7 -28,14 -46,17 0,0 -10,38 16,27"/>
  <path class="fil1 str0" d="M353 253c-16,-10 -10,-11 -10,-37 0,-42 -5,-22 39,-44 11,-5 68,-4 69,6 2,17 8,47 -11,57 -33,18 -27,33 -70,22 -5,-1 -3,0 -6,-6"/>
  <path class="fil1 str0" d="M281 320c16,-4 69,-22 83,-34 12,-10 59,21 71,22 9,1 11,11 -3,19 -19,12 -103,56 -123,46 -33,-17 -25,-27 -44,-34 -11,-4 7,-5 3,-16"/>
  <path class="fil1 str0" d="M459 309c-11,-4 -57,-15 -24,-26 23,-7 29,-3 52,10 13,8 -2,26 -28,16z"/>
  <path class="fil1 str0" d="M175 268c0,-4 -4,-53 -6,-53 -26,-6 -77,-3 -97,12 0,0 -4,32 3,34 0,0 46,25 49,29 3,6 43,-15 49,-16l-2 0"/>
  <path class="fil1 str0" d="M175 394c35,-16 39,-19 74,-8 7,2 8,33 2,34 -30,5 -28,25 -61,8 -10,-5 -31,-1 -20,-26 1,-2 3,-1 -4,-4"/>
  <path class="fil1 str0" d="M268 250c43,2 43,-39 76,2 21,26 59,-14 78,-25 13,-8 59,-47 70,-48l-4 -2"/>
  <path class="fil1 str0" d="M297 315c-18,-7 -6,3 -29,5 0,0 -66,29 -67,30 -7,19 -14,1 -22,-11 -21,-32 -27,-11 -64,0"/>
  <path class="fil1 str0" d="M256 351c-26,8 -21,6 -21,26 0,5 -60,22 -65,16 -16,-20 4,-36 -51,-11 -7,4 -27,10 -36,14"/>
  <path class="fil1 str0" d="M317 372c1,26 -30,-4 -3,42 7,11 9,13 -15,18 -21,5 -29,1 -51,10 -4,1 -11,0 -4,3"/>
  <path class="fil1 str0" d="M358 368c3,1 48,33 49,34 0,0 21,16 22,16"/>
  <path class="fil1 str0" d="M415 347c-2,9 14,18 30,6 27,-22 67,30 83,33"/>
  <path class="fil1 str0" d="M403 374c9,-9 35,-28 49,-16 16,13 51,15 16,43 -13,10 -49,-24 -56,-28 0,0 -3,1 3,-1"/>
  <path class="fil1 str0" d="M404 285c40,-19 31,-42 75,-10 22,16 12,-3 47,-15 4,-1 9,-7 11,-10"/>
  <path class="fil1 str0" d="M451 247c-36,-10 0,-16 13,-29 12,-11 35,-4 47,2 7,3 10,22 0,27 -24,10 -32,19 -57,9"/>
  <path class="fil1 str0" d="M195 177c-6,3 -51,25 -59,14 -15,-20 -9,-42 -51,-30 -6,2 -18,-31 -23,-37"/>
  <path class="fil1 str0" d="M185 160c-41,11 -32,-11 -53,-39 -1,-2 -11,-24 -13,-28"/>
  <path class="fil1 str0" d="M240 111c-2,-2 -22,-17 -22,-23"/>
  <path class="fil1 str0" d="M334 154c2,0 32,-8 22,-19 -9,-10 52,-32 56,-37l3 6"/>
  <path class="fil1 str0" d="M87 286c-3,-4 -3,-16 -2,-22 23,-4 27,-4 41,16 7,10 -32,13 -37,13"/>
  <path class="fil1 str0" d="M222 308c-26,12 -26,-31 -20,-34 24,-11 44,-3 42,26 -1,10 -14,9 -25,10l3 -2z"/>
  <path class="fil1 str0" d="M390 128c5,-10 -17,10 -17,-22 0,-20 -7,-27 15,-26 18,0 10,48 4,48 -2,1 -2,1 -2,0z"/>
  <path class="fil1 str0" d="M470 134c-11,0 -13,-26 -4,-26 25,0 27,-5 27,25 0,3 -10,4 -12,2"/>
  <path class="fil1 str0" d="M399 154c6,-2 37,-16 36,-21 -7,-30 18,-22 43,-33 5,-2 25,-12 28,-14"/>
  <path class="fil1 str0" d="M324 84c37,-25 36,-3 2,-56"/>
  <path class="fil1 str0" d="M317 274c21,-8 -7,24 51,-6 22,-11 45,12 66,20 7,3 42,24 44,24"/>
  <path class="fil1 str0" d="M195 274c-15,28 -62,23 -89,39 -6,4 -37,16 -45,19"/>
  <path class="fil1 str0" d="M356 194c45,16 20,18 72,-6 6,-3 19,-6 23,-10"/>
  <path class="fil1 str0" d="M254 244c-4,0 -41,12 -45,14 -10,5 10,10 18,19 3,3 16,11 20,11 9,2 24,-5 37,-7 2,0 57,-9 47,-18 -14,-11 -20,-17 -31,-28 -9,-10 -17,-1 -30,1l-1 0"/>
 </g>
</svg>
